G04 #@! TF.FileFunction,Soldermask,Bot*
%FSLAX46Y46*%
G04 Gerber Fmt 4.6, Leading zero omitted, Abs format (unit mm)*
G04 Created by KiCad (PCBNEW 4.0.7-e2-6376~58~ubuntu16.04.1) date Mon Jul  1 13:34:01 2019*
%MOMM*%
%LPD*%
G01*
G04 APERTURE LIST*
%ADD10C,0.100000*%
%ADD11C,2.305000*%
%ADD12C,1.900000*%
%ADD13O,5.400000X3.000000*%
%ADD14R,3.448000X2.178000*%
%ADD15R,2.178000X3.448000*%
G04 APERTURE END LIST*
D10*
D11*
X183150000Y-97030000D03*
X185690000Y-97030000D03*
X188230000Y-97030000D03*
X190770000Y-97030000D03*
X193310000Y-97030000D03*
X195850000Y-97030000D03*
X193310000Y-79250000D03*
X190770000Y-79250000D03*
X188230000Y-79250000D03*
X185690000Y-79250000D03*
D12*
X206000000Y-124000000D03*
X206000000Y-126000000D03*
D11*
X200810000Y-103630000D03*
X198270000Y-103630000D03*
X195730000Y-103630000D03*
X193190000Y-103630000D03*
X190650000Y-103630000D03*
X188110000Y-103630000D03*
X185570000Y-103630000D03*
X183030000Y-103630000D03*
X180490000Y-103630000D03*
X177950000Y-103630000D03*
X175410000Y-103630000D03*
X172870000Y-103630000D03*
X170330000Y-103630000D03*
X167790000Y-103630000D03*
X165250000Y-103630000D03*
X162710000Y-103630000D03*
X160170000Y-103630000D03*
X157630000Y-103630000D03*
X155090000Y-103630000D03*
X152550000Y-103630000D03*
X150010000Y-103630000D03*
X147470000Y-103630000D03*
X144930000Y-103630000D03*
X142390000Y-103630000D03*
X142390000Y-118870000D03*
X144930000Y-118870000D03*
X147470000Y-118870000D03*
X150010000Y-118870000D03*
X152550000Y-118870000D03*
X155090000Y-118870000D03*
X157630000Y-118870000D03*
X160170000Y-118870000D03*
X162710000Y-118870000D03*
X165250000Y-118870000D03*
X167790000Y-118870000D03*
X170330000Y-118870000D03*
X172870000Y-118870000D03*
X175410000Y-118870000D03*
X177950000Y-118870000D03*
X180490000Y-118870000D03*
X183030000Y-118870000D03*
X185570000Y-118870000D03*
X188110000Y-118870000D03*
X190650000Y-118870000D03*
X193190000Y-118870000D03*
X195730000Y-118870000D03*
X198270000Y-118870000D03*
X200810000Y-118870000D03*
X198270000Y-116330000D03*
X195730000Y-116330000D03*
X193190000Y-116330000D03*
X190650000Y-116330000D03*
X188110000Y-116330000D03*
X155090000Y-106170000D03*
X155090000Y-108710000D03*
X155090000Y-111250000D03*
X155090000Y-113790000D03*
X155090000Y-116330000D03*
X185570000Y-113790000D03*
X185570000Y-111250000D03*
X183030000Y-113790000D03*
X183030000Y-111250000D03*
X180490000Y-113790000D03*
X180490000Y-111250000D03*
X177950000Y-113790000D03*
X177950000Y-111250000D03*
X157630000Y-113790000D03*
X157630000Y-111250000D03*
X160170000Y-113790000D03*
X160170000Y-111250000D03*
X162710000Y-113790000D03*
X162710000Y-111250000D03*
X152550000Y-111250000D03*
X152550000Y-113790000D03*
X150010000Y-111250000D03*
X150010000Y-113790000D03*
X147470000Y-111250000D03*
X147470000Y-113790000D03*
X144930000Y-111250000D03*
X144930000Y-113790000D03*
X142390000Y-111250000D03*
X142390000Y-113790000D03*
D13*
X214000000Y-104000000D03*
X214000000Y-118000000D03*
X224000000Y-104000000D03*
X224000000Y-118000000D03*
X224000000Y-128000000D03*
X224000000Y-123000000D03*
D14*
X175419000Y-139761000D03*
X175419000Y-137221000D03*
X175419000Y-134681000D03*
X175419000Y-132141000D03*
X189389000Y-132141000D03*
X189389000Y-134681000D03*
X189389000Y-137221000D03*
X189389000Y-139761000D03*
X189050000Y-51450600D03*
X189050000Y-53990600D03*
X189050000Y-56530600D03*
X189050000Y-59070600D03*
X175080000Y-59070600D03*
X175080000Y-56530600D03*
X175080000Y-53990600D03*
X175080000Y-51450600D03*
X155407000Y-136855000D03*
X155407000Y-134315000D03*
X155407000Y-131775000D03*
X155407000Y-129235000D03*
X169377000Y-129235000D03*
X169377000Y-131775000D03*
X169377000Y-134315000D03*
X169377000Y-136855000D03*
X169139000Y-72776400D03*
X169139000Y-75316400D03*
X169139000Y-77856400D03*
X169139000Y-80396400D03*
X155169000Y-80396400D03*
X155169000Y-77856400D03*
X155169000Y-75316400D03*
X155169000Y-72776400D03*
X169033000Y-47544000D03*
X169033000Y-50084000D03*
X169033000Y-52624000D03*
X169033000Y-55164000D03*
X155063000Y-55164000D03*
X155063000Y-52624000D03*
X155063000Y-50084000D03*
X155063000Y-47544000D03*
X135391000Y-133135000D03*
X135391000Y-130595000D03*
X135391000Y-128055000D03*
X135391000Y-125515000D03*
X149361000Y-125515000D03*
X149361000Y-128055000D03*
X149361000Y-130595000D03*
X149361000Y-133135000D03*
X149140000Y-72860600D03*
X149140000Y-75400600D03*
X149140000Y-77940600D03*
X149140000Y-80480600D03*
X135170000Y-80480600D03*
X135170000Y-77940600D03*
X135170000Y-75400600D03*
X135170000Y-72860600D03*
X149020000Y-44489600D03*
X149020000Y-47029600D03*
X149020000Y-49569600D03*
X149020000Y-52109600D03*
X135050000Y-52109600D03*
X135050000Y-49569600D03*
X135050000Y-47029600D03*
X135050000Y-44489600D03*
X115373000Y-128956000D03*
X115373000Y-126416000D03*
X115373000Y-123876000D03*
X115373000Y-121336000D03*
X129343000Y-121336000D03*
X129343000Y-123876000D03*
X129343000Y-126416000D03*
X129343000Y-128956000D03*
X129140000Y-72944700D03*
X129140000Y-75484700D03*
X129140000Y-78024700D03*
X129140000Y-80564700D03*
X115170000Y-80564700D03*
X115170000Y-78024700D03*
X115170000Y-75484700D03*
X115170000Y-72944700D03*
X129015000Y-43189500D03*
X129015000Y-45729500D03*
X129015000Y-48269500D03*
X129015000Y-50809500D03*
X115045000Y-50809500D03*
X115045000Y-48269500D03*
X115045000Y-45729500D03*
X115045000Y-43189500D03*
X95349000Y-123161000D03*
X95349000Y-120621000D03*
X95349000Y-118081000D03*
X95349000Y-115541000D03*
X109319000Y-115541000D03*
X109319000Y-118081000D03*
X109319000Y-120621000D03*
X109319000Y-123161000D03*
X109259000Y-101329000D03*
X109259000Y-103869000D03*
X109259000Y-106409000D03*
X109259000Y-108949000D03*
X95289000Y-108949000D03*
X95289000Y-106409000D03*
X95289000Y-103869000D03*
X95289000Y-101329000D03*
X109199000Y-87117000D03*
X109199000Y-89657000D03*
X109199000Y-92197000D03*
X109199000Y-94737000D03*
X95229000Y-94737000D03*
X95229000Y-92197000D03*
X95229000Y-89657000D03*
X95229000Y-87117000D03*
X109139000Y-72905900D03*
X109139000Y-75445900D03*
X109139000Y-77985900D03*
X109139000Y-80525900D03*
X95169000Y-80525900D03*
X95169000Y-77985900D03*
X95169000Y-75445900D03*
X95169000Y-72905900D03*
X109080000Y-58694000D03*
X109080000Y-61234000D03*
X109080000Y-63774000D03*
X109080000Y-66314000D03*
X95110000Y-66314000D03*
X95110000Y-63774000D03*
X95110000Y-61234000D03*
X95110000Y-58694000D03*
X109020000Y-44482100D03*
X109020000Y-47022100D03*
X109020000Y-49562100D03*
X109020000Y-52102100D03*
X95050000Y-52102100D03*
X95050000Y-49562100D03*
X95050000Y-47022100D03*
X95050000Y-44482100D03*
X77315200Y-115204000D03*
X77315200Y-112664000D03*
X77315200Y-110124000D03*
X77315200Y-107584000D03*
X91285200Y-107584000D03*
X91285200Y-110124000D03*
X91285200Y-112664000D03*
X91285200Y-115204000D03*
X91223200Y-92851700D03*
X91223200Y-95391700D03*
X91223200Y-97931700D03*
X91223200Y-100471700D03*
X77253200Y-100471700D03*
X77253200Y-97931700D03*
X77253200Y-95391700D03*
X77253200Y-92851700D03*
X91161200Y-78117300D03*
X91161200Y-80657300D03*
X91161200Y-83197300D03*
X91161200Y-85737300D03*
X77191200Y-85737300D03*
X77191200Y-83197300D03*
X77191200Y-80657300D03*
X77191200Y-78117300D03*
X91099200Y-63384900D03*
X91099200Y-65924900D03*
X91099200Y-68464900D03*
X91099200Y-71004900D03*
X77129200Y-71004900D03*
X77129200Y-68464900D03*
X77129200Y-65924900D03*
X77129200Y-63384900D03*
X91037200Y-48652600D03*
X91037200Y-51192600D03*
X91037200Y-53732600D03*
X91037200Y-56272600D03*
X77067200Y-56272600D03*
X77067200Y-53732600D03*
X77067200Y-51192600D03*
X77067200Y-48652600D03*
X59262500Y-102735500D03*
X59262500Y-100195500D03*
X59262500Y-97655500D03*
X59262500Y-95115500D03*
X73232500Y-95115500D03*
X73232500Y-97655500D03*
X73232500Y-100195500D03*
X73232500Y-102735500D03*
X73154700Y-76605700D03*
X73154700Y-79145700D03*
X73154700Y-81685700D03*
X73154700Y-84225700D03*
X59184700Y-84225700D03*
X59184700Y-81685700D03*
X59184700Y-79145700D03*
X59184700Y-76605700D03*
X73076800Y-58095000D03*
X73076800Y-60635000D03*
X73076800Y-63175000D03*
X73076800Y-65715000D03*
X59106800Y-65715000D03*
X59106800Y-63175000D03*
X59106800Y-60635000D03*
X59106800Y-58095000D03*
D15*
X47764800Y-74677400D03*
X50304800Y-74677400D03*
X52844800Y-74677400D03*
X55384800Y-74677400D03*
X55384800Y-88647400D03*
X52844800Y-88647400D03*
X50304800Y-88647400D03*
X47764800Y-88647400D03*
M02*
