G04 #@! TF.FileFunction,Copper,L2,Bot,Signal*
%FSLAX46Y46*%
G04 Gerber Fmt 4.6, Leading zero omitted, Abs format (unit mm)*
G04 Created by KiCad (PCBNEW 4.0.7-e2-6376~58~ubuntu16.04.1) date Mon Jul  1 13:34:01 2019*
%MOMM*%
%LPD*%
G01*
G04 APERTURE LIST*
%ADD10C,0.100000*%
%ADD11C,1.905000*%
%ADD12C,1.500000*%
%ADD13O,5.000000X2.600000*%
%ADD14R,3.048000X1.778000*%
%ADD15R,1.778000X3.048000*%
%ADD16C,0.600000*%
%ADD17C,0.250000*%
G04 APERTURE END LIST*
D10*
D11*
X183150000Y-97030000D03*
X185690000Y-97030000D03*
X188230000Y-97030000D03*
X190770000Y-97030000D03*
X193310000Y-97030000D03*
X195850000Y-97030000D03*
X193310000Y-79250000D03*
X190770000Y-79250000D03*
X188230000Y-79250000D03*
X185690000Y-79250000D03*
D12*
X206000000Y-124000000D03*
X206000000Y-126000000D03*
D11*
X200810000Y-103630000D03*
X198270000Y-103630000D03*
X195730000Y-103630000D03*
X193190000Y-103630000D03*
X190650000Y-103630000D03*
X188110000Y-103630000D03*
X185570000Y-103630000D03*
X183030000Y-103630000D03*
X180490000Y-103630000D03*
X177950000Y-103630000D03*
X175410000Y-103630000D03*
X172870000Y-103630000D03*
X170330000Y-103630000D03*
X167790000Y-103630000D03*
X165250000Y-103630000D03*
X162710000Y-103630000D03*
X160170000Y-103630000D03*
X157630000Y-103630000D03*
X155090000Y-103630000D03*
X152550000Y-103630000D03*
X150010000Y-103630000D03*
X147470000Y-103630000D03*
X144930000Y-103630000D03*
X142390000Y-103630000D03*
X142390000Y-118870000D03*
X144930000Y-118870000D03*
X147470000Y-118870000D03*
X150010000Y-118870000D03*
X152550000Y-118870000D03*
X155090000Y-118870000D03*
X157630000Y-118870000D03*
X160170000Y-118870000D03*
X162710000Y-118870000D03*
X165250000Y-118870000D03*
X167790000Y-118870000D03*
X170330000Y-118870000D03*
X172870000Y-118870000D03*
X175410000Y-118870000D03*
X177950000Y-118870000D03*
X180490000Y-118870000D03*
X183030000Y-118870000D03*
X185570000Y-118870000D03*
X188110000Y-118870000D03*
X190650000Y-118870000D03*
X193190000Y-118870000D03*
X195730000Y-118870000D03*
X198270000Y-118870000D03*
X200810000Y-118870000D03*
X198270000Y-116330000D03*
X195730000Y-116330000D03*
X193190000Y-116330000D03*
X190650000Y-116330000D03*
X188110000Y-116330000D03*
X155090000Y-106170000D03*
X155090000Y-108710000D03*
X155090000Y-111250000D03*
X155090000Y-113790000D03*
X155090000Y-116330000D03*
X185570000Y-113790000D03*
X185570000Y-111250000D03*
X183030000Y-113790000D03*
X183030000Y-111250000D03*
X180490000Y-113790000D03*
X180490000Y-111250000D03*
X177950000Y-113790000D03*
X177950000Y-111250000D03*
X157630000Y-113790000D03*
X157630000Y-111250000D03*
X160170000Y-113790000D03*
X160170000Y-111250000D03*
X162710000Y-113790000D03*
X162710000Y-111250000D03*
X152550000Y-111250000D03*
X152550000Y-113790000D03*
X150010000Y-111250000D03*
X150010000Y-113790000D03*
X147470000Y-111250000D03*
X147470000Y-113790000D03*
X144930000Y-111250000D03*
X144930000Y-113790000D03*
X142390000Y-111250000D03*
X142390000Y-113790000D03*
D13*
X214000000Y-104000000D03*
X214000000Y-118000000D03*
X224000000Y-104000000D03*
X224000000Y-118000000D03*
X224000000Y-128000000D03*
X224000000Y-123000000D03*
D14*
X175419000Y-139761000D03*
X175419000Y-137221000D03*
X175419000Y-134681000D03*
X175419000Y-132141000D03*
X189389000Y-132141000D03*
X189389000Y-134681000D03*
X189389000Y-137221000D03*
X189389000Y-139761000D03*
X189050000Y-51450600D03*
X189050000Y-53990600D03*
X189050000Y-56530600D03*
X189050000Y-59070600D03*
X175080000Y-59070600D03*
X175080000Y-56530600D03*
X175080000Y-53990600D03*
X175080000Y-51450600D03*
X155407000Y-136855000D03*
X155407000Y-134315000D03*
X155407000Y-131775000D03*
X155407000Y-129235000D03*
X169377000Y-129235000D03*
X169377000Y-131775000D03*
X169377000Y-134315000D03*
X169377000Y-136855000D03*
X169139000Y-72776400D03*
X169139000Y-75316400D03*
X169139000Y-77856400D03*
X169139000Y-80396400D03*
X155169000Y-80396400D03*
X155169000Y-77856400D03*
X155169000Y-75316400D03*
X155169000Y-72776400D03*
X169033000Y-47544000D03*
X169033000Y-50084000D03*
X169033000Y-52624000D03*
X169033000Y-55164000D03*
X155063000Y-55164000D03*
X155063000Y-52624000D03*
X155063000Y-50084000D03*
X155063000Y-47544000D03*
X135391000Y-133135000D03*
X135391000Y-130595000D03*
X135391000Y-128055000D03*
X135391000Y-125515000D03*
X149361000Y-125515000D03*
X149361000Y-128055000D03*
X149361000Y-130595000D03*
X149361000Y-133135000D03*
X149140000Y-72860600D03*
X149140000Y-75400600D03*
X149140000Y-77940600D03*
X149140000Y-80480600D03*
X135170000Y-80480600D03*
X135170000Y-77940600D03*
X135170000Y-75400600D03*
X135170000Y-72860600D03*
X149020000Y-44489600D03*
X149020000Y-47029600D03*
X149020000Y-49569600D03*
X149020000Y-52109600D03*
X135050000Y-52109600D03*
X135050000Y-49569600D03*
X135050000Y-47029600D03*
X135050000Y-44489600D03*
X115373000Y-128956000D03*
X115373000Y-126416000D03*
X115373000Y-123876000D03*
X115373000Y-121336000D03*
X129343000Y-121336000D03*
X129343000Y-123876000D03*
X129343000Y-126416000D03*
X129343000Y-128956000D03*
X129140000Y-72944700D03*
X129140000Y-75484700D03*
X129140000Y-78024700D03*
X129140000Y-80564700D03*
X115170000Y-80564700D03*
X115170000Y-78024700D03*
X115170000Y-75484700D03*
X115170000Y-72944700D03*
X129015000Y-43189500D03*
X129015000Y-45729500D03*
X129015000Y-48269500D03*
X129015000Y-50809500D03*
X115045000Y-50809500D03*
X115045000Y-48269500D03*
X115045000Y-45729500D03*
X115045000Y-43189500D03*
X95349000Y-123161000D03*
X95349000Y-120621000D03*
X95349000Y-118081000D03*
X95349000Y-115541000D03*
X109319000Y-115541000D03*
X109319000Y-118081000D03*
X109319000Y-120621000D03*
X109319000Y-123161000D03*
X109259000Y-101329000D03*
X109259000Y-103869000D03*
X109259000Y-106409000D03*
X109259000Y-108949000D03*
X95289000Y-108949000D03*
X95289000Y-106409000D03*
X95289000Y-103869000D03*
X95289000Y-101329000D03*
X109199000Y-87117000D03*
X109199000Y-89657000D03*
X109199000Y-92197000D03*
X109199000Y-94737000D03*
X95229000Y-94737000D03*
X95229000Y-92197000D03*
X95229000Y-89657000D03*
X95229000Y-87117000D03*
X109139000Y-72905900D03*
X109139000Y-75445900D03*
X109139000Y-77985900D03*
X109139000Y-80525900D03*
X95169000Y-80525900D03*
X95169000Y-77985900D03*
X95169000Y-75445900D03*
X95169000Y-72905900D03*
X109080000Y-58694000D03*
X109080000Y-61234000D03*
X109080000Y-63774000D03*
X109080000Y-66314000D03*
X95110000Y-66314000D03*
X95110000Y-63774000D03*
X95110000Y-61234000D03*
X95110000Y-58694000D03*
X109020000Y-44482100D03*
X109020000Y-47022100D03*
X109020000Y-49562100D03*
X109020000Y-52102100D03*
X95050000Y-52102100D03*
X95050000Y-49562100D03*
X95050000Y-47022100D03*
X95050000Y-44482100D03*
X77315200Y-115204000D03*
X77315200Y-112664000D03*
X77315200Y-110124000D03*
X77315200Y-107584000D03*
X91285200Y-107584000D03*
X91285200Y-110124000D03*
X91285200Y-112664000D03*
X91285200Y-115204000D03*
X91223200Y-92851700D03*
X91223200Y-95391700D03*
X91223200Y-97931700D03*
X91223200Y-100471700D03*
X77253200Y-100471700D03*
X77253200Y-97931700D03*
X77253200Y-95391700D03*
X77253200Y-92851700D03*
X91161200Y-78117300D03*
X91161200Y-80657300D03*
X91161200Y-83197300D03*
X91161200Y-85737300D03*
X77191200Y-85737300D03*
X77191200Y-83197300D03*
X77191200Y-80657300D03*
X77191200Y-78117300D03*
X91099200Y-63384900D03*
X91099200Y-65924900D03*
X91099200Y-68464900D03*
X91099200Y-71004900D03*
X77129200Y-71004900D03*
X77129200Y-68464900D03*
X77129200Y-65924900D03*
X77129200Y-63384900D03*
X91037200Y-48652600D03*
X91037200Y-51192600D03*
X91037200Y-53732600D03*
X91037200Y-56272600D03*
X77067200Y-56272600D03*
X77067200Y-53732600D03*
X77067200Y-51192600D03*
X77067200Y-48652600D03*
X59262500Y-102735500D03*
X59262500Y-100195500D03*
X59262500Y-97655500D03*
X59262500Y-95115500D03*
X73232500Y-95115500D03*
X73232500Y-97655500D03*
X73232500Y-100195500D03*
X73232500Y-102735500D03*
X73154700Y-76605700D03*
X73154700Y-79145700D03*
X73154700Y-81685700D03*
X73154700Y-84225700D03*
X59184700Y-84225700D03*
X59184700Y-81685700D03*
X59184700Y-79145700D03*
X59184700Y-76605700D03*
X73076800Y-58095000D03*
X73076800Y-60635000D03*
X73076800Y-63175000D03*
X73076800Y-65715000D03*
X59106800Y-65715000D03*
X59106800Y-63175000D03*
X59106800Y-60635000D03*
X59106800Y-58095000D03*
D15*
X47764800Y-74677400D03*
X50304800Y-74677400D03*
X52844800Y-74677400D03*
X55384800Y-74677400D03*
X55384800Y-88647400D03*
X52844800Y-88647400D03*
X50304800Y-88647400D03*
X47764800Y-88647400D03*
D16*
X112721900Y-66355800D03*
X57413200Y-93844100D03*
X79412400Y-70684000D03*
X57126100Y-76593500D03*
X107207100Y-115541000D03*
X80169100Y-85641700D03*
X187312900Y-133184600D03*
X181177600Y-70992700D03*
X93151400Y-67485800D03*
X139988400Y-53688700D03*
X151800900Y-80197600D03*
X80566600Y-56985000D03*
X113071500Y-79929700D03*
X86325000Y-100667100D03*
X93638100Y-99864500D03*
X97288400Y-94804200D03*
X136131000Y-124100100D03*
X132523100Y-80393000D03*
X132636000Y-109454000D03*
X139077500Y-112575600D03*
X155441700Y-124034000D03*
X131175200Y-75887500D03*
X151867600Y-76614900D03*
X172494700Y-53175700D03*
X158347100Y-133734700D03*
X70881200Y-79793300D03*
X117343600Y-47022100D03*
X49668100Y-77291700D03*
X146500600Y-47029600D03*
X111170100Y-74962200D03*
X106158400Y-47103400D03*
X88620800Y-74885100D03*
X86785000Y-50833600D03*
X107090500Y-89568600D03*
X106791800Y-120486700D03*
X92115700Y-89657000D03*
X100090600Y-103815300D03*
X88317100Y-65957700D03*
X111200400Y-119334500D03*
X178680100Y-56163200D03*
X137540200Y-49845500D03*
X146997000Y-79155000D03*
X158079400Y-130498000D03*
X56361000Y-82643000D03*
X111424900Y-48996300D03*
X127134300Y-124483100D03*
X171199500Y-54396500D03*
X152780500Y-52986300D03*
X84686400Y-54412600D03*
X97148100Y-64644300D03*
X127067300Y-78024700D03*
X79362700Y-82614900D03*
X88716000Y-109404000D03*
X106568200Y-64549900D03*
X106618400Y-77608600D03*
X88702700Y-91662000D03*
X176966400Y-130737800D03*
X98230000Y-66649400D03*
X74825700Y-70082000D03*
X111067700Y-50829500D03*
X131052000Y-50026700D03*
X57171000Y-90496700D03*
X107029600Y-65516400D03*
X88966000Y-56272600D03*
X71013300Y-84225700D03*
X127290700Y-81868500D03*
X146671000Y-80769900D03*
X153016200Y-54454000D03*
X167330100Y-56952500D03*
X146181900Y-52540500D03*
X169623500Y-101421500D03*
X181656200Y-59160500D03*
X131833200Y-121336000D03*
X111193600Y-81437300D03*
X70696300Y-98691900D03*
X152105900Y-126785000D03*
X56322000Y-71082000D03*
X89231800Y-108252600D03*
X111355800Y-115541000D03*
X93741600Y-96128000D03*
X175536100Y-76071300D03*
X93192900Y-76836400D03*
X177141600Y-53990600D03*
X107239200Y-123161000D03*
X117435900Y-74214700D03*
X127299300Y-129441000D03*
X157079200Y-73990700D03*
X72064400Y-56347000D03*
X98414300Y-93352000D03*
X82081700Y-95391700D03*
X97537300Y-61922000D03*
X71150500Y-102736900D03*
X80984800Y-68046400D03*
X89209600Y-115204000D03*
X80655300Y-76588200D03*
X100724800Y-101091600D03*
X169924800Y-63308300D03*
X169249700Y-62230800D03*
X172729400Y-70947000D03*
X172158300Y-88762400D03*
X117970000Y-49595100D03*
X155201200Y-100570900D03*
X169878700Y-65258000D03*
X111773000Y-79884200D03*
X135937400Y-116072500D03*
X112899400Y-92197000D03*
X128790000Y-114333200D03*
X113301100Y-106409000D03*
X119239700Y-113892100D03*
X184780300Y-66639700D03*
X131167300Y-78024700D03*
X137422300Y-86204100D03*
X151046600Y-49569600D03*
X199181300Y-121381600D03*
X166997900Y-82169300D03*
X137113100Y-123663100D03*
X137924300Y-104961900D03*
X167004300Y-52693700D03*
X165898100Y-80350200D03*
X143030200Y-123939500D03*
X138515500Y-106387000D03*
X165271400Y-84818900D03*
X144661900Y-124272100D03*
X137957200Y-105813300D03*
X53354300Y-91435100D03*
X126975900Y-90282200D03*
X62705100Y-74005900D03*
X118296900Y-72378100D03*
X64196200Y-87075700D03*
X117758800Y-84994400D03*
X86082500Y-105083400D03*
X79701400Y-76800700D03*
X118103400Y-82532900D03*
X88093500Y-102093800D03*
X85437500Y-103640000D03*
X96161900Y-113266700D03*
X107855800Y-99480900D03*
X109581100Y-99183900D03*
X104130700Y-98525500D03*
X98886500Y-97941700D03*
X108911200Y-110822800D03*
X127691200Y-110114500D03*
X125725400Y-87568900D03*
X129598600Y-97243600D03*
X154808900Y-94475800D03*
X141878800Y-88124200D03*
X161521900Y-125339700D03*
X202345600Y-98590200D03*
X164051000Y-86829400D03*
X164575900Y-85472700D03*
X187056200Y-123372300D03*
X198052300Y-107961400D03*
D17*
X199379300Y-124000000D02*
X191238300Y-132141000D01*
X206000000Y-124000000D02*
X199379300Y-124000000D01*
X59106800Y-65715000D02*
X57257500Y-65715000D01*
X73232500Y-95115500D02*
X74157200Y-95115500D01*
X190313700Y-132141000D02*
X191238300Y-132141000D01*
X190313700Y-132141000D02*
X189389000Y-132141000D01*
X57413200Y-92525100D02*
X57413200Y-93844100D01*
X55384800Y-90496700D02*
X57413200Y-92525100D01*
X55384800Y-89271500D02*
X55384800Y-90496700D01*
X79091500Y-71004900D02*
X79412400Y-70684000D01*
X77129200Y-71004900D02*
X79091500Y-71004900D01*
X57257500Y-76462100D02*
X57126100Y-76593500D01*
X57257500Y-65715000D02*
X57257500Y-76462100D01*
X77129200Y-71004900D02*
X75279900Y-71004900D01*
X109319000Y-115541000D02*
X107207100Y-115541000D01*
X155063000Y-55164000D02*
X153213700Y-55164000D01*
X57126100Y-80261900D02*
X57126100Y-76593500D01*
X57335500Y-80471300D02*
X57126100Y-80261900D01*
X57335400Y-80471400D02*
X57335400Y-84225700D01*
X57335500Y-80471300D02*
X57335400Y-80471400D01*
X59184700Y-84225700D02*
X57335400Y-84225700D01*
X55384800Y-89271500D02*
X55384800Y-88647400D01*
X57335400Y-84847500D02*
X57335400Y-84225700D01*
X55384800Y-86798100D02*
X57335400Y-84847500D01*
X55384800Y-88647400D02*
X55384800Y-86798100D01*
X66482000Y-80471300D02*
X57335500Y-80471300D01*
X66482000Y-79802800D02*
X66482000Y-80471300D01*
X75279900Y-71004900D02*
X66482000Y-79802800D01*
X187539700Y-132957800D02*
X187539700Y-132141000D01*
X187312900Y-133184600D02*
X187539700Y-132957800D01*
X189389000Y-132141000D02*
X187539700Y-132141000D01*
X96213700Y-108949000D02*
X97138300Y-108949000D01*
X96213700Y-108949000D02*
X95289000Y-108949000D01*
X95289000Y-108949000D02*
X93439700Y-108949000D01*
X95110000Y-66314000D02*
X93260700Y-66314000D01*
X135050000Y-52109600D02*
X136899300Y-52109600D01*
X189507900Y-98307900D02*
X188230000Y-97030000D01*
X193584800Y-98307900D02*
X189507900Y-98307900D01*
X197177400Y-101900500D02*
X193584800Y-98307900D01*
X199080500Y-101900500D02*
X197177400Y-101900500D01*
X200810000Y-103630000D02*
X199080500Y-101900500D01*
X175080000Y-59070600D02*
X176004700Y-59070600D01*
X155169000Y-80396400D02*
X153319700Y-80396400D01*
X152814200Y-55164000D02*
X153213700Y-55164000D01*
X183847000Y-92647000D02*
X188230000Y-97030000D01*
X183847000Y-73662100D02*
X183847000Y-92647000D01*
X181177600Y-70992700D02*
X183847000Y-73662100D01*
X181177600Y-64243500D02*
X181177600Y-70992700D01*
X176004700Y-59070600D02*
X181177600Y-64243500D01*
X93151400Y-67194900D02*
X93151400Y-67485800D01*
X89496100Y-67194900D02*
X93151400Y-67194900D01*
X89249900Y-67441100D02*
X89496100Y-67194900D01*
X89249900Y-79110700D02*
X89249900Y-67441100D01*
X89503200Y-79364000D02*
X89249900Y-79110700D01*
X92881100Y-79364000D02*
X89503200Y-79364000D01*
X94043000Y-80525900D02*
X92881100Y-79364000D01*
X95169000Y-80525900D02*
X94043000Y-80525900D01*
X93260700Y-67085600D02*
X93260700Y-66314000D01*
X93151400Y-67194900D02*
X93260700Y-67085600D01*
X141463700Y-55164000D02*
X139988400Y-53688700D01*
X152814200Y-55164000D02*
X141463700Y-55164000D01*
X138478400Y-53688700D02*
X136899300Y-52109600D01*
X139988400Y-53688700D02*
X138478400Y-53688700D01*
X152107600Y-79890900D02*
X151800900Y-80197600D01*
X152814200Y-79890900D02*
X152107600Y-79890900D01*
X152814200Y-55164000D02*
X152814200Y-79890900D01*
X152814200Y-79890900D02*
X153319700Y-80396400D01*
X77067200Y-56272600D02*
X78916500Y-56272600D01*
X95050000Y-52102100D02*
X93200700Y-52102100D01*
X79628900Y-56985000D02*
X80566600Y-56985000D01*
X78916500Y-56272600D02*
X79628900Y-56985000D01*
X92784600Y-52518200D02*
X93200700Y-52102100D01*
X85033400Y-52518200D02*
X92784600Y-52518200D01*
X80566600Y-56985000D02*
X85033400Y-52518200D01*
X115045000Y-50809500D02*
X113195700Y-50809500D01*
X113195700Y-65882000D02*
X112721900Y-66355800D01*
X113195700Y-50809500D02*
X113195700Y-65882000D01*
X115170000Y-80564700D02*
X113320700Y-80564700D01*
X113320700Y-80178900D02*
X113320700Y-80564700D01*
X113071500Y-79929700D02*
X113320700Y-80178900D01*
X112336600Y-79194800D02*
X113071500Y-79929700D01*
X112336600Y-66741100D02*
X112336600Y-79194800D01*
X112721900Y-66355800D02*
X112336600Y-66741100D01*
X66482000Y-80578800D02*
X66482000Y-80471300D01*
X71640500Y-85737300D02*
X66482000Y-80578800D01*
X77191200Y-85737300D02*
X71640500Y-85737300D01*
X80169100Y-85737300D02*
X80169100Y-85641700D01*
X77191200Y-85737300D02*
X80169100Y-85737300D01*
X93439700Y-107889200D02*
X93134500Y-107584000D01*
X93439700Y-108949000D02*
X93439700Y-107889200D01*
X97145500Y-94804200D02*
X97078300Y-94737000D01*
X97288400Y-94804200D02*
X97145500Y-94804200D01*
X95229000Y-94737000D02*
X97078300Y-94737000D01*
X80169100Y-91592400D02*
X80169100Y-85737300D01*
X169377000Y-129235000D02*
X167527700Y-129235000D01*
X167527700Y-129235000D02*
X161286900Y-122994100D01*
X158766000Y-125515000D02*
X161286900Y-122994100D01*
X149361000Y-125515000D02*
X158766000Y-125515000D01*
X165250000Y-119031000D02*
X165250000Y-118870000D01*
X161286900Y-122994100D02*
X165250000Y-119031000D01*
X74157200Y-93023600D02*
X74157200Y-95115500D01*
X75588400Y-91592400D02*
X74157200Y-93023600D01*
X80169100Y-91592400D02*
X75588400Y-91592400D01*
X103730300Y-115541000D02*
X107207100Y-115541000D01*
X97138300Y-108949000D02*
X103730300Y-115541000D01*
X133233100Y-80393000D02*
X133320700Y-80480600D01*
X132523100Y-80393000D02*
X133233100Y-80393000D01*
X135170000Y-80480600D02*
X133320700Y-80480600D01*
X129343000Y-121336000D02*
X131192300Y-121336000D01*
X132636000Y-109454000D02*
X132636000Y-120668400D01*
X132699300Y-120668400D02*
X132636000Y-120668400D01*
X136131000Y-124100100D02*
X132699300Y-120668400D01*
X131192300Y-121085600D02*
X131192300Y-121336000D01*
X131609500Y-120668400D02*
X131192300Y-121085600D01*
X132636000Y-120668400D02*
X131609500Y-120668400D01*
X95229000Y-98273600D02*
X93638100Y-99864500D01*
X95229000Y-94737000D02*
X95229000Y-98273600D01*
X93439600Y-106867800D02*
X92723400Y-107584000D01*
X93439600Y-100063000D02*
X93439600Y-106867800D01*
X93638100Y-99864500D02*
X93439600Y-100063000D01*
X91285200Y-107584000D02*
X92723400Y-107584000D01*
X92723400Y-107584000D02*
X93134500Y-107584000D01*
X86325000Y-97748300D02*
X86325000Y-100667100D01*
X80169100Y-91592400D02*
X86325000Y-97748300D01*
X77253200Y-100471700D02*
X79102500Y-100471700D01*
X139091600Y-125515000D02*
X149361000Y-125515000D01*
X137865000Y-124288400D02*
X139091600Y-125515000D01*
X136319300Y-124288400D02*
X137865000Y-124288400D01*
X136131000Y-124100100D02*
X136319300Y-124288400D01*
X82896200Y-104265400D02*
X79102500Y-100471700D01*
X85764400Y-104265400D02*
X82896200Y-104265400D01*
X86325000Y-103704800D02*
X85764400Y-104265400D01*
X86325000Y-100667100D02*
X86325000Y-103704800D01*
X145744900Y-124034000D02*
X155441700Y-124034000D01*
X139077500Y-117366600D02*
X145744900Y-124034000D01*
X139077500Y-112575600D02*
X139077500Y-117366600D01*
X129140000Y-75484700D02*
X130989300Y-75484700D01*
X129015000Y-45729500D02*
X127165700Y-45729500D01*
X150989300Y-75736600D02*
X151867600Y-76614900D01*
X150989300Y-75400600D02*
X150989300Y-75736600D01*
X149140000Y-75400600D02*
X150989300Y-75400600D01*
X169139000Y-75316400D02*
X170988300Y-75316400D01*
X109944700Y-47022100D02*
X110869300Y-47022100D01*
X109944700Y-47022100D02*
X109020000Y-47022100D01*
X131175200Y-75670600D02*
X131175200Y-75887500D01*
X130989300Y-75484700D02*
X131175200Y-75670600D01*
X175419000Y-137221000D02*
X173569700Y-137221000D01*
X157256300Y-134315000D02*
X158347100Y-134315000D01*
X162101500Y-138069400D02*
X158347100Y-134315000D01*
X172721300Y-138069400D02*
X162101500Y-138069400D01*
X173569700Y-137221000D02*
X172721300Y-138069400D01*
X158347100Y-134315000D02*
X158347100Y-133734700D01*
X71305400Y-79369100D02*
X71305400Y-79145700D01*
X70881200Y-79793300D02*
X71305400Y-79369100D01*
X73154700Y-79145700D02*
X71305400Y-79145700D01*
X125873100Y-47022100D02*
X117343600Y-47022100D01*
X127165700Y-45729500D02*
X125873100Y-47022100D01*
X117343600Y-47022100D02*
X110869300Y-47022100D01*
X50304800Y-76655000D02*
X49668100Y-77291700D01*
X50304800Y-74677400D02*
X50304800Y-76655000D01*
X51630400Y-79254000D02*
X49668100Y-77291700D01*
X51630400Y-94412700D02*
X51630400Y-79254000D01*
X57413200Y-100195500D02*
X51630400Y-94412700D01*
X58337900Y-100195500D02*
X57413200Y-100195500D01*
X149020000Y-47029600D02*
X147170700Y-47029600D01*
X147170700Y-47029600D02*
X146500600Y-47029600D01*
X156331700Y-134315000D02*
X157256300Y-134315000D01*
X156331700Y-134315000D02*
X155407000Y-134315000D01*
X137681000Y-130595000D02*
X135391000Y-130595000D01*
X141435400Y-134349400D02*
X137681000Y-130595000D01*
X153523300Y-134349400D02*
X141435400Y-134349400D01*
X153557700Y-134315000D02*
X153523300Y-134349400D01*
X155407000Y-134315000D02*
X153557700Y-134315000D01*
X110988300Y-75144000D02*
X111170100Y-74962200D01*
X110988300Y-75445900D02*
X110988300Y-75144000D01*
X109139000Y-75445900D02*
X110875700Y-75445900D01*
X110875700Y-75445900D02*
X110988300Y-75445900D01*
X109199000Y-89657000D02*
X107349700Y-89657000D01*
X109020000Y-47022100D02*
X107170700Y-47022100D01*
X169033000Y-50084000D02*
X170769700Y-50084000D01*
X172494700Y-50176500D02*
X172494700Y-53175700D01*
X172402200Y-50084000D02*
X172494700Y-50176500D01*
X170769700Y-50084000D02*
X172402200Y-50084000D01*
X180547800Y-53990600D02*
X189050000Y-53990600D01*
X176733700Y-50176500D02*
X180547800Y-53990600D01*
X172494700Y-50176500D02*
X176733700Y-50176500D01*
X58337900Y-100195500D02*
X59262500Y-100195500D01*
X59262500Y-100195500D02*
X61111800Y-100195500D01*
X107089400Y-47103400D02*
X107170700Y-47022100D01*
X106158400Y-47103400D02*
X107089400Y-47103400D01*
X95349000Y-120621000D02*
X97198300Y-120621000D01*
X121401300Y-130595000D02*
X135391000Y-130595000D01*
X117222300Y-126416000D02*
X121401300Y-130595000D01*
X115373000Y-126416000D02*
X117222300Y-126416000D01*
X91099200Y-65924900D02*
X89249900Y-65924900D01*
X73580300Y-112664000D02*
X77315200Y-112664000D01*
X61111800Y-100195500D02*
X73580300Y-112664000D01*
X87121500Y-120621000D02*
X95349000Y-120621000D01*
X79164500Y-112664000D02*
X87121500Y-120621000D01*
X77315200Y-112664000D02*
X79164500Y-112664000D01*
X170988300Y-67591200D02*
X170988300Y-75316400D01*
X168610100Y-65213000D02*
X170988300Y-67591200D01*
X168610100Y-61950900D02*
X168610100Y-65213000D01*
X172494700Y-58066300D02*
X168610100Y-61950900D01*
X172494700Y-53175700D02*
X172494700Y-58066300D01*
X73076800Y-60635000D02*
X74926100Y-60635000D01*
X91161200Y-80657300D02*
X93010500Y-80657300D01*
X91223200Y-95391700D02*
X93072500Y-95391700D01*
X88620800Y-74885100D02*
X88710200Y-74885100D01*
X88710200Y-80055600D02*
X89311900Y-80657300D01*
X88710200Y-74885100D02*
X88710200Y-80055600D01*
X91161200Y-80657300D02*
X89311900Y-80657300D01*
X107090500Y-89568600D02*
X107289600Y-89568600D01*
X107289600Y-79498600D02*
X107289600Y-89568600D01*
X107587900Y-79200300D02*
X107289600Y-79498600D01*
X110879800Y-79200300D02*
X107587900Y-79200300D01*
X110988300Y-79091800D02*
X110879800Y-79200300D01*
X110988300Y-75445900D02*
X110988300Y-79091800D01*
X107289600Y-89596900D02*
X107349700Y-89657000D01*
X107289600Y-89568600D02*
X107289600Y-89596900D01*
X97271900Y-120694600D02*
X106583900Y-120694600D01*
X97198300Y-120621000D02*
X97271900Y-120694600D01*
X109533900Y-126416000D02*
X115373000Y-126416000D01*
X106583900Y-123466000D02*
X109533900Y-126416000D01*
X106583900Y-120694600D02*
X106583900Y-123466000D01*
X106583900Y-120694600D02*
X106791800Y-120486700D01*
X93010500Y-80657300D02*
X93010500Y-89657000D01*
X93072500Y-89719000D02*
X93010500Y-89657000D01*
X93072500Y-95391700D02*
X93072500Y-89719000D01*
X93010500Y-89657000D02*
X92115700Y-89657000D01*
X170988300Y-100941100D02*
X170988300Y-75316400D01*
X168299400Y-103630000D02*
X170988300Y-100941100D01*
X167790000Y-103630000D02*
X168299400Y-103630000D01*
X107096700Y-61234000D02*
X109080000Y-61234000D01*
X96750400Y-50887700D02*
X107096700Y-61234000D01*
X93191400Y-50887700D02*
X96750400Y-50887700D01*
X92886500Y-51192600D02*
X93191400Y-50887700D01*
X91037200Y-51192600D02*
X92886500Y-51192600D01*
X84714900Y-50833600D02*
X86785000Y-50833600D01*
X80601500Y-54947000D02*
X84714900Y-50833600D01*
X75507100Y-54947000D02*
X80601500Y-54947000D01*
X74926100Y-55528000D02*
X75507100Y-54947000D01*
X74926100Y-60635000D02*
X74926100Y-55528000D01*
X88828900Y-50833600D02*
X89187900Y-51192600D01*
X86785000Y-50833600D02*
X88828900Y-50833600D01*
X91037200Y-51192600D02*
X89187900Y-51192600D01*
X107356000Y-103815300D02*
X107409700Y-103869000D01*
X100090600Y-103815300D02*
X107356000Y-103815300D01*
X109259000Y-103869000D02*
X107409700Y-103869000D01*
X88767100Y-66407700D02*
X88317100Y-65957700D01*
X88710200Y-66464600D02*
X88767100Y-66407700D01*
X88710200Y-74885100D02*
X88710200Y-66464600D01*
X88767100Y-66407700D02*
X89249900Y-65924900D01*
X73580300Y-110124000D02*
X77315200Y-110124000D01*
X61111800Y-97655500D02*
X73580300Y-110124000D01*
X59262500Y-97655500D02*
X61111800Y-97655500D01*
X154482400Y-131775000D02*
X153557700Y-131775000D01*
X135391000Y-128055000D02*
X133541700Y-128055000D01*
X151119100Y-129336400D02*
X153557700Y-131775000D01*
X138521700Y-129336400D02*
X151119100Y-129336400D01*
X137240300Y-128055000D02*
X138521700Y-129336400D01*
X135391000Y-128055000D02*
X137240300Y-128055000D01*
X115373000Y-123876000D02*
X117222300Y-123876000D01*
X179047500Y-56530600D02*
X178680100Y-56163200D01*
X189050000Y-56530600D02*
X179047500Y-56530600D01*
X95349000Y-118081000D02*
X97198300Y-118081000D01*
X77315200Y-110124000D02*
X79164500Y-110124000D01*
X98451800Y-119334500D02*
X111200400Y-119334500D01*
X97198300Y-118081000D02*
X98451800Y-119334500D01*
X115373000Y-123876000D02*
X113523700Y-123876000D01*
X111200400Y-121552700D02*
X113523700Y-123876000D01*
X111200400Y-119334500D02*
X111200400Y-121552700D01*
X73154700Y-81685700D02*
X75004000Y-81685700D01*
X149140000Y-77940600D02*
X147290700Y-77940600D01*
X147290700Y-78861300D02*
X146997000Y-79155000D01*
X147290700Y-77940600D02*
X147290700Y-78861300D01*
X154482400Y-131775000D02*
X155407000Y-131775000D01*
X155407000Y-131775000D02*
X157256300Y-131775000D01*
X109139000Y-77985900D02*
X107289700Y-77985900D01*
X109199000Y-92197000D02*
X107349700Y-92197000D01*
X59262500Y-97655500D02*
X57413200Y-97655500D01*
X52844800Y-79126800D02*
X56361000Y-82643000D01*
X52844800Y-74677400D02*
X52844800Y-79126800D01*
X54170400Y-94412700D02*
X57413200Y-97655500D01*
X54170400Y-84833600D02*
X54170400Y-94412700D01*
X56361000Y-82643000D02*
X54170400Y-84833600D01*
X158079400Y-130951900D02*
X158079400Y-130498000D01*
X157256300Y-131775000D02*
X158079400Y-130951900D01*
X175419000Y-134681000D02*
X173569700Y-134681000D01*
X110869300Y-49551900D02*
X111424900Y-48996300D01*
X110869300Y-49562100D02*
X110869300Y-49551900D01*
X109020000Y-49562100D02*
X110869300Y-49562100D01*
X133541700Y-127736600D02*
X133541700Y-128055000D01*
X130895500Y-125090400D02*
X133541700Y-127736600D01*
X127665600Y-125090400D02*
X130895500Y-125090400D01*
X127134300Y-124559100D02*
X127665600Y-125090400D01*
X127134300Y-124483100D02*
X127134300Y-124559100D01*
X117829400Y-124483100D02*
X127134300Y-124483100D01*
X117222300Y-123876000D02*
X117829400Y-124483100D01*
X167514100Y-132821500D02*
X167514100Y-130498000D01*
X167793200Y-133100600D02*
X167514100Y-132821500D01*
X171989300Y-133100600D02*
X167793200Y-133100600D01*
X173569700Y-134681000D02*
X171989300Y-133100600D01*
X158079400Y-130498000D02*
X167514100Y-130498000D01*
X171226400Y-122306400D02*
X167790000Y-118870000D01*
X171226400Y-130271300D02*
X171226400Y-122306400D01*
X170999700Y-130498000D02*
X171226400Y-130271300D01*
X167514100Y-130498000D02*
X170999700Y-130498000D01*
X169033000Y-52624000D02*
X170882300Y-52624000D01*
X171199500Y-52941200D02*
X171199500Y-54396500D01*
X170882300Y-52624000D02*
X171199500Y-52941200D01*
X169139000Y-77856400D02*
X167289700Y-77856400D01*
X167289700Y-60093900D02*
X167289700Y-77856400D01*
X171199500Y-56184100D02*
X167289700Y-60093900D01*
X171199500Y-54396500D02*
X171199500Y-56184100D01*
X149363800Y-49569600D02*
X152780500Y-52986300D01*
X149020000Y-49569600D02*
X149363800Y-49569600D01*
X149020000Y-49569600D02*
X147170700Y-49569600D01*
X109259000Y-106409000D02*
X111108300Y-106409000D01*
X129140000Y-78024700D02*
X127290700Y-78024700D01*
X127290700Y-78024700D02*
X127067300Y-78024700D01*
X107170700Y-53903000D02*
X107170700Y-49562100D01*
X111379800Y-58112100D02*
X107170700Y-53903000D01*
X111379800Y-63323500D02*
X111379800Y-58112100D01*
X110929300Y-63774000D02*
X111379800Y-63323500D01*
X109080000Y-63774000D02*
X110929300Y-63774000D01*
X109020000Y-49562100D02*
X107170700Y-49562100D01*
X91200300Y-118081000D02*
X95349000Y-118081000D01*
X87488900Y-114369600D02*
X91200300Y-118081000D01*
X87488900Y-110631100D02*
X87488900Y-114369600D01*
X79671600Y-110631100D02*
X87488900Y-110631100D01*
X79164500Y-110124000D02*
X79671600Y-110631100D01*
X107289700Y-77985900D02*
X106941600Y-77985900D01*
X106465200Y-91312500D02*
X107349700Y-92197000D01*
X106465200Y-78462300D02*
X106465200Y-91312500D01*
X106941600Y-77985900D02*
X106465200Y-78462300D01*
X109080000Y-63774000D02*
X107230700Y-63774000D01*
X137540200Y-49952500D02*
X137540200Y-49845500D01*
X136653100Y-50839600D02*
X137540200Y-49952500D01*
X133385800Y-50839600D02*
X136653100Y-50839600D01*
X133200700Y-51024700D02*
X133385800Y-50839600D01*
X133200700Y-53606200D02*
X133200700Y-51024700D01*
X147290700Y-67696200D02*
X133200700Y-53606200D01*
X147290700Y-77940600D02*
X147290700Y-67696200D01*
X136678600Y-48269500D02*
X129015000Y-48269500D01*
X137816100Y-49407000D02*
X136678600Y-48269500D01*
X137816100Y-49569600D02*
X137816100Y-49407000D01*
X147170700Y-49569600D02*
X137816100Y-49569600D01*
X137816100Y-49569600D02*
X137540200Y-49845500D01*
X97148100Y-67157100D02*
X97148100Y-64644300D01*
X95840300Y-68464900D02*
X97148100Y-67157100D01*
X91099200Y-68464900D02*
X95840300Y-68464900D01*
X107230700Y-63887400D02*
X107230700Y-63774000D01*
X106568200Y-64549900D02*
X107230700Y-63887400D01*
X106618400Y-77662700D02*
X106618400Y-77608600D01*
X106941600Y-77985900D02*
X106618400Y-77662700D01*
X106364400Y-64753700D02*
X106568200Y-64549900D01*
X106364400Y-77354600D02*
X106364400Y-64753700D01*
X106618400Y-77608600D02*
X106364400Y-77354600D01*
X107349700Y-96021300D02*
X107349700Y-92197000D01*
X111108300Y-99779900D02*
X107349700Y-96021300D01*
X111108300Y-106409000D02*
X111108300Y-99779900D01*
X73076800Y-63175000D02*
X74926100Y-63175000D01*
X79362700Y-82429100D02*
X79362700Y-82614900D01*
X78805200Y-81871600D02*
X79362700Y-82429100D01*
X75189900Y-81871600D02*
X78805200Y-81871600D01*
X75004000Y-81685700D02*
X75189900Y-81871600D01*
X88608100Y-64710500D02*
X88201000Y-65117600D01*
X93096300Y-64710500D02*
X88608100Y-64710500D01*
X93374200Y-64988400D02*
X93096300Y-64710500D01*
X96804000Y-64988400D02*
X93374200Y-64988400D01*
X97148100Y-64644300D02*
X96804000Y-64988400D01*
X88201000Y-65117600D02*
X81091200Y-58007800D01*
X74926100Y-62643700D02*
X74926100Y-63175000D01*
X79562000Y-58007800D02*
X74926100Y-62643700D01*
X81091200Y-58007800D02*
X79562000Y-58007800D01*
X91037200Y-53732600D02*
X89187900Y-53732600D01*
X81091200Y-58007800D02*
X84686400Y-54412600D01*
X88507900Y-54412600D02*
X89187900Y-53732600D01*
X84686400Y-54412600D02*
X88507900Y-54412600D01*
X91223200Y-97931700D02*
X89373900Y-97931700D01*
X91161200Y-83197300D02*
X89311900Y-83197300D01*
X88986500Y-83197300D02*
X89311900Y-83197300D01*
X88692000Y-83491800D02*
X88986500Y-83197300D01*
X87640500Y-65678100D02*
X87640500Y-82614900D01*
X88201000Y-65117600D02*
X87640500Y-65678100D01*
X79362700Y-82614900D02*
X87640500Y-82614900D01*
X87815100Y-82614900D02*
X88692000Y-83491800D01*
X87640500Y-82614900D02*
X87815100Y-82614900D01*
X87488900Y-110631100D02*
X88716000Y-109404000D01*
X88692000Y-91651300D02*
X88692000Y-83491800D01*
X88702700Y-91662000D02*
X88692000Y-91651300D01*
X88702700Y-97260500D02*
X88702700Y-91662000D01*
X89373900Y-97931700D02*
X88702700Y-97260500D01*
X175419000Y-132141000D02*
X177268300Y-132141000D01*
X177268300Y-131039700D02*
X176966400Y-130737800D01*
X177268300Y-132141000D02*
X177268300Y-131039700D01*
X155407000Y-129235000D02*
X153557700Y-129235000D01*
X135391000Y-125515000D02*
X137240300Y-125515000D01*
X73076800Y-65715000D02*
X74926100Y-65715000D01*
X98230000Y-66731700D02*
X98230000Y-66649400D01*
X93956800Y-71004900D02*
X98230000Y-66731700D01*
X91099200Y-71004900D02*
X93956800Y-71004900D01*
X115373000Y-121336000D02*
X113523700Y-121336000D01*
X73154700Y-84225700D02*
X71305400Y-84225700D01*
X95380400Y-115541000D02*
X97198300Y-115541000D01*
X98461900Y-116804600D02*
X110989600Y-116804600D01*
X97198300Y-115541000D02*
X98461900Y-116804600D01*
X113523700Y-119338700D02*
X113523700Y-121336000D01*
X110989600Y-116804600D02*
X113523700Y-119338700D01*
X75117200Y-65906100D02*
X74926100Y-65715000D01*
X75117200Y-69790500D02*
X75117200Y-65906100D01*
X75117200Y-69790500D02*
X74825700Y-70082000D01*
X109020000Y-52102100D02*
X110869300Y-52102100D01*
X130864300Y-50214400D02*
X130864300Y-50809500D01*
X131052000Y-50026700D02*
X130864300Y-50214400D01*
X129015000Y-50809500D02*
X130864300Y-50809500D01*
X109080000Y-66314000D02*
X107230700Y-66314000D01*
X91037200Y-56272600D02*
X89187900Y-56272600D01*
X89187900Y-56272600D02*
X88966000Y-56272600D01*
X59262500Y-92588200D02*
X57171000Y-90496700D01*
X59262500Y-95115500D02*
X59262500Y-92588200D01*
X95380400Y-115541000D02*
X95349000Y-115541000D01*
X129140000Y-80564700D02*
X127290700Y-80564700D01*
X127290700Y-80564700D02*
X127290700Y-81868500D01*
X149140000Y-80480600D02*
X147290700Y-80480600D01*
X147001400Y-80769900D02*
X147290700Y-80480600D01*
X146671000Y-80769900D02*
X147001400Y-80769900D01*
X149020000Y-52109600D02*
X150869300Y-52109600D01*
X153016200Y-54256500D02*
X153016200Y-54454000D01*
X150869300Y-52109600D02*
X153016200Y-54256500D01*
X169033000Y-55164000D02*
X167183700Y-55164000D01*
X167330100Y-56952500D02*
X167256900Y-56952500D01*
X167183700Y-56879300D02*
X167256900Y-56952500D01*
X167183700Y-55164000D02*
X167183700Y-56879300D01*
X166973800Y-78693500D02*
X168676700Y-80396400D01*
X166973800Y-78306800D02*
X166973800Y-78693500D01*
X166804800Y-78137800D02*
X166973800Y-78306800D01*
X166804800Y-57404600D02*
X166804800Y-78137800D01*
X167256900Y-56952500D02*
X166804800Y-57404600D01*
X146739800Y-52540500D02*
X147170700Y-52109600D01*
X146181900Y-52540500D02*
X146739800Y-52540500D01*
X149020000Y-52109600D02*
X147170700Y-52109600D01*
X169139000Y-80396400D02*
X169023500Y-80396400D01*
X169023500Y-80396400D02*
X168676700Y-80396400D01*
X71305400Y-84225700D02*
X71013300Y-84225700D01*
X79441900Y-69790500D02*
X75117200Y-69790500D01*
X80048600Y-70397200D02*
X79441900Y-69790500D01*
X80048600Y-71718000D02*
X80048600Y-70397200D01*
X75033100Y-76733500D02*
X80048600Y-71718000D01*
X75033100Y-80141200D02*
X75033100Y-76733500D01*
X74703000Y-80471300D02*
X75033100Y-80141200D01*
X71432900Y-80471300D02*
X74703000Y-80471300D01*
X71305400Y-80598800D02*
X71432900Y-80471300D01*
X71305400Y-84225700D02*
X71305400Y-80598800D01*
X187110800Y-59160500D02*
X187200700Y-59070600D01*
X181656200Y-59160500D02*
X187110800Y-59160500D01*
X189050000Y-59070600D02*
X187200700Y-59070600D01*
X109259000Y-108949000D02*
X111108300Y-108949000D01*
X109199000Y-94737000D02*
X111048300Y-94737000D01*
X135391000Y-125515000D02*
X133541700Y-125515000D01*
X76390600Y-107584000D02*
X75465900Y-107584000D01*
X76390600Y-107584000D02*
X77315200Y-107584000D01*
X111048300Y-81437300D02*
X111048300Y-94737000D01*
X111193600Y-81437300D02*
X111048300Y-81437300D01*
X110988300Y-81377300D02*
X110988300Y-80525900D01*
X111048300Y-81437300D02*
X110988300Y-81377300D01*
X109139000Y-80525900D02*
X110988300Y-80525900D01*
X110869300Y-51027900D02*
X110869300Y-52102100D01*
X111067700Y-50829500D02*
X110869300Y-51027900D01*
X109080000Y-66314000D02*
X110929300Y-66314000D01*
X111886200Y-65357100D02*
X110929300Y-66314000D01*
X111886200Y-53119000D02*
X111886200Y-65357100D01*
X110869300Y-52102100D02*
X111886200Y-53119000D01*
X110988300Y-79728700D02*
X110988300Y-80525900D01*
X111807200Y-78909800D02*
X110988300Y-79728700D01*
X111807200Y-67191900D02*
X111807200Y-78909800D01*
X110929300Y-66314000D02*
X111807200Y-67191900D01*
X133541700Y-125357400D02*
X133541700Y-125515000D01*
X133622700Y-125276400D02*
X133541700Y-125357400D01*
X133622700Y-125186300D02*
X133622700Y-125276400D01*
X133691600Y-125117400D02*
X133622700Y-125186300D01*
X133691600Y-124599200D02*
X133691600Y-125117400D01*
X133648100Y-124555700D02*
X133691600Y-124599200D01*
X133531800Y-124555700D02*
X133648100Y-124555700D01*
X131833200Y-122857100D02*
X133531800Y-124555700D01*
X131833200Y-121336000D02*
X131833200Y-122857100D01*
X95349000Y-115541000D02*
X93499700Y-115541000D01*
X77315200Y-107584000D02*
X79164500Y-107584000D01*
X107230700Y-65717500D02*
X107029600Y-65516400D01*
X107230700Y-66314000D02*
X107230700Y-65717500D01*
X65042200Y-95115500D02*
X69626800Y-99700100D01*
X59262500Y-95115500D02*
X65042200Y-95115500D01*
X74451700Y-107584000D02*
X75465900Y-107584000D01*
X69626800Y-102759100D02*
X74451700Y-107584000D01*
X69626800Y-99700100D02*
X69626800Y-102759100D01*
X152067100Y-127744400D02*
X153557700Y-129235000D01*
X152067100Y-126823800D02*
X152067100Y-127744400D01*
X138549100Y-126823800D02*
X152067100Y-126823800D01*
X137240300Y-125515000D02*
X138549100Y-126823800D01*
X152067100Y-126823800D02*
X152105900Y-126785000D01*
X55384800Y-72019200D02*
X55384800Y-74677400D01*
X56322000Y-71082000D02*
X55384800Y-72019200D01*
X89431900Y-108452700D02*
X89231800Y-108252600D01*
X89431900Y-111155700D02*
X89431900Y-108452700D01*
X89614600Y-111338400D02*
X89431900Y-111155700D01*
X92898500Y-111338400D02*
X89614600Y-111338400D01*
X93499700Y-111939600D02*
X92898500Y-111338400D01*
X93499700Y-115541000D02*
X93499700Y-111939600D01*
X111558600Y-95247300D02*
X111048300Y-94737000D01*
X111558600Y-108498700D02*
X111558600Y-95247300D01*
X111108300Y-108949000D02*
X111558600Y-108498700D01*
X91223200Y-100471700D02*
X89373900Y-100471700D01*
X91161200Y-85737300D02*
X89311900Y-85737300D01*
X169623500Y-80996400D02*
X169623500Y-101421500D01*
X169023500Y-80396400D02*
X169623500Y-80996400D01*
X79164500Y-107584000D02*
X88723300Y-107584000D01*
X88723300Y-101122300D02*
X89373900Y-100471700D01*
X88723300Y-107584000D02*
X88723300Y-101122300D01*
X88723300Y-107744100D02*
X88723300Y-107584000D01*
X89231800Y-108252600D02*
X88723300Y-107744100D01*
X91620100Y-100471700D02*
X91223200Y-100471700D01*
X93072600Y-99019200D02*
X91620100Y-100471700D01*
X93072600Y-96836800D02*
X93072600Y-99019200D01*
X93052700Y-96816900D02*
X93072600Y-96836800D01*
X93052700Y-96816900D02*
X93741600Y-96128000D01*
X111336400Y-109177100D02*
X111108300Y-108949000D01*
X111336400Y-115541000D02*
X111336400Y-109177100D01*
X111336400Y-116457800D02*
X111336400Y-115541000D01*
X110989600Y-116804600D02*
X111336400Y-116457800D01*
X111336400Y-115541000D02*
X111355800Y-115541000D01*
X70635000Y-98691900D02*
X69626800Y-99700100D01*
X70696300Y-98691900D02*
X70635000Y-98691900D01*
X89311900Y-91386800D02*
X89311900Y-85737300D01*
X89328000Y-91402900D02*
X89311900Y-91386800D01*
X89328000Y-96369600D02*
X89328000Y-91402900D01*
X89564500Y-96606100D02*
X89328000Y-96369600D01*
X92841900Y-96606100D02*
X89564500Y-96606100D01*
X93052700Y-96816900D02*
X92841900Y-96606100D01*
X175536100Y-91252300D02*
X175536100Y-76071300D01*
X183042100Y-98758300D02*
X175536100Y-91252300D01*
X193398300Y-98758300D02*
X183042100Y-98758300D01*
X198270000Y-103630000D02*
X193398300Y-98758300D01*
X47764800Y-88647400D02*
X47764800Y-86798100D01*
X95050000Y-44482100D02*
X96899300Y-44482100D01*
X95050000Y-47022100D02*
X96786700Y-47022100D01*
X109319000Y-123161000D02*
X107469700Y-123161000D01*
X109319000Y-120621000D02*
X108394400Y-120621000D01*
X107469700Y-121545700D02*
X107469700Y-123161000D01*
X108394400Y-120621000D02*
X107469700Y-121545700D01*
X115045000Y-43189500D02*
X116894300Y-43189500D01*
X116894300Y-43189500D02*
X116894300Y-44489600D01*
X116894300Y-44489600D02*
X116894300Y-45729500D01*
X115170000Y-75484700D02*
X117019300Y-75484700D01*
X115170000Y-72944700D02*
X116094700Y-72944700D01*
X149361000Y-130595000D02*
X147511700Y-130595000D01*
X135050000Y-47029600D02*
X133200700Y-47029600D01*
X133200700Y-44489600D02*
X133200700Y-47029600D01*
X116894300Y-44489600D02*
X133200700Y-44489600D01*
X133200700Y-44489600D02*
X135050000Y-44489600D01*
X115969700Y-45729500D02*
X116894300Y-45729500D01*
X115969700Y-45729500D02*
X115045000Y-45729500D01*
X115045000Y-45729500D02*
X113195700Y-45729500D01*
X147511700Y-133135000D02*
X147511700Y-130595000D01*
X149361000Y-133135000D02*
X147511700Y-133135000D01*
X167527700Y-136855000D02*
X167527700Y-134315000D01*
X169377000Y-136855000D02*
X167527700Y-136855000D01*
X169377000Y-134315000D02*
X168452400Y-134315000D01*
X168452400Y-134315000D02*
X167527700Y-134315000D01*
X151244700Y-133100600D02*
X151210300Y-133135000D01*
X166313300Y-133100600D02*
X151244700Y-133100600D01*
X167527700Y-134315000D02*
X166313300Y-133100600D01*
X149361000Y-133135000D02*
X151210300Y-133135000D01*
X96899300Y-45729500D02*
X113195700Y-45729500D01*
X96899300Y-46909500D02*
X96899300Y-45729500D01*
X96786700Y-47022100D02*
X96899300Y-46909500D01*
X96899300Y-45729500D02*
X96899300Y-44482100D01*
X131598800Y-129362500D02*
X131192300Y-128956000D01*
X137085400Y-129362500D02*
X131598800Y-129362500D01*
X138317900Y-130595000D02*
X137085400Y-129362500D01*
X147511700Y-130595000D02*
X138317900Y-130595000D01*
X175080000Y-53990600D02*
X176929300Y-53990600D01*
X176929300Y-53990600D02*
X177141600Y-53990600D01*
X107469700Y-123161000D02*
X107239200Y-123161000D01*
X50304800Y-88647400D02*
X50304800Y-86798100D01*
X91285200Y-115204000D02*
X90822900Y-115204000D01*
X89435900Y-113817000D02*
X89435900Y-112664000D01*
X90822900Y-115204000D02*
X89435900Y-113817000D01*
X96959300Y-58694000D02*
X96959300Y-61234000D01*
X95110000Y-58694000D02*
X96959300Y-58694000D01*
X95169000Y-75445900D02*
X94244400Y-75445900D01*
X94244400Y-75445900D02*
X93319700Y-75445900D01*
X93319700Y-74521200D02*
X93319700Y-72905900D01*
X94244400Y-75445900D02*
X93319700Y-74521200D01*
X95169000Y-72905900D02*
X93319700Y-72905900D01*
X129343000Y-128956000D02*
X130244900Y-128956000D01*
X130244900Y-128956000D02*
X131192300Y-128956000D01*
X129343000Y-128054100D02*
X129343000Y-126416000D01*
X130244900Y-128956000D02*
X129343000Y-128054100D01*
X189389000Y-139761000D02*
X188464400Y-139761000D01*
X189389000Y-137221000D02*
X187539700Y-137221000D01*
X187539700Y-138836300D02*
X187539700Y-137221000D01*
X188464400Y-139761000D02*
X187539700Y-138836300D01*
X47764800Y-86798100D02*
X49034800Y-86798100D01*
X49034800Y-86798100D02*
X50304800Y-86798100D01*
X49034800Y-68857700D02*
X57257500Y-60635000D01*
X49034800Y-86798100D02*
X49034800Y-68857700D01*
X59106800Y-60635000D02*
X57257500Y-60635000D01*
X59106800Y-60635000D02*
X60031500Y-60635000D01*
X60031500Y-60635000D02*
X60956100Y-60635000D01*
X60956100Y-59710400D02*
X60956100Y-58095000D01*
X60031500Y-60635000D02*
X60956100Y-59710400D01*
X59106800Y-58095000D02*
X60956100Y-58095000D01*
X135170000Y-72860600D02*
X134245400Y-72860600D01*
X134245400Y-72860600D02*
X133320700Y-72860600D01*
X133320700Y-73785300D02*
X133320700Y-75400600D01*
X134245400Y-72860600D02*
X133320700Y-73785300D01*
X135170000Y-75400600D02*
X133320700Y-75400600D01*
X117019300Y-74631300D02*
X117435900Y-74214700D01*
X117019300Y-75484700D02*
X117019300Y-74631300D01*
X127493700Y-129246600D02*
X127493700Y-128956000D01*
X127299300Y-129441000D02*
X127493700Y-129246600D01*
X129343000Y-128956000D02*
X127493700Y-128956000D01*
X157372500Y-72422200D02*
X157018300Y-72776400D01*
X157372500Y-50544200D02*
X157372500Y-72422200D01*
X156912300Y-50084000D02*
X157372500Y-50544200D01*
X155169000Y-72776400D02*
X157018300Y-72776400D01*
X155169000Y-75316400D02*
X157018300Y-75316400D01*
X157079200Y-72837300D02*
X157079200Y-73990700D01*
X157018300Y-72776400D02*
X157079200Y-72837300D01*
X157079200Y-75255500D02*
X157018300Y-75316400D01*
X157079200Y-73990700D02*
X157079200Y-75255500D01*
X155063000Y-50084000D02*
X155987700Y-50084000D01*
X155987700Y-50084000D02*
X156912300Y-50084000D01*
X156912300Y-49159400D02*
X156912300Y-47544000D01*
X155987700Y-50084000D02*
X156912300Y-49159400D01*
X155063000Y-47544000D02*
X156912300Y-47544000D01*
X175080000Y-53990600D02*
X174155400Y-53990600D01*
X175080000Y-51450600D02*
X173230700Y-51450600D01*
X173230700Y-53065900D02*
X173230700Y-51450600D01*
X174155400Y-53990600D02*
X173230700Y-53065900D01*
X59184700Y-76605700D02*
X60109400Y-76605700D01*
X60109400Y-76605700D02*
X61034000Y-76605700D01*
X61034000Y-77530300D02*
X61034000Y-79145700D01*
X60109400Y-76605700D02*
X61034000Y-77530300D01*
X59184700Y-79145700D02*
X61034000Y-79145700D01*
X63545100Y-74094600D02*
X63545100Y-63224000D01*
X61034000Y-76605700D02*
X63545100Y-74094600D01*
X63545100Y-63224000D02*
X60956100Y-60635000D01*
X77067200Y-51192600D02*
X75217900Y-51192600D01*
X77067200Y-48652600D02*
X77991900Y-48652600D01*
X77067200Y-51192600D02*
X78916500Y-51192600D01*
X75859200Y-64654900D02*
X77129200Y-65924900D01*
X77129200Y-63384900D02*
X75859200Y-64654900D01*
X69605700Y-58635800D02*
X69605700Y-63224000D01*
X71894500Y-56347000D02*
X69605700Y-58635800D01*
X72064400Y-56347000D02*
X71894500Y-56347000D01*
X63545100Y-63224000D02*
X69605700Y-63224000D01*
X75613800Y-64654900D02*
X75859200Y-64654900D01*
X75348300Y-64389400D02*
X75613800Y-64654900D01*
X70771100Y-64389400D02*
X75348300Y-64389400D01*
X69605700Y-63224000D02*
X70771100Y-64389400D01*
X91285200Y-112664000D02*
X89435900Y-112664000D01*
X93192900Y-76836400D02*
X93256300Y-76836400D01*
X93319700Y-76773000D02*
X93256300Y-76836400D01*
X93319700Y-75445900D02*
X93319700Y-76773000D01*
X97078300Y-79549500D02*
X97078300Y-87117000D01*
X96729100Y-79200300D02*
X97078300Y-79549500D01*
X93483800Y-79200300D02*
X96729100Y-79200300D01*
X93256300Y-78972800D02*
X93483800Y-79200300D01*
X93256300Y-76836400D02*
X93256300Y-78972800D01*
X96153700Y-87117000D02*
X96153700Y-89657000D01*
X95229000Y-87117000D02*
X96153700Y-87117000D01*
X96153700Y-87117000D02*
X97078300Y-87117000D01*
X95110000Y-61234000D02*
X96947100Y-61234000D01*
X96947100Y-61234000D02*
X96959300Y-61234000D01*
X96947100Y-61331800D02*
X97537300Y-61922000D01*
X96947100Y-61234000D02*
X96947100Y-61331800D01*
X95583600Y-89657000D02*
X95844900Y-89657000D01*
X95229000Y-89657000D02*
X95583600Y-89657000D01*
X95844900Y-89657000D02*
X96153700Y-89657000D01*
X187539700Y-137221000D02*
X186219600Y-135900900D01*
X171577400Y-134315000D02*
X169377000Y-134315000D01*
X173163300Y-135900900D02*
X171577400Y-134315000D01*
X186219600Y-135900900D02*
X173163300Y-135900900D01*
X72064400Y-54346100D02*
X72064400Y-56347000D01*
X75217900Y-51192600D02*
X72064400Y-54346100D01*
X77991900Y-48652600D02*
X78916500Y-49577200D01*
X78916500Y-49577200D02*
X78916500Y-51192600D01*
X81471600Y-47022100D02*
X95050000Y-47022100D01*
X78916500Y-49577200D02*
X81471600Y-47022100D01*
X116094700Y-72944700D02*
X116756300Y-72944700D01*
X116756300Y-72820800D02*
X116756300Y-72944700D01*
X117846800Y-71730300D02*
X116756300Y-72820800D01*
X132190400Y-71730300D02*
X117846800Y-71730300D01*
X133320700Y-72860600D02*
X132190400Y-71730300D01*
X116756300Y-73535100D02*
X117435900Y-74214700D01*
X116756300Y-72944700D02*
X116756300Y-73535100D01*
X186219600Y-128380400D02*
X186219600Y-135900900D01*
X195730000Y-118870000D02*
X186219600Y-128380400D01*
X73232500Y-102735500D02*
X71383200Y-102735500D01*
X77129200Y-65924900D02*
X78978500Y-65924900D01*
X173230600Y-54915400D02*
X174155400Y-53990600D01*
X173230600Y-65807000D02*
X173230600Y-54915400D01*
X183150000Y-75726400D02*
X173230600Y-65807000D01*
X183150000Y-97030000D02*
X183150000Y-75726400D01*
X80984800Y-67931200D02*
X80984800Y-68046400D01*
X78978500Y-65924900D02*
X80984800Y-67931200D01*
X77191200Y-78117300D02*
X78115900Y-78117300D01*
X78115900Y-78117300D02*
X79040500Y-78117300D01*
X79040500Y-79041900D02*
X79040500Y-80657300D01*
X78115900Y-78117300D02*
X79040500Y-79041900D01*
X77191200Y-80657300D02*
X79040500Y-80657300D01*
X90822900Y-115204000D02*
X89435900Y-115204000D01*
X89435900Y-115204000D02*
X89209600Y-115204000D01*
X81001300Y-68062900D02*
X80984800Y-68046400D01*
X81001300Y-76242200D02*
X81001300Y-68062900D01*
X80655300Y-76588200D02*
X81001300Y-76242200D01*
X79102500Y-95391700D02*
X82081700Y-95391700D01*
X80655300Y-76731200D02*
X80655300Y-76588200D01*
X79269200Y-78117300D02*
X80655300Y-76731200D01*
X79040500Y-78117300D02*
X79269200Y-78117300D01*
X71151900Y-102735500D02*
X71150500Y-102736900D01*
X71383200Y-102735500D02*
X71151900Y-102735500D01*
X73232500Y-100195500D02*
X74157200Y-100195500D01*
X73232500Y-102735500D02*
X75081800Y-102735500D01*
X77253200Y-95391700D02*
X78177900Y-95391700D01*
X78177900Y-95391700D02*
X79102500Y-95391700D01*
X79102500Y-94467100D02*
X79102500Y-92851700D01*
X78177900Y-95391700D02*
X79102500Y-94467100D01*
X77253200Y-92851700D02*
X79102500Y-92851700D01*
X75081800Y-101120100D02*
X75081800Y-102735500D01*
X74157200Y-100195500D02*
X75081800Y-101120100D01*
X77253200Y-95391700D02*
X75403900Y-95391700D01*
X75403900Y-98948800D02*
X75403900Y-95391700D01*
X74157200Y-100195500D02*
X75403900Y-98948800D01*
X98414300Y-92226400D02*
X98414300Y-93352000D01*
X95844900Y-89657000D02*
X98414300Y-92226400D01*
X99511800Y-94449500D02*
X99511800Y-99878600D01*
X98414300Y-93352000D02*
X99511800Y-94449500D01*
X98588700Y-99878600D02*
X97138300Y-101329000D01*
X99511800Y-99878600D02*
X98588700Y-99878600D01*
X99511800Y-99878600D02*
X100724800Y-101091600D01*
X95289000Y-101329000D02*
X96213700Y-101329000D01*
X96213700Y-101329000D02*
X97138300Y-101329000D01*
X97138300Y-102253600D02*
X97138300Y-103869000D01*
X96213700Y-101329000D02*
X97138300Y-102253600D01*
X95289000Y-103869000D02*
X97138300Y-103869000D01*
X174831800Y-68215300D02*
X169924800Y-63308300D01*
X174831800Y-91184900D02*
X174831800Y-68215300D01*
X182965100Y-99318200D02*
X174831800Y-91184900D01*
X191418200Y-99318200D02*
X182965100Y-99318200D01*
X195730000Y-103630000D02*
X191418200Y-99318200D01*
X169249700Y-63518400D02*
X169249700Y-62230800D01*
X173684400Y-67953100D02*
X169249700Y-63518400D01*
X173684400Y-90674400D02*
X173684400Y-67953100D01*
X184040600Y-101030600D02*
X173684400Y-90674400D01*
X185510600Y-101030600D02*
X184040600Y-101030600D01*
X188110000Y-103630000D02*
X185510600Y-101030600D01*
X173047400Y-91107400D02*
X185570000Y-103630000D01*
X173047400Y-71265000D02*
X173047400Y-91107400D01*
X172729400Y-70947000D02*
X173047400Y-71265000D01*
X172158300Y-92758300D02*
X183030000Y-103630000D01*
X172158300Y-88762400D02*
X172158300Y-92758300D01*
X142840400Y-88210100D02*
X155201200Y-100570900D01*
X142840400Y-74465500D02*
X142840400Y-88210100D01*
X117970000Y-49595100D02*
X142840400Y-74465500D01*
X171533000Y-102293000D02*
X172870000Y-103630000D01*
X171533000Y-66912300D02*
X171533000Y-102293000D01*
X169878700Y-65258000D02*
X171533000Y-66912300D01*
X135937400Y-102698000D02*
X135937400Y-116072500D01*
X129857700Y-96618300D02*
X135937400Y-102698000D01*
X128230400Y-96618300D02*
X129857700Y-96618300D01*
X111773000Y-80160900D02*
X128230400Y-96618300D01*
X111773000Y-79884200D02*
X111773000Y-80160900D01*
X128790000Y-108087600D02*
X128790000Y-114333200D01*
X112899400Y-92197000D02*
X128790000Y-108087600D01*
X119239700Y-112347600D02*
X119239700Y-113892100D01*
X113301100Y-106409000D02*
X119239700Y-112347600D01*
X183970300Y-117270300D02*
X185570000Y-118870000D01*
X179575200Y-117270300D02*
X183970300Y-117270300D01*
X176628200Y-114323300D02*
X179575200Y-117270300D01*
X176628200Y-110760900D02*
X176628200Y-114323300D01*
X177451400Y-109937700D02*
X176628200Y-110760900D01*
X197660400Y-109937700D02*
X177451400Y-109937700D01*
X197660400Y-109937600D02*
X197660400Y-109937700D01*
X198297300Y-109937600D02*
X197660400Y-109937600D01*
X203471900Y-104763000D02*
X198297300Y-109937600D01*
X203471900Y-85331300D02*
X203471900Y-104763000D01*
X184780300Y-66639700D02*
X203471900Y-85331300D01*
X131167300Y-79949100D02*
X137422300Y-86204100D01*
X131167300Y-78024700D02*
X131167300Y-79949100D01*
X151046600Y-48662300D02*
X151046600Y-49569600D01*
X153379300Y-46329600D02*
X151046600Y-48662300D01*
X173523700Y-46329600D02*
X153379300Y-46329600D01*
X179859100Y-52665000D02*
X173523700Y-46329600D01*
X190605800Y-52665000D02*
X179859100Y-52665000D01*
X204405200Y-66464400D02*
X190605800Y-52665000D01*
X204405200Y-117799500D02*
X204405200Y-66464400D01*
X200823100Y-121381600D02*
X204405200Y-117799500D01*
X199181300Y-121381600D02*
X200823100Y-121381600D01*
X166997900Y-99342100D02*
X166997900Y-82169300D01*
X162710000Y-103630000D02*
X166997900Y-99342100D01*
X137113100Y-105773100D02*
X137924300Y-104961900D01*
X137113100Y-123663100D02*
X137113100Y-105773100D01*
X166356400Y-94903600D02*
X157630000Y-103630000D01*
X166356400Y-80776300D02*
X166356400Y-94903600D01*
X166523400Y-80609300D02*
X166356400Y-80776300D01*
X166523400Y-78718600D02*
X166523400Y-80609300D01*
X166354500Y-78549700D02*
X166523400Y-78718600D01*
X166354500Y-53343500D02*
X166354500Y-78549700D01*
X167004300Y-52693700D02*
X166354500Y-53343500D01*
X165898100Y-92821900D02*
X155090000Y-103630000D01*
X165898100Y-80350200D02*
X165898100Y-92821900D01*
X138443700Y-106458800D02*
X138515500Y-106387000D01*
X138443700Y-119353000D02*
X138443700Y-106458800D01*
X143030200Y-123939500D02*
X138443700Y-119353000D01*
X165271400Y-91385100D02*
X165271400Y-84818900D01*
X155285200Y-101371300D02*
X165271400Y-91385100D01*
X152268700Y-101371300D02*
X155285200Y-101371300D01*
X150010000Y-103630000D02*
X152268700Y-101371300D01*
X137879700Y-105890800D02*
X137957200Y-105813300D01*
X137879700Y-119673300D02*
X137879700Y-105890800D01*
X142771200Y-124564800D02*
X137879700Y-119673300D01*
X144369200Y-124564800D02*
X142771200Y-124564800D01*
X144661900Y-124272100D02*
X144369200Y-124564800D01*
X53354300Y-91006200D02*
X53354300Y-91435100D01*
X52844800Y-90496700D02*
X53354300Y-91006200D01*
X143603700Y-104956300D02*
X144930000Y-103630000D01*
X141650000Y-104956300D02*
X143603700Y-104956300D01*
X126975900Y-90282200D02*
X141650000Y-104956300D01*
X52844800Y-88647400D02*
X52844800Y-90496700D01*
X60956100Y-72256900D02*
X62705100Y-74005900D01*
X60956100Y-63175000D02*
X60956100Y-72256900D01*
X59106800Y-63175000D02*
X60956100Y-63175000D01*
X142390000Y-99110900D02*
X142390000Y-103630000D01*
X118296900Y-75017800D02*
X142390000Y-99110900D01*
X118296900Y-72378100D02*
X118296900Y-75017800D01*
X61034000Y-83913500D02*
X64196200Y-87075700D01*
X61034000Y-81685700D02*
X61034000Y-83913500D01*
X59184700Y-81685700D02*
X61034000Y-81685700D01*
X118870700Y-84994400D02*
X117758800Y-84994400D01*
X139711200Y-105834900D02*
X118870700Y-84994400D01*
X139711200Y-116191200D02*
X139711200Y-105834900D01*
X142390000Y-118870000D02*
X139711200Y-116191200D01*
X73232500Y-97655500D02*
X71383200Y-97655500D01*
X72588000Y-105083400D02*
X86082500Y-105083400D01*
X70493200Y-102988600D02*
X72588000Y-105083400D01*
X70493200Y-100013100D02*
X70493200Y-102988600D01*
X71383200Y-99123100D02*
X70493200Y-100013100D01*
X71383200Y-97655500D02*
X71383200Y-99123100D01*
X145701700Y-117101700D02*
X147470000Y-118870000D01*
X142540200Y-117101700D02*
X145701700Y-117101700D01*
X140167100Y-114728600D02*
X142540200Y-117101700D01*
X140167100Y-105653900D02*
X140167100Y-114728600D01*
X117331000Y-82817800D02*
X140167100Y-105653900D01*
X117331000Y-79824000D02*
X117331000Y-82817800D01*
X116801700Y-79294700D02*
X117331000Y-79824000D01*
X113538100Y-79294700D02*
X116801700Y-79294700D01*
X112842400Y-78599000D02*
X113538100Y-79294700D01*
X112842400Y-69198400D02*
X112842400Y-78599000D01*
X116894300Y-65146500D02*
X112842400Y-69198400D01*
X116894300Y-49784200D02*
X116894300Y-65146500D01*
X116649600Y-49539500D02*
X116894300Y-49784200D01*
X113441900Y-49539500D02*
X116649600Y-49539500D01*
X112250200Y-48347800D02*
X113441900Y-49539500D01*
X93313700Y-48347800D02*
X112250200Y-48347800D01*
X92886600Y-48774900D02*
X93313700Y-48347800D01*
X92886600Y-49714800D02*
X92886600Y-48774900D01*
X92623200Y-49978200D02*
X92886600Y-49714800D01*
X83558200Y-49978200D02*
X92623200Y-49978200D01*
X79803800Y-53732600D02*
X83558200Y-49978200D01*
X77067200Y-53732600D02*
X79803800Y-53732600D01*
X79701400Y-73360400D02*
X79701400Y-76800700D01*
X80550900Y-72510900D02*
X79701400Y-73360400D01*
X80550900Y-70037300D02*
X80550900Y-72510900D01*
X78978500Y-68464900D02*
X80550900Y-70037300D01*
X77129200Y-68464900D02*
X78978500Y-68464900D01*
X146684400Y-115544400D02*
X150010000Y-118870000D01*
X141632900Y-115544400D02*
X146684400Y-115544400D01*
X140617500Y-114529000D02*
X141632900Y-115544400D01*
X140617500Y-105467400D02*
X140617500Y-114529000D01*
X118103400Y-82953300D02*
X140617500Y-105467400D01*
X118103400Y-82532900D02*
X118103400Y-82953300D01*
X77191200Y-83197300D02*
X79040500Y-83197300D01*
X88093500Y-92250300D02*
X88093500Y-102093800D01*
X79040500Y-83197300D02*
X88093500Y-92250300D01*
X79729200Y-97931700D02*
X77253200Y-97931700D01*
X85437500Y-103640000D02*
X79729200Y-97931700D01*
X91285200Y-110124000D02*
X93134500Y-110124000D01*
X96161900Y-113151400D02*
X96161900Y-113266700D01*
X93134500Y-110124000D02*
X96161900Y-113151400D01*
X105912000Y-97537100D02*
X107855800Y-99480900D01*
X105912000Y-64018800D02*
X105912000Y-97537100D01*
X107482400Y-62448400D02*
X105912000Y-64018800D01*
X110788700Y-62448400D02*
X107482400Y-62448400D01*
X110929400Y-62307700D02*
X110788700Y-62448400D01*
X110929400Y-60197700D02*
X110929400Y-62307700D01*
X110640100Y-59908400D02*
X110929400Y-60197700D01*
X107421300Y-59908400D02*
X110640100Y-59908400D01*
X97075000Y-49562100D02*
X107421300Y-59908400D01*
X95050000Y-49562100D02*
X97075000Y-49562100D01*
X108658700Y-100106300D02*
X109581100Y-99183900D01*
X107568300Y-100106300D02*
X108658700Y-100106300D01*
X104057500Y-96595500D02*
X107568300Y-100106300D01*
X104057500Y-70583600D02*
X104057500Y-96595500D01*
X97247900Y-63774000D02*
X104057500Y-70583600D01*
X95110000Y-63774000D02*
X97247900Y-63774000D01*
X99962200Y-94357000D02*
X104130700Y-98525500D01*
X99962200Y-80929800D02*
X99962200Y-94357000D01*
X97018300Y-77985900D02*
X99962200Y-80929800D01*
X95169000Y-77985900D02*
X97018300Y-77985900D01*
X98886500Y-95503200D02*
X98886500Y-97941700D01*
X97078300Y-93695000D02*
X98886500Y-95503200D01*
X97078300Y-92197000D02*
X97078300Y-93695000D01*
X95229000Y-92197000D02*
X97078300Y-92197000D01*
X106321300Y-110822800D02*
X108911200Y-110822800D01*
X101907500Y-106409000D02*
X106321300Y-110822800D01*
X95289000Y-106409000D02*
X101907500Y-106409000D01*
X109319000Y-118081000D02*
X111168300Y-118081000D01*
X127691200Y-111952000D02*
X127691200Y-110114500D01*
X117092800Y-122550400D02*
X127691200Y-111952000D01*
X113682600Y-122550400D02*
X117092800Y-122550400D01*
X112835000Y-121702800D02*
X113682600Y-122550400D01*
X112835000Y-119747700D02*
X112835000Y-121702800D01*
X111168300Y-118081000D02*
X112835000Y-119747700D01*
X115045000Y-48269500D02*
X116894300Y-48269500D01*
X146192000Y-115068000D02*
X147470000Y-113790000D01*
X141856700Y-115068000D02*
X146192000Y-115068000D01*
X141067900Y-114279200D02*
X141856700Y-115068000D01*
X141067900Y-105280900D02*
X141067900Y-114279200D01*
X126350600Y-90563600D02*
X141067900Y-105280900D01*
X126350600Y-90023200D02*
X126350600Y-90563600D01*
X126356600Y-90017200D02*
X126350600Y-90023200D01*
X126356600Y-86311800D02*
X126356600Y-90017200D01*
X116799500Y-76754700D02*
X126356600Y-86311800D01*
X113484700Y-76754700D02*
X116799500Y-76754700D01*
X113320600Y-76590600D02*
X113484700Y-76754700D01*
X113320600Y-71730500D02*
X113320600Y-76590600D01*
X117344600Y-67706500D02*
X113320600Y-71730500D01*
X117344600Y-48719800D02*
X117344600Y-67706500D01*
X116894300Y-48269500D02*
X117344600Y-48719800D01*
X115170000Y-78024700D02*
X117019300Y-78024700D01*
X117019300Y-78862800D02*
X125725400Y-87568900D01*
X117019300Y-78024700D02*
X117019300Y-78862800D01*
X129343000Y-123876000D02*
X127493700Y-123876000D01*
X129598600Y-114455600D02*
X129598600Y-97243600D01*
X127493700Y-116560500D02*
X129598600Y-114455600D01*
X127493700Y-123876000D02*
X127493700Y-116560500D01*
X132736000Y-50034300D02*
X133200700Y-49569600D01*
X132736000Y-55859100D02*
X132736000Y-50034300D01*
X144611300Y-67734400D02*
X132736000Y-55859100D01*
X144611300Y-84278200D02*
X144611300Y-67734400D01*
X154808900Y-94475800D02*
X144611300Y-84278200D01*
X135050000Y-49569600D02*
X133200700Y-49569600D01*
X135170000Y-77940600D02*
X137019300Y-77940600D01*
X137019300Y-83264700D02*
X141878800Y-88124200D01*
X137019300Y-77940600D02*
X137019300Y-83264700D01*
X149361000Y-128055000D02*
X151210300Y-128055000D01*
X161521900Y-126001800D02*
X161521900Y-125339700D01*
X157074300Y-130449400D02*
X161521900Y-126001800D01*
X153604700Y-130449400D02*
X157074300Y-130449400D01*
X151210300Y-128055000D02*
X153604700Y-130449400D01*
X202549900Y-98794500D02*
X202345600Y-98590200D01*
X202549900Y-104361400D02*
X202549900Y-98794500D01*
X197874500Y-109036800D02*
X202549900Y-104361400D01*
X177078500Y-109036800D02*
X197874500Y-109036800D01*
X171047400Y-115067900D02*
X177078500Y-109036800D01*
X161447900Y-115067900D02*
X171047400Y-115067900D01*
X160170000Y-113790000D02*
X161447900Y-115067900D01*
X155063000Y-52624000D02*
X156912300Y-52624000D01*
X156912300Y-65800200D02*
X156912300Y-52624000D01*
X153319600Y-69392900D02*
X156912300Y-65800200D01*
X153319600Y-78962300D02*
X153319600Y-69392900D01*
X153428100Y-79070800D02*
X153319600Y-78962300D01*
X156773300Y-79070800D02*
X153428100Y-79070800D01*
X164051000Y-86348500D02*
X156773300Y-79070800D01*
X164051000Y-86829400D02*
X164051000Y-86348500D01*
X157018300Y-77915100D02*
X164575900Y-85472700D01*
X157018300Y-77856400D02*
X157018300Y-77915100D01*
X155169000Y-77856400D02*
X157018300Y-77856400D01*
X169377000Y-131775000D02*
X171226300Y-131775000D01*
X179629000Y-123372300D02*
X187056200Y-123372300D01*
X171226300Y-131775000D02*
X179629000Y-123372300D01*
X181807400Y-115107400D02*
X180490000Y-113790000D01*
X186512500Y-115107400D02*
X181807400Y-115107400D01*
X187998100Y-113621800D02*
X186512500Y-115107400D01*
X195250000Y-113621800D02*
X187998100Y-113621800D01*
X203954800Y-104917000D02*
X195250000Y-113621800D01*
X203954800Y-83556100D02*
X203954800Y-104917000D01*
X176929300Y-56530600D02*
X203954800Y-83556100D01*
X175080000Y-56530600D02*
X176929300Y-56530600D01*
X179717800Y-115557800D02*
X177950000Y-113790000D01*
X186700900Y-115557800D02*
X179717800Y-115557800D01*
X187208700Y-115050000D02*
X186700900Y-115557800D01*
X198827900Y-115050000D02*
X187208700Y-115050000D01*
X202105500Y-118327600D02*
X198827900Y-115050000D01*
X202105500Y-119382700D02*
X202105500Y-118327600D01*
X201136900Y-120351300D02*
X202105500Y-119382700D01*
X198258200Y-120351300D02*
X201136900Y-120351300D01*
X186670000Y-131939500D02*
X198258200Y-120351300D01*
X186670000Y-133811300D02*
X186670000Y-131939500D01*
X187539700Y-134681000D02*
X186670000Y-133811300D01*
X189389000Y-134681000D02*
X187539700Y-134681000D01*
X192123600Y-95676400D02*
X190770000Y-97030000D01*
X200316200Y-95676400D02*
X192123600Y-95676400D01*
X203009900Y-98370100D02*
X200316200Y-95676400D01*
X203009900Y-104538300D02*
X203009900Y-98370100D01*
X198060900Y-109487300D02*
X203009900Y-104538300D01*
X177264900Y-109487300D02*
X198060900Y-109487300D01*
X176177900Y-110574300D02*
X177264900Y-109487300D01*
X176177900Y-114557900D02*
X176177900Y-110574300D01*
X180490000Y-118870000D02*
X176177900Y-114557900D01*
X198313000Y-107961400D02*
X198052300Y-107961400D01*
X202089700Y-104184700D02*
X198313000Y-107961400D01*
X202089700Y-103055900D02*
X202089700Y-104184700D01*
X198511700Y-99477900D02*
X202089700Y-103055900D01*
X195757900Y-99477900D02*
X198511700Y-99477900D01*
X193310000Y-97030000D02*
X195757900Y-99477900D01*
M02*
