G04 #@! TF.FileFunction,Profile,NP*
%FSLAX46Y46*%
G04 Gerber Fmt 4.6, Leading zero omitted, Abs format (unit mm)*
G04 Created by KiCad (PCBNEW 4.0.7-e2-6376~58~ubuntu16.04.1) date Mon Jul  1 13:34:01 2019*
%MOMM*%
%LPD*%
G01*
G04 APERTURE LIST*
%ADD10C,0.100000*%
G04 APERTURE END LIST*
D10*
X241049139Y-112658387D02*
X242146154Y-110961590D01*
X239987274Y-114295627D02*
X241049139Y-112658387D01*
X238960560Y-115873311D02*
X239987274Y-114295627D01*
X237968995Y-117391438D02*
X238960560Y-115873311D01*
X237012581Y-118850008D02*
X237968995Y-117391438D01*
X236091317Y-120249021D02*
X237012581Y-118850008D01*
X235205203Y-121588478D02*
X236091317Y-120249021D01*
X234354239Y-122868378D02*
X235205203Y-121588478D01*
X233511930Y-124084966D02*
X234354239Y-122868378D01*
X232651781Y-125234487D02*
X233511930Y-124084966D01*
X231773791Y-126316942D02*
X232651781Y-125234487D01*
X230877962Y-127332331D02*
X231773791Y-126316942D01*
X229964292Y-128280653D02*
X230877962Y-127332331D01*
X229032782Y-129161908D02*
X229964292Y-128280653D01*
X228083432Y-129976096D02*
X229032782Y-129161908D01*
X227116242Y-130723218D02*
X228083432Y-129976096D01*
X226127962Y-131423972D02*
X227116242Y-130723218D01*
X225115342Y-132099054D02*
X226127962Y-131423972D01*
X224078382Y-132748465D02*
X225115342Y-132099054D01*
X223017082Y-133372206D02*
X224078382Y-132748465D01*
X221931443Y-133970275D02*
X223017082Y-133372206D01*
X220821463Y-134542673D02*
X221931443Y-133970275D01*
X219687144Y-135089401D02*
X220821463Y-134542673D01*
X218528485Y-135610457D02*
X219687144Y-135089401D01*
X217356340Y-136109278D02*
X218528485Y-135610457D01*
X216181561Y-136589299D02*
X217356340Y-136109278D01*
X215004150Y-137050521D02*
X216181561Y-136589299D01*
X213824106Y-137492942D02*
X215004150Y-137050521D01*
X212641428Y-137916564D02*
X213824106Y-137492942D01*
X211456118Y-138321386D02*
X212641428Y-137916564D01*
X210268175Y-138707408D02*
X211456118Y-138321386D01*
X209077599Y-139074631D02*
X210268175Y-138707408D01*
X207875484Y-139427158D02*
X209077599Y-139074631D01*
X206652925Y-139769097D02*
X207875484Y-139427158D01*
X205409922Y-140100446D02*
X206652925Y-139769097D01*
X204146474Y-140421207D02*
X205409922Y-140100446D01*
X202862582Y-140731378D02*
X204146474Y-140421207D01*
X201558245Y-141030959D02*
X202862582Y-140731378D01*
X200233464Y-141319952D02*
X201558245Y-141030959D01*
X198888239Y-141598355D02*
X200233464Y-141319952D01*
X197512737Y-141858657D02*
X198888239Y-141598355D01*
X196097126Y-142093344D02*
X197512737Y-141858657D01*
X194641406Y-142302417D02*
X196097126Y-142093344D01*
X193145578Y-142485876D02*
X194641406Y-142302417D01*
X191609640Y-142643720D02*
X193145578Y-142485876D01*
X190033594Y-142775950D02*
X191609640Y-142643720D01*
X188417439Y-142882566D02*
X190033594Y-142775950D01*
X186761175Y-142963567D02*
X188417439Y-142882566D01*
X185048865Y-143009683D02*
X186761175Y-142963567D01*
X183264569Y-143011644D02*
X185048865Y-143009683D01*
X181408288Y-142969450D02*
X183264569Y-143011644D01*
X179480023Y-142883100D02*
X181408288Y-142969450D01*
X177479772Y-142752595D02*
X179480023Y-142883100D01*
X175407537Y-142577934D02*
X177479772Y-142752595D01*
X173263316Y-142359119D02*
X175407537Y-142577934D01*
X171047111Y-142096147D02*
X173263316Y-142359119D01*
X168741748Y-141792902D02*
X171047111Y-142096147D01*
X166330054Y-141453263D02*
X168741748Y-141792902D01*
X163812031Y-141077231D02*
X166330054Y-141453263D01*
X161187677Y-140664806D02*
X163812031Y-141077231D01*
X158456992Y-140215988D02*
X161187677Y-140664806D01*
X155619978Y-139730776D02*
X158456992Y-140215988D01*
X152676633Y-139209172D02*
X155619978Y-139730776D01*
X149626957Y-138651174D02*
X152676633Y-139209172D01*
X146548200Y-138077006D02*
X149626957Y-138651174D01*
X143517609Y-137506890D02*
X146548200Y-138077006D01*
X140535185Y-136940825D02*
X143517609Y-137506890D01*
X137600928Y-136378812D02*
X140535185Y-136940825D01*
X134714837Y-135820851D02*
X137600928Y-136378812D01*
X131876912Y-135266942D02*
X134714837Y-135820851D01*
X129087154Y-134717085D02*
X131876912Y-135266942D01*
X126345563Y-134171279D02*
X129087154Y-134717085D01*
X123649523Y-133620069D02*
X126345563Y-134171279D01*
X120996421Y-133054000D02*
X123649523Y-133620069D01*
X118386256Y-132473071D02*
X120996421Y-133054000D01*
X115819029Y-131877282D02*
X118386256Y-132473071D01*
X113294739Y-131266633D02*
X115819029Y-131877282D01*
X110813386Y-130641125D02*
X113294739Y-131266633D01*
X108374971Y-130000756D02*
X110813386Y-130641125D01*
X105979493Y-129345528D02*
X108374971Y-130000756D01*
X103617861Y-128667050D02*
X105979493Y-129345528D01*
X101280985Y-127956931D02*
X103617861Y-128667050D01*
X98968863Y-127215171D02*
X101280985Y-127956931D01*
X96681496Y-126441770D02*
X98968863Y-127215171D01*
X94418883Y-125636728D02*
X96681496Y-126441770D01*
X92181026Y-124800046D02*
X94418883Y-125636728D01*
X89967924Y-123931723D02*
X92181026Y-124800046D01*
X87779577Y-123031759D02*
X89967924Y-123931723D01*
X85632685Y-122105319D02*
X87779577Y-123031759D01*
X83543952Y-121157569D02*
X85632685Y-122105319D01*
X81513376Y-120188508D02*
X83543952Y-121157569D01*
X79540957Y-119198137D02*
X81513376Y-120188508D01*
X77626696Y-118186455D02*
X79540957Y-119198137D01*
X75770593Y-117153463D02*
X77626696Y-118186455D01*
X73972647Y-116099160D02*
X75770593Y-117153463D01*
X72232859Y-115023546D02*
X73972647Y-116099160D01*
X70546975Y-113936836D02*
X72232859Y-115023546D01*
X68910743Y-112849243D02*
X70546975Y-113936836D01*
X67324162Y-111760768D02*
X68910743Y-112849243D01*
X65787233Y-110671410D02*
X67324162Y-111760768D01*
X64299956Y-109581170D02*
X65787233Y-110671410D01*
X62862330Y-108490046D02*
X64299956Y-109581170D01*
X61474355Y-107398041D02*
X62862330Y-108490046D01*
X60136032Y-106305153D02*
X61474355Y-107398041D01*
X58855198Y-105227819D02*
X60136032Y-106305153D01*
X57639687Y-104182477D02*
X58855198Y-105227819D01*
X56489502Y-103169127D02*
X57639687Y-104182477D01*
X55404642Y-102187768D02*
X56489502Y-103169127D01*
X54385106Y-101238401D02*
X55404642Y-102187768D01*
X53430895Y-100321026D02*
X54385106Y-101238401D01*
X52542008Y-99435642D02*
X53430895Y-100321026D01*
X51718447Y-98582250D02*
X52542008Y-99435642D01*
X50947477Y-97748508D02*
X51718447Y-98582250D01*
X50216367Y-96922074D02*
X50947477Y-97748508D01*
X49525116Y-96102949D02*
X50216367Y-96922074D01*
X48873725Y-95291132D02*
X49525116Y-96102949D01*
X48262193Y-94486623D02*
X48873725Y-95291132D01*
X47690520Y-93689423D02*
X48262193Y-94486623D01*
X47158707Y-92899531D02*
X47690520Y-93689423D01*
X46666753Y-92116947D02*
X47158707Y-92899531D01*
X46213387Y-91330249D02*
X46666753Y-92116947D01*
X45797338Y-90528016D02*
X46213387Y-91330249D01*
X45418606Y-89710247D02*
X45797338Y-90528016D01*
X45077190Y-88876943D02*
X45418606Y-89710247D01*
X44773092Y-88028103D02*
X45077190Y-88876943D01*
X44506310Y-87163727D02*
X44773092Y-88028103D01*
X44276845Y-86283815D02*
X44506310Y-87163727D01*
X44084697Y-85388368D02*
X44276845Y-86283815D01*
X43933978Y-84479202D02*
X44084697Y-85388368D01*
X43828801Y-83558133D02*
X43933978Y-84479202D01*
X43769165Y-82625161D02*
X43828801Y-83558133D01*
X43755071Y-81680287D02*
X43769165Y-82625161D01*
X43786518Y-80723510D02*
X43755071Y-81680287D01*
X43863507Y-79754831D02*
X43786518Y-80723510D01*
X43986037Y-78774249D02*
X43863507Y-79754831D01*
X44154109Y-77781764D02*
X43986037Y-78774249D01*
X44367737Y-76776736D02*
X44154109Y-77781764D01*
X44626937Y-75758522D02*
X44367737Y-76776736D01*
X44931708Y-74727122D02*
X44626937Y-75758522D01*
X45282051Y-73682536D02*
X44931708Y-74727122D01*
X45677965Y-72624765D02*
X45282051Y-73682536D01*
X46119450Y-71553808D02*
X45677965Y-72624765D01*
X46606507Y-70469666D02*
X46119450Y-71553808D01*
X47139135Y-69372338D02*
X46606507Y-70469666D01*
X47713746Y-68277356D02*
X47139135Y-69372338D01*
X48326750Y-67200254D02*
X47713746Y-68277356D01*
X48978148Y-66141031D02*
X48326750Y-67200254D01*
X49667939Y-65099687D02*
X48978148Y-66141031D01*
X50396124Y-64076222D02*
X49667939Y-65099687D01*
X51162703Y-63070637D02*
X50396124Y-64076222D01*
X51967675Y-62082930D02*
X51162703Y-63070637D01*
X52811041Y-61113103D02*
X51967675Y-62082930D01*
X53682801Y-60167599D02*
X52811041Y-61113103D01*
X54572955Y-59252865D02*
X53682801Y-60167599D01*
X55481502Y-58368899D02*
X54572955Y-59252865D01*
X56408443Y-57515702D02*
X55481502Y-58368899D01*
X57353779Y-56693274D02*
X56408443Y-57515702D01*
X58317508Y-55901615D02*
X57353779Y-56693274D01*
X59299631Y-55140725D02*
X58317508Y-55901615D01*
X60300148Y-54410604D02*
X59299631Y-55140725D01*
X61321493Y-53703699D02*
X60300148Y-54410604D01*
X62366102Y-53012460D02*
X61321493Y-53703699D01*
X63433973Y-52336886D02*
X62366102Y-53012460D01*
X64525108Y-51676976D02*
X63433973Y-52336886D01*
X65639506Y-51032732D02*
X64525108Y-51676976D01*
X66777166Y-50404153D02*
X65639506Y-51032732D01*
X67938090Y-49791238D02*
X66777166Y-50404153D01*
X69122277Y-49193989D02*
X67938090Y-49791238D01*
X70338161Y-48611632D02*
X69122277Y-49193989D01*
X71594174Y-48043396D02*
X70338161Y-48611632D01*
X72890316Y-47489279D02*
X71594174Y-48043396D01*
X74226588Y-46949283D02*
X72890316Y-47489279D01*
X75602990Y-46423407D02*
X74226588Y-46949283D01*
X77019521Y-45911651D02*
X75602990Y-46423407D01*
X78476181Y-45414015D02*
X77019521Y-45911651D01*
X79972972Y-44930500D02*
X78476181Y-45414015D01*
X81495346Y-44468978D02*
X79972972Y-44930500D01*
X83028760Y-44037325D02*
X81495346Y-44468978D01*
X84573213Y-43635539D02*
X83028760Y-44037325D01*
X86128705Y-43263620D02*
X84573213Y-43635539D01*
X87695237Y-42921570D02*
X86128705Y-43263620D01*
X89272807Y-42609387D02*
X87695237Y-42921570D01*
X90861417Y-42327072D02*
X89272807Y-42609387D01*
X92461066Y-42074625D02*
X90861417Y-42327072D01*
X94089133Y-41845832D02*
X92461066Y-42074625D01*
X95762997Y-41634478D02*
X94089133Y-41845832D01*
X97482659Y-41440563D02*
X95762997Y-41634478D01*
X99248117Y-41264088D02*
X97482659Y-41440563D01*
X101059372Y-41105052D02*
X99248117Y-41264088D01*
X102916425Y-40963456D02*
X101059372Y-41105052D01*
X104819274Y-40839299D02*
X102916425Y-40963456D01*
X106767921Y-40732582D02*
X104819274Y-40839299D01*
X108804853Y-40640299D02*
X106767921Y-40732582D01*
X110972560Y-40559445D02*
X108804853Y-40640299D01*
X113271041Y-40490021D02*
X110972560Y-40559445D01*
X115700296Y-40432026D02*
X113271041Y-40490021D01*
X118260325Y-40385460D02*
X115700296Y-40432026D01*
X120951129Y-40350323D02*
X118260325Y-40385460D01*
X123772708Y-40326615D02*
X120951129Y-40350323D01*
X126725060Y-40314337D02*
X123772708Y-40326615D01*
X129755842Y-40335255D02*
X126725060Y-40314337D01*
X132812707Y-40411138D02*
X129755842Y-40335255D01*
X135895657Y-40541986D02*
X132812707Y-40411138D01*
X139004690Y-40727798D02*
X135895657Y-40541986D01*
X142139807Y-40968574D02*
X139004690Y-40727798D01*
X145301008Y-41264315D02*
X142139807Y-40968574D01*
X148488293Y-41615021D02*
X145301008Y-41264315D01*
X151701661Y-42020691D02*
X148488293Y-41615021D01*
X154971665Y-42473496D02*
X151701661Y-42020691D01*
X158328856Y-42965608D02*
X154971665Y-42473496D01*
X161773232Y-43497027D02*
X158328856Y-42965608D01*
X165304796Y-44067752D02*
X161773232Y-43497027D01*
X168923545Y-44677784D02*
X165304796Y-44067752D01*
X172629482Y-45327123D02*
X168923545Y-44677784D01*
X176422604Y-46015769D02*
X172629482Y-45327123D01*
X180302914Y-46743720D02*
X176422604Y-46015769D01*
X184308407Y-47547305D02*
X180302914Y-46743720D01*
X188477083Y-48462846D02*
X184308407Y-47547305D01*
X192808942Y-49490346D02*
X188477083Y-48462846D01*
X197303983Y-50629803D02*
X192808942Y-49490346D01*
X201962207Y-51881217D02*
X197303983Y-50629803D01*
X206783613Y-53244589D02*
X201962207Y-51881217D01*
X211768202Y-54719919D02*
X206783613Y-53244589D01*
X216915973Y-56307206D02*
X211768202Y-54719919D01*
X216951942Y-64855778D02*
X216915973Y-56307221D01*
X209952003Y-64885231D02*
X216951942Y-64855778D01*
X210048775Y-87885027D02*
X209952003Y-64885231D01*
X217048713Y-87855575D02*
X210048775Y-87885027D01*
X217096889Y-99305474D02*
X217048713Y-87855575D01*
X242096668Y-99200287D02*
X217096889Y-99305474D01*
X242146154Y-110961590D02*
X242096668Y-99200287D01*
M02*
