M48
;DRILL file {KiCad 4.0.7-e2-6376~58~ubuntu16.04.1} date Mon Jul  1 13:33:54 2019
;FORMAT={-:-/ absolute / inch / decimal}
FMAT,2
INCH,TZ
T1C0.016
T2C0.028
T3C0.039
T4C0.063
%
G90
G05
M72
T1
X1.9554Y-3.043
X2.1006Y-3.5998
X2.2174Y-2.7985
X2.2189Y-3.2537
X2.2491Y-3.0155
X2.2508Y-3.5629
X2.2604Y-3.6946
X2.4687Y-2.9136
X2.5274Y-3.4282
X2.7833Y-3.8855
X2.7906Y-3.1415
X2.7958Y-3.316
X2.8012Y-4.0448
X2.8372Y-2.2184
X2.9459Y-2.7591
X3.1245Y-3.2526
X3.1265Y-2.7828
X3.1379Y-3.0236
X3.1563Y-3.3717
X3.1719Y-2.2435
X3.1754Y-3.0153
X3.1884Y-2.679
X3.2316Y-3.7556
X3.3341Y-2.1422
X3.3637Y-4.0803
X3.3891Y-4.1371
X3.3986Y-3.9633
X3.4167Y-2.0013
X3.4682Y-4.0194
X3.4771Y-2.5968
X3.489Y-2.9482
X3.4922Y-3.6087
X3.4928Y-4.3072
X3.5026Y-2.2155
X3.5122Y-4.5356
X3.5131Y-4.2619
X3.6266Y-3.5298
X3.6674Y-2.6569
X3.669Y-3.0251
X3.6865Y-3.9317
X3.6906Y-3.7846
X3.7859Y-4.4593
X3.8247Y-2.5451
X3.8303Y-3.7324
X3.8401Y-2.4379
X3.8673Y-2.624
X3.8746Y-3.6753
X3.8932Y-3.856
X3.9406Y-4.0872
X3.9655Y-3.98
X4.0996Y-3.879
X4.1795Y-1.8545
X4.1956Y-2.5413
X4.1976Y-3.0555
X4.2044Y-4.7436
X4.2138Y-2.5794
X4.2162Y-3.5263
X4.2208Y-4.5489
X4.222Y-4.8489
X4.2463Y-3.9166
X4.2878Y-4.3631
X4.3142Y-3.9049
X4.3727Y-2.0012
X4.3768Y-2.9513
X4.3777Y-3.2062
X4.378Y-4.6982
X4.3841Y-4.5489
X4.3868Y-1.929
X4.4005Y-3.145
X4.4379Y-2.6124
X4.4449Y-3.6298
X4.4516Y-3.1468
X4.4607Y-4.1893
X4.6198Y-1.8513
X4.6235Y-2.9218
X4.6362Y-3.3462
X4.6445Y-1.9526
X4.6497Y-3.2493
X4.6574Y-2.8495
X4.6945Y-4.4839
X4.9498Y-3.4476
X4.9991Y-3.5544
X5.0026Y-3.0718
X5.0053Y-4.9009
X5.0114Y-3.2232
X5.0118Y-5.0961
X5.0272Y-4.3352
X5.0705Y-4.5013
X5.1023Y-3.8285
X5.1595Y-1.9696
X5.1641Y-3.0718
X5.1644Y-2.9877
X5.1903Y-4.777
X5.2174Y-3.1651
X5.2219Y-4.3092
X5.3519Y-4.5698
X5.3595Y-4.8858
X5.3982Y-4.8686
X5.4103Y-3.3939
X5.415Y-1.9624
X5.4301Y-4.1324
X5.4314Y-4.1659
X5.4534Y-4.1885
X5.4755Y-4.4321
X5.5114Y-2.1137
X5.5858Y-3.4695
X5.6311Y-4.8795
X5.6954Y-4.8926
X5.7552Y-2.0685
X5.7677Y-1.8516
X5.7744Y-3.1799
X5.7873Y-3.1163
X5.9467Y-1.9516
X5.9764Y-3.1574
X5.979Y-3.0163
X5.9884Y-4.9915
X6.015Y-2.0861
X6.0243Y-2.1439
X6.0948Y-3.7195
X6.1103Y-3.9595
X6.1198Y-4.8832
X6.1842Y-2.913
X6.2236Y-5.1377
X6.2341Y-5.2651
X6.3591Y-4.9346
X6.4587Y-3.4185
X6.4794Y-3.3651
X6.5067Y-3.3393
X6.5314Y-3.1634
X6.5747Y-3.235
X6.575Y-2.0746
X6.5878Y-2.2422
X6.6634Y-2.45
X6.6781Y-3.993
X6.6881Y-2.5692
X6.69Y-2.4925
X6.7401Y-2.1416
X6.7779Y-3.4946
X6.7911Y-2.0935
X6.8004Y-2.7932
X6.9109Y-2.9949
X6.9672Y-5.1472
X6.9741Y-2.1256
X7.0346Y-2.2111
X7.133Y-2.795
X7.1518Y-2.3292
X7.2748Y-2.6236
X7.3644Y-4.8572
X7.3745Y-5.2435
X7.7973Y-4.2504
X7.8418Y-4.7788
X7.9664Y-3.8815
T2
X8.1102Y-4.8819
X8.1102Y-4.9606
T3
X5.6059Y-4.0799
X5.6059Y-4.3799
X5.6059Y-4.4799
X5.6059Y-4.6799
X5.7059Y-4.0799
X5.7059Y-4.3799
X5.7059Y-4.4799
X5.7059Y-4.6799
X5.8059Y-4.0799
X5.8059Y-4.3799
X5.8059Y-4.4799
X5.8059Y-4.6799
X5.9059Y-4.0799
X5.9059Y-4.3799
X5.9059Y-4.4799
X5.9059Y-4.6799
X6.0059Y-4.0799
X6.0059Y-4.3799
X6.0059Y-4.4799
X6.0059Y-4.6799
X6.1059Y-4.0799
X6.1059Y-4.1799
X6.1059Y-4.2799
X6.1059Y-4.3799
X6.1059Y-4.4799
X6.1059Y-4.5799
X6.1059Y-4.6799
X6.2059Y-4.0799
X6.2059Y-4.3799
X6.2059Y-4.4799
X6.2059Y-4.6799
X6.3059Y-4.0799
X6.3059Y-4.3799
X6.3059Y-4.4799
X6.3059Y-4.6799
X6.4059Y-4.0799
X6.4059Y-4.3799
X6.4059Y-4.4799
X6.4059Y-4.6799
X6.5059Y-4.0799
X6.5059Y-4.6799
X6.6059Y-4.0799
X6.6059Y-4.6799
X6.7059Y-4.0799
X6.7059Y-4.6799
X6.8059Y-4.0799
X6.8059Y-4.6799
X6.9059Y-4.0799
X6.9059Y-4.6799
X7.0059Y-4.0799
X7.0059Y-4.3799
X7.0059Y-4.4799
X7.0059Y-4.6799
X7.1059Y-4.0799
X7.1059Y-4.3799
X7.1059Y-4.4799
X7.1059Y-4.6799
X7.2059Y-4.0799
X7.2059Y-4.3799
X7.2059Y-4.4799
X7.2059Y-4.6799
X7.2106Y-3.8201
X7.3059Y-4.0799
X7.3059Y-4.3799
X7.3059Y-4.4799
X7.3059Y-4.6799
X7.3106Y-3.1201
X7.3106Y-3.8201
X7.4059Y-4.0799
X7.4059Y-4.5799
X7.4059Y-4.6799
X7.4106Y-3.1201
X7.4106Y-3.8201
X7.5059Y-4.0799
X7.5059Y-4.5799
X7.5059Y-4.6799
X7.5106Y-3.1201
X7.5106Y-3.8201
X7.6059Y-4.0799
X7.6059Y-4.5799
X7.6059Y-4.6799
X7.6106Y-3.1201
X7.6106Y-3.8201
X7.7059Y-4.0799
X7.7059Y-4.5799
X7.7059Y-4.6799
X7.7106Y-3.8201
X7.8059Y-4.0799
X7.8059Y-4.5799
X7.8059Y-4.6799
X7.9059Y-4.0799
X7.9059Y-4.6799
T4
X8.378Y-4.0945G85X8.4724Y-4.0945
G05
X8.378Y-4.6457G85X8.4724Y-4.6457
G05
X8.7717Y-4.0945G85X8.8661Y-4.0945
G05
X8.7717Y-4.6457G85X8.8661Y-4.6457
G05
X8.7717Y-4.8425G85X8.8661Y-4.8425
G05
X8.7717Y-5.0394G85X8.8661Y-5.0394
G05
T0
M30
