G04 #@! TF.FileFunction,Copper,L1,Top,Signal*
%FSLAX46Y46*%
G04 Gerber Fmt 4.6, Leading zero omitted, Abs format (unit mm)*
G04 Created by KiCad (PCBNEW 4.0.7-e2-6376~58~ubuntu16.04.1) date Mon Jul  1 13:34:01 2019*
%MOMM*%
%LPD*%
G01*
G04 APERTURE LIST*
%ADD10C,0.100000*%
%ADD11C,1.905000*%
%ADD12C,1.500000*%
%ADD13O,5.000000X2.600000*%
%ADD14R,3.048000X1.778000*%
%ADD15R,1.778000X3.048000*%
%ADD16C,0.600000*%
%ADD17C,0.250000*%
G04 APERTURE END LIST*
D10*
D11*
X183150000Y-97030000D03*
X185690000Y-97030000D03*
X188230000Y-97030000D03*
X190770000Y-97030000D03*
X193310000Y-97030000D03*
X195850000Y-97030000D03*
X193310000Y-79250000D03*
X190770000Y-79250000D03*
X188230000Y-79250000D03*
X185690000Y-79250000D03*
D12*
X206000000Y-124000000D03*
X206000000Y-126000000D03*
D11*
X200810000Y-103630000D03*
X198270000Y-103630000D03*
X195730000Y-103630000D03*
X193190000Y-103630000D03*
X190650000Y-103630000D03*
X188110000Y-103630000D03*
X185570000Y-103630000D03*
X183030000Y-103630000D03*
X180490000Y-103630000D03*
X177950000Y-103630000D03*
X175410000Y-103630000D03*
X172870000Y-103630000D03*
X170330000Y-103630000D03*
X167790000Y-103630000D03*
X165250000Y-103630000D03*
X162710000Y-103630000D03*
X160170000Y-103630000D03*
X157630000Y-103630000D03*
X155090000Y-103630000D03*
X152550000Y-103630000D03*
X150010000Y-103630000D03*
X147470000Y-103630000D03*
X144930000Y-103630000D03*
X142390000Y-103630000D03*
X142390000Y-118870000D03*
X144930000Y-118870000D03*
X147470000Y-118870000D03*
X150010000Y-118870000D03*
X152550000Y-118870000D03*
X155090000Y-118870000D03*
X157630000Y-118870000D03*
X160170000Y-118870000D03*
X162710000Y-118870000D03*
X165250000Y-118870000D03*
X167790000Y-118870000D03*
X170330000Y-118870000D03*
X172870000Y-118870000D03*
X175410000Y-118870000D03*
X177950000Y-118870000D03*
X180490000Y-118870000D03*
X183030000Y-118870000D03*
X185570000Y-118870000D03*
X188110000Y-118870000D03*
X190650000Y-118870000D03*
X193190000Y-118870000D03*
X195730000Y-118870000D03*
X198270000Y-118870000D03*
X200810000Y-118870000D03*
X198270000Y-116330000D03*
X195730000Y-116330000D03*
X193190000Y-116330000D03*
X190650000Y-116330000D03*
X188110000Y-116330000D03*
X155090000Y-106170000D03*
X155090000Y-108710000D03*
X155090000Y-111250000D03*
X155090000Y-113790000D03*
X155090000Y-116330000D03*
X185570000Y-113790000D03*
X185570000Y-111250000D03*
X183030000Y-113790000D03*
X183030000Y-111250000D03*
X180490000Y-113790000D03*
X180490000Y-111250000D03*
X177950000Y-113790000D03*
X177950000Y-111250000D03*
X157630000Y-113790000D03*
X157630000Y-111250000D03*
X160170000Y-113790000D03*
X160170000Y-111250000D03*
X162710000Y-113790000D03*
X162710000Y-111250000D03*
X152550000Y-111250000D03*
X152550000Y-113790000D03*
X150010000Y-111250000D03*
X150010000Y-113790000D03*
X147470000Y-111250000D03*
X147470000Y-113790000D03*
X144930000Y-111250000D03*
X144930000Y-113790000D03*
X142390000Y-111250000D03*
X142390000Y-113790000D03*
D13*
X214000000Y-104000000D03*
X214000000Y-118000000D03*
X224000000Y-104000000D03*
X224000000Y-118000000D03*
X224000000Y-128000000D03*
X224000000Y-123000000D03*
D14*
X189389000Y-139761000D03*
X189389000Y-137221000D03*
X189389000Y-134681000D03*
X189389000Y-132141000D03*
X175419000Y-132141000D03*
X175419000Y-134681000D03*
X175419000Y-137221000D03*
X175419000Y-139761000D03*
X175080000Y-51450600D03*
X175080000Y-53990600D03*
X175080000Y-56530600D03*
X175080000Y-59070600D03*
X189050000Y-59070600D03*
X189050000Y-56530600D03*
X189050000Y-53990600D03*
X189050000Y-51450600D03*
X169377000Y-136855000D03*
X169377000Y-134315000D03*
X169377000Y-131775000D03*
X169377000Y-129235000D03*
X155407000Y-129235000D03*
X155407000Y-131775000D03*
X155407000Y-134315000D03*
X155407000Y-136855000D03*
X155169000Y-72776400D03*
X155169000Y-75316400D03*
X155169000Y-77856400D03*
X155169000Y-80396400D03*
X169139000Y-80396400D03*
X169139000Y-77856400D03*
X169139000Y-75316400D03*
X169139000Y-72776400D03*
X155063000Y-47544000D03*
X155063000Y-50084000D03*
X155063000Y-52624000D03*
X155063000Y-55164000D03*
X169033000Y-55164000D03*
X169033000Y-52624000D03*
X169033000Y-50084000D03*
X169033000Y-47544000D03*
X149361000Y-133135000D03*
X149361000Y-130595000D03*
X149361000Y-128055000D03*
X149361000Y-125515000D03*
X135391000Y-125515000D03*
X135391000Y-128055000D03*
X135391000Y-130595000D03*
X135391000Y-133135000D03*
X135170000Y-72860600D03*
X135170000Y-75400600D03*
X135170000Y-77940600D03*
X135170000Y-80480600D03*
X149140000Y-80480600D03*
X149140000Y-77940600D03*
X149140000Y-75400600D03*
X149140000Y-72860600D03*
X135050000Y-44489600D03*
X135050000Y-47029600D03*
X135050000Y-49569600D03*
X135050000Y-52109600D03*
X149020000Y-52109600D03*
X149020000Y-49569600D03*
X149020000Y-47029600D03*
X149020000Y-44489600D03*
X129343000Y-128956000D03*
X129343000Y-126416000D03*
X129343000Y-123876000D03*
X129343000Y-121336000D03*
X115373000Y-121336000D03*
X115373000Y-123876000D03*
X115373000Y-126416000D03*
X115373000Y-128956000D03*
X115170000Y-72944700D03*
X115170000Y-75484700D03*
X115170000Y-78024700D03*
X115170000Y-80564700D03*
X129140000Y-80564700D03*
X129140000Y-78024700D03*
X129140000Y-75484700D03*
X129140000Y-72944700D03*
X115045000Y-43189500D03*
X115045000Y-45729500D03*
X115045000Y-48269500D03*
X115045000Y-50809500D03*
X129015000Y-50809500D03*
X129015000Y-48269500D03*
X129015000Y-45729500D03*
X129015000Y-43189500D03*
X109319000Y-123161000D03*
X109319000Y-120621000D03*
X109319000Y-118081000D03*
X109319000Y-115541000D03*
X95349000Y-115541000D03*
X95349000Y-118081000D03*
X95349000Y-120621000D03*
X95349000Y-123161000D03*
X95289000Y-101329000D03*
X95289000Y-103869000D03*
X95289000Y-106409000D03*
X95289000Y-108949000D03*
X109259000Y-108949000D03*
X109259000Y-106409000D03*
X109259000Y-103869000D03*
X109259000Y-101329000D03*
X95229000Y-87117000D03*
X95229000Y-89657000D03*
X95229000Y-92197000D03*
X95229000Y-94737000D03*
X109199000Y-94737000D03*
X109199000Y-92197000D03*
X109199000Y-89657000D03*
X109199000Y-87117000D03*
X95169000Y-72905900D03*
X95169000Y-75445900D03*
X95169000Y-77985900D03*
X95169000Y-80525900D03*
X109139000Y-80525900D03*
X109139000Y-77985900D03*
X109139000Y-75445900D03*
X109139000Y-72905900D03*
X95110000Y-58694000D03*
X95110000Y-61234000D03*
X95110000Y-63774000D03*
X95110000Y-66314000D03*
X109080000Y-66314000D03*
X109080000Y-63774000D03*
X109080000Y-61234000D03*
X109080000Y-58694000D03*
X95050000Y-44482100D03*
X95050000Y-47022100D03*
X95050000Y-49562100D03*
X95050000Y-52102100D03*
X109020000Y-52102100D03*
X109020000Y-49562100D03*
X109020000Y-47022100D03*
X109020000Y-44482100D03*
X91285200Y-115204000D03*
X91285200Y-112664000D03*
X91285200Y-110124000D03*
X91285200Y-107584000D03*
X77315200Y-107584000D03*
X77315200Y-110124000D03*
X77315200Y-112664000D03*
X77315200Y-115204000D03*
X77253200Y-92851700D03*
X77253200Y-95391700D03*
X77253200Y-97931700D03*
X77253200Y-100471700D03*
X91223200Y-100471700D03*
X91223200Y-97931700D03*
X91223200Y-95391700D03*
X91223200Y-92851700D03*
X77191200Y-78117300D03*
X77191200Y-80657300D03*
X77191200Y-83197300D03*
X77191200Y-85737300D03*
X91161200Y-85737300D03*
X91161200Y-83197300D03*
X91161200Y-80657300D03*
X91161200Y-78117300D03*
X77129200Y-63384900D03*
X77129200Y-65924900D03*
X77129200Y-68464900D03*
X77129200Y-71004900D03*
X91099200Y-71004900D03*
X91099200Y-68464900D03*
X91099200Y-65924900D03*
X91099200Y-63384900D03*
X77067200Y-48652600D03*
X77067200Y-51192600D03*
X77067200Y-53732600D03*
X77067200Y-56272600D03*
X91037200Y-56272600D03*
X91037200Y-53732600D03*
X91037200Y-51192600D03*
X91037200Y-48652600D03*
X73232500Y-102735500D03*
X73232500Y-100195500D03*
X73232500Y-97655500D03*
X73232500Y-95115500D03*
X59262500Y-95115500D03*
X59262500Y-97655500D03*
X59262500Y-100195500D03*
X59262500Y-102735500D03*
X59184700Y-76605700D03*
X59184700Y-79145700D03*
X59184700Y-81685700D03*
X59184700Y-84225700D03*
X73154700Y-84225700D03*
X73154700Y-81685700D03*
X73154700Y-79145700D03*
X73154700Y-76605700D03*
X59106800Y-58095000D03*
X59106800Y-60635000D03*
X59106800Y-63175000D03*
X59106800Y-65715000D03*
X73076800Y-65715000D03*
X73076800Y-63175000D03*
X73076800Y-60635000D03*
X73076800Y-58095000D03*
D15*
X47764800Y-88647400D03*
X50304800Y-88647400D03*
X52844800Y-88647400D03*
X55384800Y-88647400D03*
X55384800Y-74677400D03*
X52844800Y-74677400D03*
X50304800Y-74677400D03*
X47764800Y-74677400D03*
D16*
X112721900Y-66355800D03*
X57413200Y-93844100D03*
X79412400Y-70684000D03*
X57126100Y-76593500D03*
X107207100Y-115541000D03*
X80169100Y-85641700D03*
X187312900Y-133184600D03*
X181177600Y-70992700D03*
X93151400Y-67485800D03*
X139988400Y-53688700D03*
X151800900Y-80197600D03*
X80566600Y-56985000D03*
X113071500Y-79929700D03*
X86325000Y-100667100D03*
X93638100Y-99864500D03*
X97288400Y-94804200D03*
X136131000Y-124100100D03*
X132523100Y-80393000D03*
X132636000Y-109454000D03*
X139077500Y-112575600D03*
X155441700Y-124034000D03*
X131175200Y-75887500D03*
X151867600Y-76614900D03*
X172494700Y-53175700D03*
X158347100Y-133734700D03*
X70881200Y-79793300D03*
X117343600Y-47022100D03*
X49668100Y-77291700D03*
X146500600Y-47029600D03*
X111170100Y-74962200D03*
X106158400Y-47103400D03*
X88620800Y-74885100D03*
X86785000Y-50833600D03*
X107090500Y-89568600D03*
X106791800Y-120486700D03*
X92115700Y-89657000D03*
X100090600Y-103815300D03*
X88317100Y-65957700D03*
X111200400Y-119334500D03*
X178680100Y-56163200D03*
X137540200Y-49845500D03*
X146997000Y-79155000D03*
X158079400Y-130498000D03*
X56361000Y-82643000D03*
X111424900Y-48996300D03*
X127134300Y-124483100D03*
X171199500Y-54396500D03*
X152780500Y-52986300D03*
X84686400Y-54412600D03*
X97148100Y-64644300D03*
X127067300Y-78024700D03*
X79362700Y-82614900D03*
X88716000Y-109404000D03*
X106568200Y-64549900D03*
X106618400Y-77608600D03*
X88702700Y-91662000D03*
X176966400Y-130737800D03*
X98230000Y-66649400D03*
X74825700Y-70082000D03*
X111067700Y-50829500D03*
X131052000Y-50026700D03*
X57171000Y-90496700D03*
X107029600Y-65516400D03*
X88966000Y-56272600D03*
X71013300Y-84225700D03*
X127290700Y-81868500D03*
X146671000Y-80769900D03*
X153016200Y-54454000D03*
X167330100Y-56952500D03*
X146181900Y-52540500D03*
X169623500Y-101421500D03*
X181656200Y-59160500D03*
X131833200Y-121336000D03*
X111193600Y-81437300D03*
X70696300Y-98691900D03*
X152105900Y-126785000D03*
X56322000Y-71082000D03*
X89231800Y-108252600D03*
X111355800Y-115541000D03*
X93741600Y-96128000D03*
X175536100Y-76071300D03*
X93192900Y-76836400D03*
X177141600Y-53990600D03*
X107239200Y-123161000D03*
X117435900Y-74214700D03*
X127299300Y-129441000D03*
X157079200Y-73990700D03*
X72064400Y-56347000D03*
X98414300Y-93352000D03*
X82081700Y-95391700D03*
X97537300Y-61922000D03*
X71150500Y-102736900D03*
X80984800Y-68046400D03*
X89209600Y-115204000D03*
X80655300Y-76588200D03*
X100724800Y-101091600D03*
X169924800Y-63308300D03*
X169249700Y-62230800D03*
X172729400Y-70947000D03*
X172158300Y-88762400D03*
X117970000Y-49595100D03*
X155201200Y-100570900D03*
X169878700Y-65258000D03*
X111773000Y-79884200D03*
X135937400Y-116072500D03*
X112899400Y-92197000D03*
X128790000Y-114333200D03*
X113301100Y-106409000D03*
X119239700Y-113892100D03*
X184780300Y-66639700D03*
X131167300Y-78024700D03*
X137422300Y-86204100D03*
X151046600Y-49569600D03*
X199181300Y-121381600D03*
X166997900Y-82169300D03*
X137113100Y-123663100D03*
X137924300Y-104961900D03*
X167004300Y-52693700D03*
X165898100Y-80350200D03*
X143030200Y-123939500D03*
X138515500Y-106387000D03*
X165271400Y-84818900D03*
X144661900Y-124272100D03*
X137957200Y-105813300D03*
X53354300Y-91435100D03*
X126975900Y-90282200D03*
X62705100Y-74005900D03*
X118296900Y-72378100D03*
X64196200Y-87075700D03*
X117758800Y-84994400D03*
X86082500Y-105083400D03*
X79701400Y-76800700D03*
X118103400Y-82532900D03*
X88093500Y-102093800D03*
X85437500Y-103640000D03*
X96161900Y-113266700D03*
X107855800Y-99480900D03*
X109581100Y-99183900D03*
X104130700Y-98525500D03*
X98886500Y-97941700D03*
X108911200Y-110822800D03*
X127691200Y-110114500D03*
X125725400Y-87568900D03*
X129598600Y-97243600D03*
X154808900Y-94475800D03*
X141878800Y-88124200D03*
X161521900Y-125339700D03*
X202345600Y-98590200D03*
X164051000Y-86829400D03*
X164575900Y-85472700D03*
X187056200Y-123372300D03*
X198052300Y-107961400D03*
D17*
X109080000Y-66314000D02*
X110929300Y-66314000D01*
X59262500Y-95115500D02*
X57413200Y-95115500D01*
X57413200Y-95115500D02*
X57413200Y-93844100D01*
X73076800Y-65715000D02*
X74926100Y-65715000D01*
X109080000Y-66314000D02*
X107230700Y-66314000D01*
X55384800Y-74677400D02*
X55384800Y-76526700D01*
X57059300Y-76526700D02*
X57126100Y-76593500D01*
X55384800Y-76526700D02*
X57059300Y-76526700D01*
X73154700Y-84225700D02*
X75004000Y-84225700D01*
X91161200Y-85737300D02*
X89311900Y-85737300D01*
X74926100Y-66625700D02*
X74926100Y-65715000D01*
X75513500Y-67213100D02*
X74926100Y-66625700D01*
X78759400Y-67213100D02*
X75513500Y-67213100D01*
X79412400Y-67866100D02*
X78759400Y-67213100D01*
X79412400Y-70684000D02*
X79412400Y-67866100D01*
X91099200Y-71004900D02*
X89249900Y-71004900D01*
X79412400Y-70684000D02*
X88929000Y-70684000D01*
X88929000Y-70684000D02*
X89249900Y-71004900D01*
X115373000Y-121336000D02*
X113523700Y-121336000D01*
X89216300Y-85641700D02*
X80169100Y-85641700D01*
X89311900Y-85737300D02*
X89216300Y-85641700D01*
X79050300Y-84522900D02*
X80169100Y-85641700D01*
X75301200Y-84522900D02*
X79050300Y-84522900D01*
X75004000Y-84225700D02*
X75301200Y-84522900D01*
X109139000Y-80525900D02*
X110988300Y-80525900D01*
X110971100Y-66355800D02*
X112721900Y-66355800D01*
X110929300Y-66314000D02*
X110971100Y-66355800D01*
X77315200Y-107584000D02*
X79164500Y-107584000D01*
X95349000Y-115541000D02*
X97198300Y-115541000D01*
X107207100Y-116307100D02*
X107207100Y-115541000D01*
X107655400Y-116755400D02*
X107207100Y-116307100D01*
X110878600Y-116755400D02*
X107655400Y-116755400D01*
X113523700Y-119400500D02*
X110878600Y-116755400D01*
X113523700Y-121336000D02*
X113523700Y-119400500D01*
X107207100Y-115541000D02*
X97198300Y-115541000D01*
X186719700Y-132591400D02*
X187312900Y-133184600D01*
X177718700Y-132591400D02*
X186719700Y-132591400D01*
X177268300Y-132141000D02*
X177718700Y-132591400D01*
X175419000Y-132141000D02*
X177268300Y-132141000D01*
X175419000Y-132141000D02*
X173569700Y-132141000D01*
X171878100Y-130449400D02*
X173569700Y-132141000D01*
X167694600Y-130449400D02*
X171878100Y-130449400D01*
X166480200Y-129235000D02*
X167694600Y-130449400D01*
X157256300Y-129235000D02*
X166480200Y-129235000D01*
X169139000Y-80396400D02*
X170988300Y-80396400D01*
X73076800Y-65715000D02*
X71227500Y-65715000D01*
X92916100Y-67250500D02*
X93151400Y-67485800D01*
X89438700Y-67250500D02*
X92916100Y-67250500D01*
X88929000Y-67760200D02*
X89438700Y-67250500D01*
X88929000Y-70684000D02*
X88929000Y-67760200D01*
X93207700Y-67542100D02*
X93151400Y-67485800D01*
X106002600Y-67542100D02*
X93207700Y-67542100D01*
X107230700Y-66314000D02*
X106002600Y-67542100D01*
X129015000Y-50809500D02*
X130864300Y-50809500D01*
X149020000Y-52109600D02*
X147170700Y-52109600D01*
X139988400Y-53688700D02*
X139988400Y-53323900D01*
X133378700Y-53323900D02*
X139988400Y-53323900D01*
X130864300Y-50809500D02*
X133378700Y-53323900D01*
X147170700Y-52489200D02*
X147170700Y-52109600D01*
X146336000Y-53323900D02*
X147170700Y-52489200D01*
X139988400Y-53323900D02*
X146336000Y-53323900D01*
X151272300Y-80197600D02*
X151800900Y-80197600D01*
X150989300Y-80480600D02*
X151272300Y-80197600D01*
X169139000Y-80928900D02*
X169139000Y-80396400D01*
X167230400Y-82837500D02*
X169139000Y-80928900D01*
X165628400Y-82837500D02*
X167230400Y-82837500D01*
X161972900Y-79182000D02*
X165628400Y-82837500D01*
X152816500Y-79182000D02*
X161972900Y-79182000D01*
X151800900Y-80197600D02*
X152816500Y-79182000D01*
X189050000Y-59070600D02*
X187200700Y-59070600D01*
X181177600Y-71314200D02*
X181177600Y-70992700D01*
X172095400Y-80396400D02*
X181177600Y-71314200D01*
X170988300Y-80396400D02*
X172095400Y-80396400D01*
X187200700Y-65130300D02*
X187200700Y-59070600D01*
X181338300Y-70992700D02*
X187200700Y-65130300D01*
X181177600Y-70992700D02*
X181338300Y-70992700D01*
X185875000Y-57744900D02*
X187200700Y-59070600D01*
X173348000Y-57744900D02*
X185875000Y-57744900D01*
X170882300Y-55279200D02*
X173348000Y-57744900D01*
X170882300Y-55164000D02*
X170882300Y-55279200D01*
X169033000Y-55164000D02*
X170882300Y-55164000D01*
X71227500Y-62088800D02*
X71227500Y-65715000D01*
X71466900Y-61849400D02*
X71227500Y-62088800D01*
X75112500Y-61849400D02*
X71466900Y-61849400D01*
X79976900Y-56985000D02*
X75112500Y-61849400D01*
X80566600Y-56985000D02*
X79976900Y-56985000D01*
X90324800Y-56985000D02*
X80566600Y-56985000D01*
X91037200Y-56272600D02*
X90324800Y-56985000D01*
X129015000Y-50809500D02*
X127165700Y-50809500D01*
X125873100Y-52102100D02*
X127165700Y-50809500D01*
X109020000Y-52102100D02*
X125873100Y-52102100D01*
X113071500Y-79929700D02*
X113051700Y-79909900D01*
X150064700Y-80480600D02*
X150989300Y-80480600D01*
X86081400Y-100667100D02*
X86325000Y-100667100D01*
X79164500Y-107584000D02*
X86081400Y-100667100D01*
X89178500Y-100667100D02*
X89373900Y-100471700D01*
X86325000Y-100667100D02*
X89178500Y-100667100D01*
X91223200Y-100471700D02*
X89373900Y-100471700D01*
X91223200Y-100471700D02*
X92147900Y-100471700D01*
X92755100Y-99864500D02*
X93638100Y-99864500D01*
X92147900Y-100471700D02*
X92755100Y-99864500D01*
X97355600Y-94737000D02*
X97288400Y-94804200D01*
X109199000Y-94737000D02*
X97355600Y-94737000D01*
X112435700Y-80525900D02*
X113051700Y-79909900D01*
X110988300Y-80525900D02*
X112435700Y-80525900D01*
X109259000Y-108949000D02*
X111108300Y-108949000D01*
X135391000Y-125515000D02*
X137053700Y-125515000D01*
X137053700Y-125022800D02*
X137053700Y-125515000D01*
X136131000Y-124100100D02*
X137053700Y-125022800D01*
X156331700Y-129235000D02*
X157256300Y-129235000D01*
X156331700Y-129235000D02*
X155407000Y-129235000D01*
X155407000Y-129235000D02*
X153557700Y-129235000D01*
X118328000Y-80564700D02*
X129140000Y-80564700D01*
X117067400Y-79304100D02*
X118328000Y-80564700D01*
X113556700Y-79304100D02*
X117067400Y-79304100D01*
X113051700Y-79809100D02*
X113556700Y-79304100D01*
X113051700Y-79909900D02*
X113051700Y-79809100D01*
X132351400Y-80564700D02*
X132523100Y-80393000D01*
X129140000Y-80564700D02*
X132351400Y-80564700D01*
X150064700Y-80480600D02*
X149140000Y-80480600D01*
X132523100Y-80196800D02*
X132523100Y-80393000D01*
X133453700Y-79266200D02*
X132523100Y-80196800D01*
X146076300Y-79266200D02*
X133453700Y-79266200D01*
X147290700Y-80480600D02*
X146076300Y-79266200D01*
X149140000Y-80480600D02*
X147290700Y-80480600D01*
X132131000Y-108949000D02*
X132636000Y-109454000D01*
X111108300Y-108949000D02*
X132131000Y-108949000D01*
X97701800Y-99864500D02*
X93638100Y-99864500D01*
X106786300Y-108949000D02*
X97701800Y-99864500D01*
X109259000Y-108949000D02*
X106786300Y-108949000D01*
X151163300Y-126840600D02*
X153557700Y-129235000D01*
X146345800Y-126840600D02*
X151163300Y-126840600D01*
X143963200Y-124458000D02*
X146345800Y-126840600D01*
X143963200Y-123973900D02*
X143963200Y-124458000D01*
X143303400Y-123314100D02*
X143963200Y-123973900D01*
X140242100Y-123314100D02*
X143303400Y-123314100D01*
X139910700Y-122982700D02*
X140242100Y-123314100D01*
X136820400Y-122982700D02*
X139910700Y-122982700D01*
X136131000Y-123672100D02*
X136820400Y-122982700D01*
X136131000Y-124100100D02*
X136131000Y-123672100D01*
X140594000Y-109454000D02*
X142390000Y-111250000D01*
X132636000Y-109454000D02*
X140594000Y-109454000D01*
X157407700Y-126000000D02*
X206000000Y-126000000D01*
X155441700Y-124034000D02*
X157407700Y-126000000D01*
X141620100Y-115118200D02*
X139077500Y-112575600D01*
X143601800Y-115118200D02*
X141620100Y-115118200D01*
X144930000Y-113790000D02*
X143601800Y-115118200D01*
X135170000Y-75400600D02*
X137019300Y-75400600D01*
X155169000Y-75316400D02*
X153319700Y-75316400D01*
X175080000Y-53990600D02*
X173230700Y-53990600D01*
X189389000Y-137221000D02*
X187539700Y-137221000D01*
X138233600Y-76614900D02*
X151867600Y-76614900D01*
X137019300Y-75400600D02*
X138233600Y-76614900D01*
X152021200Y-76614900D02*
X153319700Y-75316400D01*
X151867600Y-76614900D02*
X152021200Y-76614900D01*
X172889700Y-135978400D02*
X171226300Y-134315000D01*
X186297100Y-135978400D02*
X172889700Y-135978400D01*
X187539700Y-137221000D02*
X186297100Y-135978400D01*
X169377000Y-134315000D02*
X171226300Y-134315000D01*
X129343000Y-126416000D02*
X131192300Y-126416000D01*
X173230700Y-53911700D02*
X172494700Y-53175700D01*
X173230700Y-53990600D02*
X173230700Y-53911700D01*
X116094700Y-75484700D02*
X117019300Y-75484700D01*
X116094700Y-75484700D02*
X115170000Y-75484700D01*
X146297400Y-129380700D02*
X147511700Y-130595000D01*
X133755300Y-129380700D02*
X146297400Y-129380700D01*
X131192300Y-126817700D02*
X133755300Y-129380700D01*
X131192300Y-126416000D02*
X131192300Y-126817700D01*
X149361000Y-130595000D02*
X151210300Y-130595000D01*
X169377000Y-134315000D02*
X167527700Y-134315000D01*
X131175200Y-76374500D02*
X131175200Y-75887500D01*
X130850600Y-76699100D02*
X131175200Y-76374500D01*
X118233700Y-76699100D02*
X130850600Y-76699100D01*
X117019300Y-75484700D02*
X118233700Y-76699100D01*
X132833800Y-75887500D02*
X133320700Y-75400600D01*
X131175200Y-75887500D02*
X132833800Y-75887500D01*
X135170000Y-75400600D02*
X133320700Y-75400600D01*
X157713100Y-133100700D02*
X158347100Y-133734700D01*
X153716000Y-133100700D02*
X157713100Y-133100700D01*
X151210300Y-130595000D02*
X153716000Y-133100700D01*
X166947400Y-133734700D02*
X158347100Y-133734700D01*
X167527700Y-134315000D02*
X166947400Y-133734700D01*
X59184700Y-79145700D02*
X61034000Y-79145700D01*
X115045000Y-45729500D02*
X116894300Y-45729500D01*
X47469600Y-77291700D02*
X49668100Y-77291700D01*
X46550400Y-76372500D02*
X47469600Y-77291700D01*
X46550400Y-72822100D02*
X46550400Y-76372500D01*
X57257500Y-62115000D02*
X46550400Y-72822100D01*
X57257500Y-60635000D02*
X57257500Y-62115000D01*
X135050000Y-47029600D02*
X146500600Y-47029600D01*
X154138400Y-50084000D02*
X153213700Y-50084000D01*
X59184700Y-79145700D02*
X57335400Y-79145700D01*
X115170000Y-75484700D02*
X113320700Y-75484700D01*
X135050000Y-47029600D02*
X133200700Y-47029600D01*
X116894300Y-46572800D02*
X117343600Y-47022100D01*
X116894300Y-45729500D02*
X116894300Y-46572800D01*
X133193200Y-47022100D02*
X133200700Y-47029600D01*
X117343600Y-47022100D02*
X133193200Y-47022100D01*
X112798200Y-74962200D02*
X111170100Y-74962200D01*
X113320700Y-75484700D02*
X112798200Y-74962200D01*
X149361000Y-130595000D02*
X147511700Y-130595000D01*
X50304800Y-88647400D02*
X50304800Y-90496700D01*
X77253200Y-95391700D02*
X75403900Y-95391700D01*
X95050000Y-47022100D02*
X96899300Y-47022100D01*
X92758900Y-74885100D02*
X93319700Y-75445900D01*
X88620800Y-74885100D02*
X92758900Y-74885100D01*
X95169000Y-75445900D02*
X93319700Y-75445900D01*
X96980600Y-47103400D02*
X106158400Y-47103400D01*
X96899300Y-47022100D02*
X96980600Y-47103400D01*
X154138400Y-50084000D02*
X155063000Y-50084000D01*
X155063000Y-50084000D02*
X156912300Y-50084000D01*
X158126600Y-51298300D02*
X156912300Y-50084000D01*
X170617300Y-51298300D02*
X158126600Y-51298300D01*
X172494700Y-53175700D02*
X170617300Y-51298300D01*
X146500600Y-47402600D02*
X146500600Y-47029600D01*
X147341900Y-48243900D02*
X146500600Y-47402600D01*
X151373600Y-48243900D02*
X147341900Y-48243900D01*
X153213700Y-50084000D02*
X151373600Y-48243900D01*
X55037400Y-81443700D02*
X53820100Y-81443700D01*
X57335400Y-79145700D02*
X55037400Y-81443700D01*
X50304800Y-84959000D02*
X53820100Y-81443700D01*
X50304800Y-88647400D02*
X50304800Y-84959000D01*
X53820100Y-81443700D02*
X49668100Y-77291700D01*
X77067200Y-51192600D02*
X78916500Y-51192600D01*
X90360600Y-112664000D02*
X89435900Y-112664000D01*
X77191200Y-80657300D02*
X75341900Y-80657300D01*
X61681600Y-79793300D02*
X70881200Y-79793300D01*
X61034000Y-79145700D02*
X61681600Y-79793300D01*
X75044700Y-80360100D02*
X75341900Y-80657300D01*
X71448000Y-80360100D02*
X75044700Y-80360100D01*
X70881200Y-79793300D02*
X71448000Y-80360100D01*
X73232500Y-100195500D02*
X71383200Y-100195500D01*
X52611300Y-92803200D02*
X50304800Y-90496700D01*
X66188100Y-92803200D02*
X52611300Y-92803200D01*
X69096800Y-95711900D02*
X66188100Y-92803200D01*
X70933000Y-93875700D02*
X69096800Y-95711900D01*
X74875600Y-93875700D02*
X70933000Y-93875700D01*
X75403900Y-94404000D02*
X74875600Y-93875700D01*
X75403900Y-95391700D02*
X75403900Y-94404000D01*
X58182200Y-60635000D02*
X57257500Y-60635000D01*
X58182200Y-60635000D02*
X59106800Y-60635000D01*
X59106800Y-60635000D02*
X60956100Y-60635000D01*
X75217900Y-52077400D02*
X75217900Y-51192600D01*
X74253900Y-53041400D02*
X75217900Y-52077400D01*
X68549700Y-53041400D02*
X74253900Y-53041400D01*
X60956100Y-60635000D02*
X68549700Y-53041400D01*
X77067200Y-51192600D02*
X75217900Y-51192600D01*
X89759500Y-47022100D02*
X95050000Y-47022100D01*
X86366500Y-50415100D02*
X89759500Y-47022100D01*
X79694000Y-50415100D02*
X86366500Y-50415100D01*
X78916500Y-51192600D02*
X79694000Y-50415100D01*
X86366500Y-50415100D02*
X86785000Y-50833600D01*
X77253200Y-95391700D02*
X79102500Y-95391700D01*
X94304400Y-89657000D02*
X93379700Y-89657000D01*
X94304400Y-89657000D02*
X95229000Y-89657000D01*
X97166700Y-89568600D02*
X107090500Y-89568600D01*
X97078300Y-89657000D02*
X97166700Y-89568600D01*
X95229000Y-89657000D02*
X97078300Y-89657000D01*
X71304200Y-100195500D02*
X71383200Y-100195500D01*
X69096800Y-97988100D02*
X71304200Y-100195500D01*
X69096800Y-95711900D02*
X69096800Y-97988100D01*
X94364400Y-103869000D02*
X93439700Y-103869000D01*
X107335400Y-120486700D02*
X107469700Y-120621000D01*
X106791800Y-120486700D02*
X107335400Y-120486700D01*
X109319000Y-120621000D02*
X107469700Y-120621000D01*
X90360600Y-112664000D02*
X91285200Y-112664000D01*
X103060500Y-116755400D02*
X106791800Y-120486700D01*
X93636200Y-116755400D02*
X103060500Y-116755400D01*
X93134500Y-116253700D02*
X93636200Y-116755400D01*
X93134500Y-112664000D02*
X93134500Y-116253700D01*
X91285200Y-112664000D02*
X93134500Y-112664000D01*
X84837200Y-89657000D02*
X92115700Y-89657000D01*
X79102500Y-95391700D02*
X84837200Y-89657000D01*
X92115700Y-89657000D02*
X93379700Y-89657000D01*
X94364400Y-103869000D02*
X95289000Y-103869000D01*
X97192000Y-103815300D02*
X100090600Y-103815300D01*
X97138300Y-103869000D02*
X97192000Y-103815300D01*
X95289000Y-103869000D02*
X97138300Y-103869000D01*
X84812200Y-108040300D02*
X89435900Y-112664000D01*
X84812200Y-103381000D02*
X84812200Y-108040300D01*
X85178500Y-103014700D02*
X84812200Y-103381000D01*
X92585400Y-103014700D02*
X85178500Y-103014700D01*
X93439700Y-103869000D02*
X92585400Y-103014700D01*
X77129200Y-65924900D02*
X78978500Y-65924900D01*
X79011300Y-65957700D02*
X88317100Y-65957700D01*
X78978500Y-65924900D02*
X79011300Y-65957700D01*
X90298600Y-61234000D02*
X95110000Y-61234000D01*
X88317100Y-63215500D02*
X90298600Y-61234000D01*
X88317100Y-65957700D02*
X88317100Y-63215500D01*
X59184700Y-81685700D02*
X61034000Y-81685700D01*
X75127700Y-97655500D02*
X75403900Y-97931700D01*
X73232500Y-97655500D02*
X75127700Y-97655500D01*
X76266600Y-83197300D02*
X75341900Y-83197300D01*
X76441200Y-97931700D02*
X75403900Y-97931700D01*
X149361000Y-128055000D02*
X151210300Y-128055000D01*
X189389000Y-134681000D02*
X187539700Y-134681000D01*
X169377000Y-131775000D02*
X171226300Y-131775000D01*
X59106800Y-63175000D02*
X60956100Y-63175000D01*
X109319000Y-118081000D02*
X111168300Y-118081000D01*
X111168300Y-119302400D02*
X111200400Y-119334500D01*
X111168300Y-118081000D02*
X111168300Y-119302400D01*
X177296700Y-56163200D02*
X176929300Y-56530600D01*
X178680100Y-56163200D02*
X177296700Y-56163200D01*
X175080000Y-56530600D02*
X176929300Y-56530600D01*
X62248300Y-82900000D02*
X61034000Y-81685700D01*
X75044600Y-82900000D02*
X62248300Y-82900000D01*
X75341900Y-83197300D02*
X75044600Y-82900000D01*
X175080000Y-56530600D02*
X173230700Y-56530600D01*
X135050000Y-49569600D02*
X136899300Y-49569600D01*
X137175200Y-49845500D02*
X137540200Y-49845500D01*
X136899300Y-49569600D02*
X137175200Y-49845500D01*
X155169000Y-77856400D02*
X153319700Y-77856400D01*
X152021100Y-79155000D02*
X153319700Y-77856400D01*
X146997000Y-79155000D02*
X152021100Y-79155000D01*
X172842900Y-133391600D02*
X171226300Y-131775000D01*
X186250300Y-133391600D02*
X172842900Y-133391600D01*
X187539700Y-134681000D02*
X186250300Y-133391600D01*
X153653300Y-130498000D02*
X151210300Y-128055000D01*
X158079400Y-130498000D02*
X153653300Y-130498000D01*
X169377000Y-131775000D02*
X167527700Y-131775000D01*
X52844800Y-88647400D02*
X52844800Y-86798100D01*
X59184700Y-81685700D02*
X57335400Y-81685700D01*
X56378100Y-82643000D02*
X57335400Y-81685700D01*
X56361000Y-82643000D02*
X56378100Y-82643000D01*
X56361000Y-83281900D02*
X56361000Y-82643000D01*
X52844800Y-86798100D02*
X56361000Y-83281900D01*
X95169000Y-77985900D02*
X97018300Y-77985900D01*
X112151700Y-48269500D02*
X115045000Y-48269500D01*
X111424900Y-48996300D02*
X112151700Y-48269500D01*
X127493700Y-124123700D02*
X127493700Y-123876000D01*
X127134300Y-124483100D02*
X127493700Y-124123700D01*
X129343000Y-123876000D02*
X127493700Y-123876000D01*
X155063000Y-52624000D02*
X156912300Y-52624000D01*
X170641300Y-53838300D02*
X171199500Y-54396500D01*
X158126600Y-53838300D02*
X170641300Y-53838300D01*
X156912300Y-52624000D02*
X158126600Y-53838300D01*
X173230700Y-56427700D02*
X173230700Y-56530600D01*
X171199500Y-54396500D02*
X173230700Y-56427700D01*
X166250700Y-130498000D02*
X167527700Y-131775000D01*
X158079400Y-130498000D02*
X166250700Y-130498000D01*
X91285200Y-110124000D02*
X89435900Y-110124000D01*
X95289000Y-106409000D02*
X93439700Y-106409000D01*
X95050000Y-49562100D02*
X93200700Y-49562100D01*
X152851400Y-52986300D02*
X153213700Y-52624000D01*
X152780500Y-52986300D02*
X152851400Y-52986300D01*
X155063000Y-52624000D02*
X153213700Y-52624000D01*
X79596500Y-54412600D02*
X78916500Y-53732600D01*
X84686400Y-54412600D02*
X79596500Y-54412600D01*
X77067200Y-53732600D02*
X78916500Y-53732600D01*
X73767500Y-53732600D02*
X77067200Y-53732600D01*
X69974600Y-57525500D02*
X73767500Y-53732600D01*
X69974600Y-63175000D02*
X69974600Y-57525500D01*
X60956100Y-63175000D02*
X69974600Y-63175000D01*
X72893100Y-68464900D02*
X77129200Y-68464900D01*
X69974600Y-65546400D02*
X72893100Y-68464900D01*
X69974600Y-63175000D02*
X69974600Y-65546400D01*
X92895800Y-49867000D02*
X93200700Y-49562100D01*
X89462800Y-49867000D02*
X92895800Y-49867000D01*
X89012100Y-50317700D02*
X89462800Y-49867000D01*
X89012100Y-50614400D02*
X89012100Y-50317700D01*
X85213900Y-54412600D02*
X89012100Y-50614400D01*
X84686400Y-54412600D02*
X85213900Y-54412600D01*
X95110000Y-63774000D02*
X96959300Y-63774000D01*
X115170000Y-78024700D02*
X127067300Y-78024700D01*
X145782600Y-77940600D02*
X135170000Y-77940600D01*
X146997000Y-79155000D02*
X145782600Y-77940600D01*
X127067300Y-78912100D02*
X127067300Y-78024700D01*
X127394200Y-79239000D02*
X127067300Y-78912100D01*
X132022300Y-79239000D02*
X127394200Y-79239000D01*
X133320700Y-77940600D02*
X132022300Y-79239000D01*
X135170000Y-77940600D02*
X133320700Y-77940600D01*
X76266600Y-83197300D02*
X77191200Y-83197300D01*
X77191200Y-83197300D02*
X79040500Y-83197300D01*
X115170000Y-78024700D02*
X113320700Y-78024700D01*
X79040500Y-82937100D02*
X79362700Y-82614900D01*
X79040500Y-83197300D02*
X79040500Y-82937100D01*
X97148100Y-64549900D02*
X97148100Y-64644300D01*
X96959300Y-64361100D02*
X97148100Y-64549900D01*
X96959300Y-63774000D02*
X96959300Y-64361100D01*
X97148100Y-64549900D02*
X106568200Y-64549900D01*
X97395600Y-77608600D02*
X106618400Y-77608600D01*
X97018300Y-77985900D02*
X97395600Y-77608600D01*
X112067500Y-76771500D02*
X113320700Y-78024700D01*
X107455500Y-76771500D02*
X112067500Y-76771500D01*
X106618400Y-77608600D02*
X107455500Y-76771500D01*
X88716000Y-109404100D02*
X88716000Y-109404000D01*
X89435900Y-110124000D02*
X88716000Y-109404100D01*
X88605000Y-109293000D02*
X88716000Y-109404000D01*
X88605000Y-107374800D02*
X88605000Y-109293000D01*
X89610200Y-106369600D02*
X88605000Y-107374800D01*
X93400300Y-106369600D02*
X89610200Y-106369600D01*
X93439700Y-106409000D02*
X93400300Y-106369600D01*
X93379700Y-92119400D02*
X93379700Y-92197000D01*
X92837700Y-91577400D02*
X93379700Y-92119400D01*
X88787300Y-91577400D02*
X92837700Y-91577400D01*
X88702700Y-91662000D02*
X88787300Y-91577400D01*
X95229000Y-92197000D02*
X93379700Y-92197000D01*
X76441200Y-97931700D02*
X77253200Y-97931700D01*
X84868000Y-91662000D02*
X88702700Y-91662000D01*
X79102500Y-97427500D02*
X84868000Y-91662000D01*
X79102500Y-97931700D02*
X79102500Y-97427500D01*
X77253200Y-97931700D02*
X79102500Y-97931700D01*
X93439700Y-107889200D02*
X93439700Y-108949000D01*
X93134500Y-107584000D02*
X93439700Y-107889200D01*
X95289000Y-108949000D02*
X93439700Y-108949000D01*
X115170000Y-80564700D02*
X117019300Y-80564700D01*
X189389000Y-132141000D02*
X187539700Y-132141000D01*
X178369600Y-132141000D02*
X176966400Y-130737800D01*
X187539700Y-132141000D02*
X178369600Y-132141000D01*
X92097300Y-107584000D02*
X93134500Y-107584000D01*
X95110000Y-66314000D02*
X96959300Y-66314000D01*
X97294700Y-66649400D02*
X96959300Y-66314000D01*
X98230000Y-66649400D02*
X97294700Y-66649400D01*
X169377000Y-129235000D02*
X171226300Y-129235000D01*
X175463600Y-129235000D02*
X176966400Y-130737800D01*
X171226300Y-129235000D02*
X175463600Y-129235000D01*
X77129200Y-71004900D02*
X75279900Y-71004900D01*
X95974700Y-52102100D02*
X96899300Y-52102100D01*
X131117800Y-50026700D02*
X131052000Y-50026700D01*
X133200700Y-52109600D02*
X131117800Y-50026700D01*
X124126100Y-50809500D02*
X115045000Y-50809500D01*
X125340500Y-49595100D02*
X124126100Y-50809500D01*
X130686200Y-49595100D02*
X125340500Y-49595100D01*
X131052000Y-49960900D02*
X130686200Y-49595100D01*
X131052000Y-50026700D02*
X131052000Y-49960900D01*
X74825700Y-70550700D02*
X74825700Y-70082000D01*
X75279900Y-71004900D02*
X74825700Y-70550700D01*
X65323100Y-70082000D02*
X60956100Y-65715000D01*
X74825700Y-70082000D02*
X65323100Y-70082000D01*
X98171900Y-50829500D02*
X111067700Y-50829500D01*
X96899300Y-52102100D02*
X98171900Y-50829500D01*
X113175700Y-50829500D02*
X113195700Y-50809500D01*
X111067700Y-50829500D02*
X113175700Y-50829500D01*
X115045000Y-50809500D02*
X113195700Y-50809500D01*
X95974700Y-52102100D02*
X95050000Y-52102100D01*
X95050000Y-52102100D02*
X93200700Y-52102100D01*
X77067200Y-56272600D02*
X88966000Y-56272600D01*
X88966000Y-52856500D02*
X88966000Y-56272600D01*
X89415500Y-52407000D02*
X88966000Y-52856500D01*
X92895800Y-52407000D02*
X89415500Y-52407000D01*
X93200700Y-52102100D02*
X92895800Y-52407000D01*
X55384800Y-90496700D02*
X57171000Y-90496700D01*
X59184700Y-84225700D02*
X61034000Y-84225700D01*
X61034000Y-84225700D02*
X71013300Y-84225700D01*
X92097300Y-107584000D02*
X91285200Y-107584000D01*
X118323100Y-81868500D02*
X127290700Y-81868500D01*
X117019300Y-80564700D02*
X118323100Y-81868500D01*
X131932800Y-81868500D02*
X133320700Y-80480600D01*
X127290700Y-81868500D02*
X131932800Y-81868500D01*
X135170000Y-80480600D02*
X133320700Y-80480600D01*
X135170000Y-80480600D02*
X137019300Y-80480600D01*
X134125400Y-52109600D02*
X133200700Y-52109600D01*
X155169000Y-80396400D02*
X153319700Y-80396400D01*
X137308600Y-80769900D02*
X146671000Y-80769900D01*
X137019300Y-80480600D02*
X137308600Y-80769900D01*
X152021100Y-81695000D02*
X153319700Y-80396400D01*
X147480300Y-81695000D02*
X152021100Y-81695000D01*
X146671000Y-80885700D02*
X147480300Y-81695000D01*
X146671000Y-80769900D02*
X146671000Y-80885700D01*
X153213700Y-54651500D02*
X153016200Y-54454000D01*
X153213700Y-55164000D02*
X153213700Y-54651500D01*
X154138400Y-55164000D02*
X153213700Y-55164000D01*
X154138400Y-55164000D02*
X155063000Y-55164000D01*
X155063000Y-55164000D02*
X156912300Y-55164000D01*
X158700800Y-56952500D02*
X167330100Y-56952500D01*
X156912300Y-55164000D02*
X158700800Y-56952500D01*
X171112600Y-56952500D02*
X167330100Y-56952500D01*
X173230700Y-59070600D02*
X171112600Y-56952500D01*
X77253200Y-100471700D02*
X75403900Y-100471700D01*
X73232500Y-95115500D02*
X71383200Y-95115500D01*
X134125400Y-52109600D02*
X135050000Y-52109600D01*
X137330200Y-52540500D02*
X146181900Y-52540500D01*
X136899300Y-52109600D02*
X137330200Y-52540500D01*
X135050000Y-52109600D02*
X136899300Y-52109600D01*
X174155400Y-59070600D02*
X173230700Y-59070600D01*
X115170000Y-80564700D02*
X113320700Y-80564700D01*
X95169000Y-80525900D02*
X97018300Y-80525900D01*
X174155400Y-59070600D02*
X175080000Y-59070600D01*
X181566300Y-59070600D02*
X181656200Y-59160500D01*
X175080000Y-59070600D02*
X181566300Y-59070600D01*
X112448100Y-81437300D02*
X113320700Y-80564700D01*
X111193600Y-81437300D02*
X112448100Y-81437300D01*
X129343000Y-121336000D02*
X131833200Y-121336000D01*
X97655300Y-80525900D02*
X97018300Y-80525900D01*
X98869600Y-81740200D02*
X97655300Y-80525900D01*
X110890700Y-81740200D02*
X98869600Y-81740200D01*
X111193600Y-81437300D02*
X110890700Y-81740200D01*
X99363000Y-65516400D02*
X107029600Y-65516400D01*
X98230000Y-66649400D02*
X99363000Y-65516400D01*
X71672400Y-98981100D02*
X71383200Y-98691900D01*
X74949200Y-98981100D02*
X71672400Y-98981100D01*
X75403900Y-99435800D02*
X74949200Y-98981100D01*
X75403900Y-100471700D02*
X75403900Y-99435800D01*
X71383200Y-98691900D02*
X71383200Y-95115500D01*
X149361000Y-125515000D02*
X151210300Y-125515000D01*
X151210300Y-125889400D02*
X152105900Y-126785000D01*
X151210300Y-125515000D02*
X151210300Y-125889400D01*
X166313400Y-128020700D02*
X167527700Y-129235000D01*
X153341600Y-128020700D02*
X166313400Y-128020700D01*
X152105900Y-126785000D02*
X153341600Y-128020700D01*
X169377000Y-129235000D02*
X167527700Y-129235000D01*
X59106800Y-65715000D02*
X60297900Y-65715000D01*
X60297900Y-65715000D02*
X60956100Y-65715000D01*
X56322000Y-69690900D02*
X56322000Y-71082000D01*
X60297900Y-65715000D02*
X56322000Y-69690900D01*
X91285200Y-107584000D02*
X89435900Y-107584000D01*
X89435900Y-108048500D02*
X89435900Y-107584000D01*
X89231800Y-108252600D02*
X89435900Y-108048500D01*
X71769000Y-85737300D02*
X77191200Y-85737300D01*
X71013300Y-84981600D02*
X71769000Y-85737300D01*
X71013300Y-84225700D02*
X71013300Y-84981600D01*
X109319000Y-115541000D02*
X111168300Y-115541000D01*
X111168300Y-115541000D02*
X111355800Y-115541000D01*
X121698700Y-115541000D02*
X127493700Y-121336000D01*
X111355800Y-115541000D02*
X121698700Y-115541000D01*
X129343000Y-121336000D02*
X127493700Y-121336000D01*
X170330000Y-102128000D02*
X170330000Y-103630000D01*
X169623500Y-101421500D02*
X170330000Y-102128000D01*
X55384800Y-89572000D02*
X55384800Y-90496700D01*
X55384800Y-89572000D02*
X55384800Y-88647400D01*
X57335400Y-84847500D02*
X57335400Y-84225700D01*
X55384800Y-86798100D02*
X57335400Y-84847500D01*
X55384800Y-88647400D02*
X55384800Y-86798100D01*
X59184700Y-84225700D02*
X57335400Y-84225700D01*
X95132600Y-94737000D02*
X95229000Y-94737000D01*
X93741600Y-96128000D02*
X95132600Y-94737000D01*
X71383200Y-98691900D02*
X70696300Y-98691900D01*
X52844800Y-74677400D02*
X52844800Y-72828100D01*
X92188500Y-72828100D02*
X52844800Y-72828100D01*
X93827700Y-71188900D02*
X92188500Y-72828100D01*
X170653700Y-71188900D02*
X93827700Y-71188900D01*
X175536100Y-76071300D02*
X170653700Y-71188900D01*
X73076800Y-60635000D02*
X74813500Y-60635000D01*
X74926100Y-60522400D02*
X74926100Y-58095000D01*
X74813500Y-60635000D02*
X74926100Y-60522400D01*
X73154700Y-79145700D02*
X71305400Y-79145700D01*
X91037200Y-48652600D02*
X91961900Y-48652600D01*
X91037200Y-51192600D02*
X92886500Y-51192600D01*
X73076800Y-58095000D02*
X74001500Y-58095000D01*
X74001500Y-58095000D02*
X74926100Y-58095000D01*
X129140000Y-75484700D02*
X127290700Y-75484700D01*
X115373000Y-128956000D02*
X117222300Y-128956000D01*
X149020000Y-44489600D02*
X148095400Y-44489600D01*
X149020000Y-47029600D02*
X147170700Y-47029600D01*
X133541700Y-133135000D02*
X133541700Y-130595000D01*
X135391000Y-130595000D02*
X133541700Y-130595000D01*
X134951900Y-133135000D02*
X133541700Y-133135000D01*
X134951900Y-133135000D02*
X135391000Y-133135000D01*
X155407000Y-134315000D02*
X153557700Y-134315000D01*
X155329400Y-136855000D02*
X153557700Y-136855000D01*
X155329400Y-136855000D02*
X155407000Y-136855000D01*
X155407000Y-136855000D02*
X157256300Y-136855000D01*
X189050000Y-51450600D02*
X188125400Y-51450600D01*
X149020000Y-44489600D02*
X150869300Y-44489600D01*
X175419000Y-137221000D02*
X173569700Y-137221000D01*
X158495400Y-138094100D02*
X173569700Y-138094100D01*
X157256300Y-136855000D02*
X158495400Y-138094100D01*
X173569700Y-139761000D02*
X173569700Y-138094100D01*
X173569700Y-138094100D02*
X173569700Y-137221000D01*
X175419000Y-139761000D02*
X173569700Y-139761000D01*
X109020000Y-47022100D02*
X110869300Y-47022100D01*
X109020000Y-44482100D02*
X110869300Y-44482100D01*
X110869300Y-47022100D02*
X110869300Y-44482100D01*
X189050000Y-53990600D02*
X187313300Y-53990600D01*
X187313300Y-53990600D02*
X177141600Y-53990600D01*
X187313300Y-52262700D02*
X187313300Y-53990600D01*
X188125400Y-51450600D02*
X187313300Y-52262700D01*
X91037200Y-51192600D02*
X89187900Y-51192600D01*
X95349000Y-123161000D02*
X96134300Y-123161000D01*
X96134300Y-123161000D02*
X96919600Y-123161000D01*
X97198300Y-122097000D02*
X97198300Y-120621000D01*
X96134300Y-123161000D02*
X97198300Y-122097000D01*
X95349000Y-120621000D02*
X97198300Y-120621000D01*
X109080000Y-61234000D02*
X108155400Y-61234000D01*
X109080000Y-58694000D02*
X107230700Y-58694000D01*
X129015000Y-45729500D02*
X127165700Y-45729500D01*
X129015000Y-45729500D02*
X130864300Y-45729500D01*
X147170700Y-45729500D02*
X130864300Y-45729500D01*
X147170700Y-45414300D02*
X147170700Y-45729500D01*
X148095400Y-44489600D02*
X147170700Y-45414300D01*
X147170700Y-45729500D02*
X147170700Y-47029600D01*
X149140000Y-72860600D02*
X147290700Y-72860600D01*
X149140000Y-72860600D02*
X150989300Y-72860600D01*
X149140000Y-75400600D02*
X147290700Y-75400600D01*
X110869300Y-44482100D02*
X125918300Y-44482100D01*
X125918300Y-44482100D02*
X127165700Y-45729500D01*
X127165700Y-43234700D02*
X127165700Y-43189500D01*
X125918300Y-44482100D02*
X127165700Y-43234700D01*
X129015000Y-43189500D02*
X127165700Y-43189500D01*
X128092600Y-130595000D02*
X133541700Y-130595000D01*
X127299300Y-129801700D02*
X128092600Y-130595000D01*
X127299300Y-129441000D02*
X127299300Y-129801700D01*
X117707300Y-129441000D02*
X127299300Y-129441000D01*
X117222300Y-128956000D02*
X117707300Y-129441000D01*
X135391000Y-133135000D02*
X137240300Y-133135000D01*
X138472900Y-134367600D02*
X137240300Y-133135000D01*
X153557700Y-134367600D02*
X138472900Y-134367600D01*
X153557700Y-136855000D02*
X153557700Y-134367600D01*
X153557700Y-134367600D02*
X153557700Y-134315000D01*
X91099200Y-63384900D02*
X91850700Y-63384900D01*
X91099200Y-65924900D02*
X92948500Y-65924900D01*
X117435900Y-74214800D02*
X117435900Y-74214700D01*
X126020800Y-74214800D02*
X117435900Y-74214800D01*
X127290700Y-75484700D02*
X126020800Y-74214800D01*
X146160400Y-73990900D02*
X146160400Y-74111600D01*
X147290700Y-72860600D02*
X146160400Y-73990900D01*
X146160400Y-74270300D02*
X147290700Y-75400600D01*
X146160400Y-74111600D02*
X146160400Y-74270300D01*
X130306900Y-74317800D02*
X129140000Y-75484700D01*
X130306900Y-74111600D02*
X130306900Y-74317800D01*
X146160400Y-74111600D02*
X130306900Y-74111600D01*
X130306900Y-74111600D02*
X129140000Y-72944700D01*
X152119400Y-73990700D02*
X157079200Y-73990700D01*
X150989300Y-72860600D02*
X152119400Y-73990700D01*
X169139000Y-72776400D02*
X167289700Y-72776400D01*
X157079200Y-73990700D02*
X166075400Y-73990700D01*
X166075400Y-73990700D02*
X167289700Y-72776400D01*
X167289700Y-75205000D02*
X167289700Y-75316400D01*
X166075400Y-73990700D02*
X167289700Y-75205000D01*
X169139000Y-75316400D02*
X167289700Y-75316400D01*
X164129300Y-44489600D02*
X167183700Y-47544000D01*
X150869300Y-44489600D02*
X164129300Y-44489600D01*
X177141600Y-53155600D02*
X177141600Y-53990600D01*
X176651000Y-52665000D02*
X177141600Y-53155600D01*
X173388900Y-52665000D02*
X176651000Y-52665000D01*
X170882300Y-50158400D02*
X173388900Y-52665000D01*
X170882300Y-50084000D02*
X170882300Y-50158400D01*
X169033000Y-50084000D02*
X170882300Y-50084000D01*
X73076800Y-57359400D02*
X72064400Y-56347000D01*
X73076800Y-58095000D02*
X73076800Y-57359400D01*
X91223200Y-92851700D02*
X93072500Y-92851700D01*
X91223200Y-95391700D02*
X89373900Y-95391700D01*
X108155400Y-61234000D02*
X107230700Y-60309300D01*
X107230700Y-60309300D02*
X107230700Y-58694000D01*
X91850800Y-63384900D02*
X92193900Y-63727900D01*
X91850700Y-63384900D02*
X91850800Y-63384900D01*
X92948500Y-64482600D02*
X92948500Y-65924900D01*
X92193900Y-63727900D02*
X92948500Y-64482600D01*
X93362200Y-62559600D02*
X92193900Y-63727900D01*
X96899700Y-62559600D02*
X93362200Y-62559600D01*
X97537300Y-61922000D02*
X96899700Y-62559600D01*
X105618000Y-61922000D02*
X97537300Y-61922000D01*
X107230700Y-60309300D02*
X105618000Y-61922000D01*
X109020000Y-47022100D02*
X107170700Y-47022100D01*
X105714400Y-48478400D02*
X107170700Y-47022100D01*
X96948000Y-48478400D02*
X105714400Y-48478400D01*
X96810000Y-48340400D02*
X96948000Y-48478400D01*
X92274100Y-48340400D02*
X96810000Y-48340400D01*
X91961900Y-48652600D02*
X92274100Y-48340400D01*
X93302600Y-50776500D02*
X92886500Y-51192600D01*
X96719600Y-50776500D02*
X93302600Y-50776500D01*
X96948000Y-50548100D02*
X96719600Y-50776500D01*
X96948000Y-48478400D02*
X96948000Y-50548100D01*
X93010500Y-77140200D02*
X93253600Y-76897100D01*
X93010500Y-78117300D02*
X93010500Y-77140200D01*
X93253600Y-76897100D02*
X93192900Y-76836400D01*
X105964100Y-76771500D02*
X107289700Y-75445900D01*
X93379200Y-76771500D02*
X105964100Y-76771500D01*
X93253600Y-76897100D02*
X93379200Y-76771500D01*
X109139000Y-75445900D02*
X107289700Y-75445900D01*
X109139000Y-72905900D02*
X110988300Y-72905900D01*
X109510800Y-75445900D02*
X109139000Y-75445900D01*
X110988300Y-73968400D02*
X109510800Y-75445900D01*
X110988300Y-72905900D02*
X110988300Y-73968400D01*
X111234600Y-74214700D02*
X117435900Y-74214700D01*
X110988300Y-73968400D02*
X111234600Y-74214700D01*
X169033000Y-47544000D02*
X168108400Y-47544000D01*
X168108400Y-47544000D02*
X167183700Y-47544000D01*
X167183700Y-48468700D02*
X167183700Y-50084000D01*
X168108400Y-47544000D02*
X167183700Y-48468700D01*
X169033000Y-50084000D02*
X167183700Y-50084000D01*
X109199000Y-87117000D02*
X107349700Y-87117000D01*
X96919600Y-123161000D02*
X107239200Y-123161000D01*
X115373000Y-126416000D02*
X113523700Y-126416000D01*
X113523700Y-126416000D02*
X113523700Y-128956000D01*
X109638900Y-126416000D02*
X113523700Y-126416000D01*
X107239200Y-124016300D02*
X109638900Y-126416000D01*
X107239200Y-123161000D02*
X107239200Y-124016300D01*
X115373000Y-128956000D02*
X113523700Y-128956000D01*
X91099200Y-65924900D02*
X89249900Y-65924900D01*
X85342600Y-55037900D02*
X89187900Y-51192600D01*
X75418300Y-55037900D02*
X85342600Y-55037900D01*
X74001500Y-56454700D02*
X75418300Y-55037900D01*
X74001500Y-58095000D02*
X74001500Y-56454700D01*
X91161200Y-78117300D02*
X91501400Y-78117300D01*
X91501400Y-78117300D02*
X93010500Y-78117300D01*
X93010500Y-79626400D02*
X93010500Y-80657300D01*
X91501400Y-78117300D02*
X93010500Y-79626400D01*
X91161200Y-80657300D02*
X93010500Y-80657300D01*
X77315200Y-115204000D02*
X78455200Y-115204000D01*
X78455200Y-115204000D02*
X89209600Y-115204000D01*
X89209600Y-116330900D02*
X93499700Y-120621000D01*
X89209600Y-115204000D02*
X89209600Y-116330900D01*
X95349000Y-120621000D02*
X93499700Y-120621000D01*
X77315200Y-112664000D02*
X76390600Y-112664000D01*
X76390600Y-112664000D02*
X75465900Y-112664000D01*
X76390600Y-113139400D02*
X78455200Y-115204000D01*
X76390600Y-112664000D02*
X76390600Y-113139400D01*
X73154700Y-76605700D02*
X75004000Y-76605700D01*
X91161200Y-78117300D02*
X89311900Y-78117300D01*
X87782800Y-76588200D02*
X89311900Y-78117300D01*
X80655300Y-76588200D02*
X87782800Y-76588200D01*
X73154700Y-76605700D02*
X71305400Y-76605700D01*
X89373900Y-95391700D02*
X82081700Y-95391700D01*
X75434300Y-76175400D02*
X75004000Y-76605700D01*
X80242500Y-76175400D02*
X75434300Y-76175400D01*
X80655300Y-76588200D02*
X80242500Y-76175400D01*
X107715800Y-89657000D02*
X109199000Y-89657000D01*
X107349700Y-88943400D02*
X107349700Y-87117000D01*
X107715800Y-89309500D02*
X107349700Y-88943400D01*
X107715800Y-89657000D02*
X107715800Y-89309500D01*
X71150500Y-108348600D02*
X71150500Y-102736900D01*
X75465900Y-112664000D02*
X71150500Y-108348600D01*
X61113200Y-102736900D02*
X61111800Y-102735500D01*
X71150500Y-102736900D02*
X61113200Y-102736900D01*
X59262500Y-102735500D02*
X60187200Y-102735500D01*
X60187200Y-102735500D02*
X61111800Y-102735500D01*
X61111800Y-101810900D02*
X61111800Y-100195500D01*
X60187200Y-102735500D02*
X61111800Y-101810900D01*
X59262500Y-100195500D02*
X61111800Y-100195500D01*
X87128400Y-68046400D02*
X89249900Y-65924900D01*
X80984800Y-68046400D02*
X87128400Y-68046400D01*
X51598200Y-77820100D02*
X70562000Y-77820100D01*
X50304800Y-76526700D02*
X51598200Y-77820100D01*
X71305400Y-77076700D02*
X70562000Y-77820100D01*
X71305400Y-76605700D02*
X71305400Y-77076700D01*
X71305400Y-78563500D02*
X71305400Y-79145700D01*
X70562000Y-77820100D02*
X71305400Y-78563500D01*
X50304800Y-74677400D02*
X50304800Y-76526700D01*
X47764800Y-72828100D02*
X50304800Y-72828100D01*
X47764800Y-74677400D02*
X47764800Y-72828100D01*
X50304800Y-74677400D02*
X50304800Y-72828100D01*
X91223200Y-95391700D02*
X93072500Y-95391700D01*
X93072500Y-93831200D02*
X93072500Y-95391700D01*
X93492300Y-93411400D02*
X93072500Y-93831200D01*
X93072500Y-92991600D02*
X93492300Y-93411400D01*
X93072500Y-92851700D02*
X93072500Y-92991600D01*
X98354900Y-93411400D02*
X98414300Y-93352000D01*
X93492300Y-93411400D02*
X98354900Y-93411400D01*
X107715800Y-89827700D02*
X107715800Y-89657000D01*
X104191500Y-93352000D02*
X107715800Y-89827700D01*
X98414300Y-93352000D02*
X104191500Y-93352000D01*
X109259000Y-103869000D02*
X107409700Y-103869000D01*
X109259000Y-101329000D02*
X107409700Y-101329000D01*
X107409700Y-103869000D02*
X107409700Y-101329000D01*
X107172300Y-101091600D02*
X100724800Y-101091600D01*
X107409700Y-101329000D02*
X107172300Y-101091600D01*
X73076800Y-63175000D02*
X74926100Y-63175000D01*
X116758100Y-63308300D02*
X169924800Y-63308300D01*
X110929400Y-57479600D02*
X116758100Y-63308300D01*
X107230900Y-57479600D02*
X110929400Y-57479600D01*
X104690900Y-60019600D02*
X107230900Y-57479600D01*
X77579200Y-60019600D02*
X104690900Y-60019600D01*
X74926100Y-62672700D02*
X77579200Y-60019600D01*
X74926100Y-63175000D02*
X74926100Y-62672700D01*
X73154700Y-81685700D02*
X75004000Y-81685700D01*
X75190000Y-81871700D02*
X75004000Y-81685700D01*
X82209400Y-81871700D02*
X75190000Y-81871700D01*
X84755100Y-84417400D02*
X82209400Y-81871700D01*
X116936100Y-84417400D02*
X84755100Y-84417400D01*
X117017300Y-84336200D02*
X116936100Y-84417400D01*
X121336600Y-84336200D02*
X117017300Y-84336200D01*
X126657300Y-89656900D02*
X121336600Y-84336200D01*
X127235000Y-89656900D02*
X126657300Y-89656900D01*
X127601200Y-90023100D02*
X127235000Y-89656900D01*
X127601200Y-96856200D02*
X127601200Y-90023100D01*
X129064300Y-98319300D02*
X127601200Y-96856200D01*
X177061400Y-98319300D02*
X129064300Y-98319300D01*
X180433700Y-101691600D02*
X177061400Y-98319300D01*
X191251600Y-101691600D02*
X180433700Y-101691600D01*
X193190000Y-103630000D02*
X191251600Y-101691600D01*
X189162000Y-102142000D02*
X190650000Y-103630000D01*
X179638900Y-102142000D02*
X189162000Y-102142000D01*
X176266500Y-98769600D02*
X179638900Y-102142000D01*
X127538800Y-98769600D02*
X176266500Y-98769600D01*
X125107200Y-96338000D02*
X127538800Y-98769600D01*
X94483800Y-96338000D02*
X125107200Y-96338000D01*
X94049200Y-96772600D02*
X94483800Y-96338000D01*
X93008500Y-96772600D02*
X94049200Y-96772600D01*
X92932800Y-96696900D02*
X93008500Y-96772600D01*
X84091800Y-96696900D02*
X92932800Y-96696900D01*
X79102600Y-101686100D02*
X84091800Y-96696900D01*
X75455000Y-101686100D02*
X79102600Y-101686100D01*
X75178800Y-101409900D02*
X75455000Y-101686100D01*
X69418900Y-101409900D02*
X75178800Y-101409900D01*
X65664500Y-97655500D02*
X69418900Y-101409900D01*
X59262500Y-97655500D02*
X65664500Y-97655500D01*
X91037200Y-53732600D02*
X92886500Y-53732600D01*
X169249700Y-62230700D02*
X169249700Y-62230800D01*
X143599300Y-62230700D02*
X169249700Y-62230700D01*
X135682700Y-54314100D02*
X143599300Y-62230700D01*
X93468000Y-54314100D02*
X135682700Y-54314100D01*
X92886500Y-53732600D02*
X93468000Y-54314100D01*
X170247300Y-68464900D02*
X172729400Y-70947000D01*
X91099200Y-68464900D02*
X170247300Y-68464900D01*
X91161200Y-83197300D02*
X93010500Y-83197300D01*
X122238200Y-83197300D02*
X93010500Y-83197300D01*
X127803300Y-88762400D02*
X122238200Y-83197300D01*
X172158300Y-88762400D02*
X127803300Y-88762400D01*
X91223200Y-97931700D02*
X93072500Y-97931700D01*
X93527000Y-97931700D02*
X93072500Y-97931700D01*
X94670400Y-96788300D02*
X93527000Y-97931700D01*
X124920600Y-96788300D02*
X94670400Y-96788300D01*
X127577500Y-99445200D02*
X124920600Y-96788300D01*
X176305200Y-99445200D02*
X127577500Y-99445200D01*
X180490000Y-103630000D02*
X176305200Y-99445200D01*
X77315200Y-110124000D02*
X75465900Y-110124000D01*
X75465900Y-106548900D02*
X75465900Y-110124000D01*
X82775700Y-99239100D02*
X75465900Y-106548900D01*
X95659100Y-99239100D02*
X82775700Y-99239100D01*
X97597100Y-97301100D02*
X95659100Y-99239100D01*
X124796500Y-97301100D02*
X97597100Y-97301100D01*
X127390900Y-99895500D02*
X124796500Y-97301100D01*
X174215500Y-99895500D02*
X127390900Y-99895500D01*
X177950000Y-103630000D02*
X174215500Y-99895500D01*
X109020000Y-49562100D02*
X110869300Y-49562100D01*
X112293800Y-49595100D02*
X117970000Y-49595100D01*
X112234100Y-49654800D02*
X112293800Y-49595100D01*
X110962000Y-49654800D02*
X112234100Y-49654800D01*
X110869300Y-49562100D02*
X110962000Y-49654800D01*
X172350900Y-100570900D02*
X175410000Y-103630000D01*
X155201200Y-100570900D02*
X172350900Y-100570900D01*
X168394700Y-63774000D02*
X169878700Y-65258000D01*
X109080000Y-63774000D02*
X168394700Y-63774000D01*
X110988300Y-79099500D02*
X111773000Y-79884200D01*
X110988300Y-77985900D02*
X110988300Y-79099500D01*
X109139000Y-77985900D02*
X110988300Y-77985900D01*
X168137400Y-121062600D02*
X170330000Y-118870000D01*
X141175100Y-121062600D02*
X168137400Y-121062600D01*
X136185000Y-116072500D02*
X141175100Y-121062600D01*
X135937400Y-116072500D02*
X136185000Y-116072500D01*
X109199000Y-92197000D02*
X112899400Y-92197000D01*
X135522300Y-121065500D02*
X128790000Y-114333200D01*
X140541100Y-121065500D02*
X135522300Y-121065500D01*
X140988500Y-121512900D02*
X140541100Y-121065500D01*
X170227100Y-121512900D02*
X140988500Y-121512900D01*
X172870000Y-118870000D02*
X170227100Y-121512900D01*
X109259000Y-106409000D02*
X113301100Y-106409000D01*
X126758000Y-113892100D02*
X119239700Y-113892100D01*
X134393800Y-121527900D02*
X126758000Y-113892100D01*
X140366600Y-121527900D02*
X134393800Y-121527900D01*
X140801900Y-121963200D02*
X140366600Y-121527900D01*
X172316800Y-121963200D02*
X140801900Y-121963200D01*
X175410000Y-118870000D02*
X172316800Y-121963200D01*
X174406500Y-122413500D02*
X177950000Y-118870000D01*
X140615300Y-122413500D02*
X174406500Y-122413500D01*
X140283800Y-122082000D02*
X140615300Y-122413500D01*
X134607700Y-122082000D02*
X140283800Y-122082000D01*
X134139300Y-122550400D02*
X134607700Y-122082000D01*
X112346000Y-122550400D02*
X134139300Y-122550400D01*
X111631000Y-121835400D02*
X112346000Y-122550400D01*
X105505400Y-121835400D02*
X111631000Y-121835400D01*
X101751000Y-118081000D02*
X105505400Y-121835400D01*
X95349000Y-118081000D02*
X101751000Y-118081000D01*
X177928000Y-66639700D02*
X184780300Y-66639700D01*
X169843500Y-58555200D02*
X177928000Y-66639700D01*
X155554500Y-58555200D02*
X169843500Y-58555200D01*
X151823800Y-54824500D02*
X155554500Y-58555200D01*
X151823800Y-51979000D02*
X151823800Y-54824500D01*
X150628800Y-50784000D02*
X151823800Y-51979000D01*
X143341700Y-50784000D02*
X150628800Y-50784000D01*
X140827200Y-48269500D02*
X143341700Y-50784000D01*
X129015000Y-48269500D02*
X140827200Y-48269500D01*
X129140000Y-78024700D02*
X131167300Y-78024700D01*
X188429700Y-86204100D02*
X137422300Y-86204100D01*
X204384700Y-102159100D02*
X188429700Y-86204100D01*
X204384700Y-105051500D02*
X204384700Y-102159100D01*
X200178500Y-109257700D02*
X204384700Y-105051500D01*
X178037700Y-109257700D02*
X200178500Y-109257700D01*
X176622100Y-110673300D02*
X178037700Y-109257700D01*
X176622100Y-114312200D02*
X176622100Y-110673300D01*
X178900200Y-116590300D02*
X176622100Y-114312200D01*
X185830300Y-116590300D02*
X178900200Y-116590300D01*
X188110000Y-118870000D02*
X185830300Y-116590300D01*
X115373000Y-123876000D02*
X117222300Y-123876000D01*
X186656200Y-122863800D02*
X190650000Y-118870000D01*
X140428700Y-122863800D02*
X186656200Y-122863800D01*
X140097300Y-122532400D02*
X140428700Y-122863800D01*
X136633800Y-122532400D02*
X140097300Y-122532400D01*
X136050200Y-123116000D02*
X136633800Y-122532400D01*
X133551600Y-123116000D02*
X136050200Y-123116000D01*
X131550500Y-125117100D02*
X133551600Y-123116000D01*
X118463400Y-125117100D02*
X131550500Y-125117100D01*
X117222300Y-123876000D02*
X118463400Y-125117100D01*
X195701600Y-121381600D02*
X193190000Y-118870000D01*
X199181300Y-121381600D02*
X195701600Y-121381600D01*
X149020000Y-49569600D02*
X150869300Y-49569600D01*
X150869300Y-49569600D02*
X151046600Y-49569600D01*
X166832900Y-82169300D02*
X166997900Y-82169300D01*
X161305600Y-76642000D02*
X166832900Y-82169300D01*
X152895400Y-76642000D02*
X161305600Y-76642000D01*
X151596800Y-77940600D02*
X152895400Y-76642000D01*
X149140000Y-77940600D02*
X151596800Y-77940600D01*
X137504100Y-124054100D02*
X137113100Y-123663100D01*
X137504100Y-127791200D02*
X137504100Y-124054100D01*
X137240300Y-128055000D02*
X137504100Y-127791200D01*
X135391000Y-128055000D02*
X137240300Y-128055000D01*
X140575800Y-102310400D02*
X137924300Y-104961900D01*
X158850400Y-102310400D02*
X140575800Y-102310400D01*
X160170000Y-103630000D02*
X158850400Y-102310400D01*
X169033000Y-52624000D02*
X167183700Y-52624000D01*
X167114000Y-52693700D02*
X167004300Y-52693700D01*
X167183700Y-52624000D02*
X167114000Y-52693700D01*
X167289700Y-78958600D02*
X165898100Y-80350200D01*
X167289700Y-77856400D02*
X167289700Y-78958600D01*
X169139000Y-77856400D02*
X167289700Y-77856400D01*
X155407000Y-131775000D02*
X153557700Y-131775000D01*
X143030200Y-124638200D02*
X143030200Y-123939500D01*
X147772600Y-129380600D02*
X143030200Y-124638200D01*
X151163300Y-129380600D02*
X147772600Y-129380600D01*
X153557700Y-131775000D02*
X151163300Y-129380600D01*
X149793000Y-106387000D02*
X138515500Y-106387000D01*
X152550000Y-103630000D02*
X149793000Y-106387000D01*
X189050000Y-56530600D02*
X190899300Y-56530600D01*
X190899300Y-62229400D02*
X190899300Y-56530600D01*
X168309800Y-84818900D02*
X190899300Y-62229400D01*
X165271400Y-84818900D02*
X168309800Y-84818900D01*
X154229900Y-124272100D02*
X144661900Y-124272100D01*
X157127400Y-127169600D02*
X154229900Y-124272100D01*
X187290700Y-127169600D02*
X157127400Y-127169600D01*
X191238400Y-131117300D02*
X187290700Y-127169600D01*
X191238400Y-135761500D02*
X191238400Y-131117300D01*
X191075600Y-135924300D02*
X191238400Y-135761500D01*
X187710600Y-135924300D02*
X191075600Y-135924300D01*
X186467300Y-134681000D02*
X187710600Y-135924300D01*
X175419000Y-134681000D02*
X186467300Y-134681000D01*
X138008800Y-105761700D02*
X137957200Y-105813300D01*
X145338300Y-105761700D02*
X138008800Y-105761700D01*
X147470000Y-103630000D02*
X145338300Y-105761700D01*
X124450700Y-90282200D02*
X126975900Y-90282200D01*
X120071100Y-85902600D02*
X124450700Y-90282200D01*
X101186900Y-85902600D02*
X120071100Y-85902600D01*
X98646900Y-88442600D02*
X101186900Y-85902600D01*
X80812400Y-88442600D02*
X98646900Y-88442600D01*
X77819900Y-91435100D02*
X80812400Y-88442600D01*
X53354300Y-91435100D02*
X77819900Y-91435100D01*
X62852300Y-74153100D02*
X62705100Y-74005900D01*
X102079300Y-74153100D02*
X62852300Y-74153100D01*
X104577300Y-71655100D02*
X102079300Y-74153100D01*
X117573900Y-71655100D02*
X104577300Y-71655100D01*
X118296900Y-72378100D02*
X117573900Y-71655100D01*
X94369500Y-84994400D02*
X117758800Y-84994400D01*
X93010600Y-86353300D02*
X94369500Y-84994400D01*
X93010600Y-86804100D02*
X93010600Y-86353300D01*
X92739000Y-87075700D02*
X93010600Y-86804100D01*
X64196200Y-87075700D02*
X92739000Y-87075700D01*
X99778300Y-105083400D02*
X86082500Y-105083400D01*
X106610800Y-111915900D02*
X99778300Y-105083400D01*
X134067400Y-111915900D02*
X106610800Y-111915900D01*
X139683700Y-117532200D02*
X134067400Y-111915900D01*
X143592200Y-117532200D02*
X139683700Y-117532200D01*
X144930000Y-118870000D02*
X143592200Y-117532200D01*
X98707000Y-82532900D02*
X118103400Y-82532900D01*
X98139400Y-81965300D02*
X98707000Y-82532900D01*
X84866000Y-81965300D02*
X98139400Y-81965300D01*
X79701400Y-76800700D02*
X84866000Y-81965300D01*
X150761800Y-117081800D02*
X152550000Y-118870000D01*
X140095500Y-117081800D02*
X150761800Y-117081800D01*
X134479300Y-111465600D02*
X140095500Y-117081800D01*
X108666000Y-111465600D02*
X134479300Y-111465600D01*
X99743700Y-102543300D02*
X108666000Y-111465600D01*
X88543000Y-102543300D02*
X99743700Y-102543300D01*
X88093500Y-102093800D02*
X88543000Y-102543300D01*
X153798000Y-120162000D02*
X155090000Y-118870000D01*
X141548300Y-120162000D02*
X153798000Y-120162000D01*
X134202700Y-112816400D02*
X141548300Y-120162000D01*
X97544000Y-112816400D02*
X134202700Y-112816400D01*
X96177300Y-111449700D02*
X97544000Y-112816400D01*
X89685600Y-111449700D02*
X96177300Y-111449700D01*
X85437500Y-107201600D02*
X89685600Y-111449700D01*
X85437500Y-103640000D02*
X85437500Y-107201600D01*
X155887700Y-120612300D02*
X157630000Y-118870000D01*
X141361700Y-120612300D02*
X155887700Y-120612300D01*
X134016100Y-113266700D02*
X141361700Y-120612300D01*
X96161900Y-113266700D02*
X134016100Y-113266700D01*
X142508700Y-108828700D02*
X144930000Y-111250000D01*
X132763700Y-108828700D02*
X142508700Y-108828700D01*
X124019500Y-100084500D02*
X132763700Y-108828700D01*
X108459400Y-100084500D02*
X124019500Y-100084500D01*
X107855800Y-99480900D02*
X108459400Y-100084500D01*
X144583500Y-108363500D02*
X147470000Y-111250000D01*
X132935400Y-108363500D02*
X144583500Y-108363500D01*
X123755800Y-99183900D02*
X132935400Y-108363500D01*
X109581100Y-99183900D02*
X123755800Y-99183900D01*
X146673100Y-107913100D02*
X150010000Y-111250000D01*
X134134600Y-107913100D02*
X146673100Y-107913100D01*
X124747000Y-98525500D02*
X134134600Y-107913100D01*
X104130700Y-98525500D02*
X124747000Y-98525500D01*
X98928000Y-97900200D02*
X98886500Y-97941700D01*
X124758700Y-97900200D02*
X98928000Y-97900200D01*
X134321200Y-107462700D02*
X124758700Y-97900200D01*
X148762700Y-107462700D02*
X134321200Y-107462700D01*
X152550000Y-111250000D02*
X148762700Y-107462700D01*
X134903400Y-110822800D02*
X108911200Y-110822800D01*
X140145400Y-116064800D02*
X134903400Y-110822800D01*
X150275200Y-116064800D02*
X140145400Y-116064800D01*
X152550000Y-113790000D02*
X150275200Y-116064800D01*
X135712500Y-110114500D02*
X127691200Y-110114500D01*
X141166600Y-115568600D02*
X135712500Y-110114500D01*
X148231400Y-115568600D02*
X141166600Y-115568600D01*
X150010000Y-113790000D02*
X148231400Y-115568600D01*
X125783900Y-87568900D02*
X125725400Y-87568900D01*
X128594900Y-90379900D02*
X125783900Y-87568900D01*
X128594900Y-97172400D02*
X128594900Y-90379900D01*
X129291500Y-97869000D02*
X128594900Y-97172400D01*
X179235900Y-97869000D02*
X129291500Y-97869000D01*
X181108300Y-99741400D02*
X179235900Y-97869000D01*
X198782500Y-99741400D02*
X181108300Y-99741400D01*
X202133200Y-103092100D02*
X198782500Y-99741400D01*
X202133200Y-104118500D02*
X202133200Y-103092100D01*
X201343800Y-104907900D02*
X202133200Y-104118500D01*
X163972100Y-104907900D02*
X201343800Y-104907900D01*
X157630000Y-111250000D02*
X163972100Y-104907900D01*
X179247500Y-97243600D02*
X129598600Y-97243600D01*
X181295000Y-99291100D02*
X179247500Y-97243600D01*
X198969100Y-99291100D02*
X181295000Y-99291100D01*
X202583500Y-102905500D02*
X198969100Y-99291100D01*
X202583500Y-104305100D02*
X202583500Y-102905500D01*
X201437200Y-105451400D02*
X202583500Y-104305100D01*
X165968600Y-105451400D02*
X201437200Y-105451400D01*
X160170000Y-111250000D02*
X165968600Y-105451400D01*
X177389200Y-94475800D02*
X154808900Y-94475800D01*
X181754200Y-98840800D02*
X177389200Y-94475800D01*
X199155700Y-98840800D02*
X181754200Y-98840800D01*
X203033800Y-102718900D02*
X199155700Y-98840800D01*
X203033800Y-104491700D02*
X203033800Y-102718900D01*
X201623800Y-105901700D02*
X203033800Y-104491700D01*
X168058300Y-105901700D02*
X201623800Y-105901700D01*
X162710000Y-111250000D02*
X168058300Y-105901700D01*
X189076000Y-88124200D02*
X141878800Y-88124200D01*
X203484100Y-102532300D02*
X189076000Y-88124200D01*
X203484100Y-104678300D02*
X203484100Y-102532300D01*
X201810400Y-106352000D02*
X203484100Y-104678300D01*
X170148000Y-106352000D02*
X201810400Y-106352000D01*
X162710000Y-113790000D02*
X170148000Y-106352000D01*
X205285300Y-101529900D02*
X202345600Y-98590200D01*
X205285300Y-116923100D02*
X205285300Y-101529900D01*
X196868700Y-125339700D02*
X205285300Y-116923100D01*
X161521900Y-125339700D02*
X196868700Y-125339700D01*
X188418100Y-86829400D02*
X164051000Y-86829400D01*
X203934400Y-102345700D02*
X188418100Y-86829400D01*
X203934400Y-104864900D02*
X203934400Y-102345700D01*
X201997000Y-106802300D02*
X203934400Y-104864900D01*
X178045700Y-106802300D02*
X201997000Y-106802300D01*
X169780100Y-115067900D02*
X178045700Y-106802300D01*
X158907900Y-115067900D02*
X169780100Y-115067900D01*
X157630000Y-113790000D02*
X158907900Y-115067900D01*
X188335200Y-85472700D02*
X164575900Y-85472700D01*
X204835000Y-101972500D02*
X188335200Y-85472700D01*
X204835000Y-105238100D02*
X204835000Y-101972500D01*
X196283100Y-113790000D02*
X204835000Y-105238100D01*
X185570000Y-113790000D02*
X196283100Y-113790000D01*
X198130600Y-123372300D02*
X187056200Y-123372300D01*
X202091800Y-119411100D02*
X198130600Y-123372300D01*
X202091800Y-118327600D02*
X202091800Y-119411100D01*
X198768500Y-115004300D02*
X202091800Y-118327600D01*
X186483900Y-115004300D02*
X198768500Y-115004300D01*
X186420300Y-115067900D02*
X186483900Y-115004300D01*
X184307900Y-115067900D02*
X186420300Y-115067900D01*
X183030000Y-113790000D02*
X184307900Y-115067900D01*
X178697100Y-107961400D02*
X198052300Y-107961400D01*
X176171700Y-110486800D02*
X178697100Y-107961400D01*
X176171700Y-114498700D02*
X176171700Y-110486800D01*
X178761300Y-117088300D02*
X176171700Y-114498700D01*
X181248300Y-117088300D02*
X178761300Y-117088300D01*
X183030000Y-118870000D02*
X181248300Y-117088300D01*
M02*
