999
dxfrw 0.6.3
  0
SECTION
  2
HEADER
  9
$ACADVER
  1
AC1021
  9
$DWGCODEPAGE
  3
ANSI_1252
  9
$INSBASE
 10
0
 20
0
 30
0
  9
$EXTMIN
 10
-210.2192744688
 20
-81.47704172126666
 30
0
  9
$EXTMAX
 10
6.123233995736766e-17
 20
71.75
 30
0
  9
$LIMMIN
 10
0
 20
0
  9
$LIMMAX
 10
420
 20
297
  9
$ORTHOMODE
 70
    0
  9
$REGENMODE
 70
    1
  9
$FILLMODE
 70
    1
  9
$QTEXTMODE
 70
    0
  9
$MIRRTEXT
 70
    1
  9
$LTSCALE
 40
1
  9
$ATTMODE
 70
    1
  9
$TEXTSIZE
 40
3.5
  9
$TRACEWID
 40
1
  9
$TEXTSTYLE
  7
Standard
  9
$CLAYER
  8
temp
  9
$CELTYPE
  6
ByLayer
  9
$CECOLOR
 62
  256
  9
$CELTSCALE
 40
1
  9
$DISPSILH
 70
    0
  9
$DIMSCALE
 40
1
  9
$DIMASZ
 40
3.302
  9
$DIMEXO
 40
1
  9
$DIMDLI
 40
3.75
  9
$DIMRND
 40
0
  9
$DIMDLE
 40
0
  9
$DIMEXE
 40
1
  9
$DIMTP
 40
0
  9
$DIMTM
 40
0
  9
$DIMTXT
 40
3.5
  9
$DIMCEN
 40
2.5
  9
$DIMTSZ
 40
0
  9
$DIMTOL
 70
    0
  9
$DIMLIM
 70
    0
  9
$DIMTIH
 70
    1
  9
$DIMTOH
 70
    1
  9
$DIMSE1
 70
    0
  9
$DIMSE2
 70
    0
  9
$DIMTAD
 70
    1
  9
$DIMZIN
 70
    0
  9
$DIMBLK
  1

  9
$DIMASO
 70
    1
  9
$DIMSHO
 70
    1
  9
$DIMPOST
  1

  9
$DIMAPOST
  1

  9
$DIMALT
 70
    0
  9
$DIMALTD
 70
    3
  9
$DIMALTF
 40
0.0393700787
  9
$DIMLFAC
 40
1
  9
$DIMTOFL
 70
    1
  9
$DIMTVP
 40
0
  9
$DIMTIX
 70
    0
  9
$DIMSOXD
 70
    0
  9
$DIMSAH
 70
    0
  9
$DIMBLK1
  1

  9
$DIMBLK2
  1

  9
$DIMSTYLE
  2
ISO-25
  9
$DIMCLRD
 70
    0
  9
$DIMCLRE
 70
    0
  9
$DIMCLRT
 70
    0
  9
$DIMTFAC
 40
1
  9
$DIMGAP
 40
1.524
  9
$DIMJUST
 70
    0
  9
$DIMSD1
 70
    0
  9
$DIMSD2
 70
    0
  9
$DIMTOLJ
 70
    0
  9
$DIMTZIN
 70
    0
  9
$DIMALTZ
 70
    0
  9
$DIMALTTZ
 70
    0
  9
$DIMUPT
 70
    0
  9
$DIMDEC
 70
    2
  9
$DIMTDEC
 70
    2
  9
$DIMALTU
 70
    2
  9
$DIMALTTD
 70
    3
  9
$DIMTXSTY
  7
Standard
  9
$DIMAUNIT
 70
    0
  9
$DIMADEC
 70
    0
  9
$DIMALTRND
 40
0
  9
$DIMAZIN
 70
    0
  9
$DIMDSEP
 70
   44
  9
$DIMATFIT
 70
    3
  9
$DIMFRAC
 70
    0
  9
$DIMLDRBLK
  1

  9
$DIMLUNIT
 70
    2
  9
$DIMLWD
 70
   -2
  9
$DIMLWE
 70
   -2
  9
$DIMTMOVE
 70
    0
  9
$DIMFXL
 40
1
  9
$DIMFXLON
 70
    0
  9
$DIMJOGANG
 40
0.7854
  9
$DIMTFILL
 70
    0
  9
$DIMTFILLCLR
 70
    0
  9
$DIMARCSYM
 70
    0
  9
$DIMLTYPE
  6

  9
$DIMLTEX1
  6

  9
$DIMLTEX2
  6

  9
$LUNITS
 70
    2
  9
$LUPREC
 70
    2
  9
$SKETCHINC
 40
1
  9
$FILLETRAD
 40
10
  9
$AUNITS
 70
    0
  9
$AUPREC
 70
    2
  9
$MENU
  1
.
  9
$ELEVATION
 40
0
  9
$PELEVATION
 40
0
  9
$THICKNESS
 40
0
  9
$LIMCHECK
 70
    0
  9
$CHAMFERA
 40
0
  9
$CHAMFERB
 40
0
  9
$CHAMFERC
 40
0
  9
$CHAMFERD
 40
0
  9
$SKPOLY
 70
    0
  9
$USRTIMER
 70
    1
  9
$ANGBASE
 50
0
  9
$ANGDIR
 70
    0
  9
$PDMODE
 70
    0
  9
$PDSIZE
 40
-1
  9
$PLINEWID
 40
0
  9
$SPLFRAME
 70
    0
  9
$SPLINETYPE
 70
    6
  9
$SPLINESEGS
 70
    8
  9
$HANDSEED
  5
20000
  9
$SURFTAB1
 70
    6
  9
$SURFTAB2
 70
    6
  9
$SURFTYPE
 70
    6
  9
$SURFU
 70
    6
  9
$SURFV
 70
    6
  9
$UCSBASE
  2

  9
$UCSNAME
  2

  9
$UCSORG
 10
0
 20
0
 30
0
  9
$UCSXDIR
 10
1
 20
0
 30
0
  9
$UCSYDIR
 10
0
 20
1
 30
0
  9
$UCSORTHOREF
  2

  9
$UCSORTHOVIEW
 70
    0
  9
$UCSORGTOP
 10
0
 20
0
 30
0
  9
$UCSORGBOTTOM
 10
0
 20
0
 30
0
  9
$UCSORGLEFT
 10
0
 20
0
 30
0
  9
$UCSORGRIGHT
 10
0
 20
0
 30
0
  9
$UCSORGFRONT
 10
0
 20
0
 30
0
  9
$UCSORGBACK
 10
0
 20
0
 30
0
  9
$PUCSBASE
  2

  9
$PUCSNAME
  2

  9
$PUCSORG
 10
0
 20
0
 30
0
  9
$PUCSXDIR
 10
1
 20
0
 30
0
  9
$PUCSYDIR
 10
0
 20
1
 30
0
  9
$PUCSORTHOREF
  2

  9
$PUCSORTHOVIEW
 70
    0
  9
$PUCSORGTOP
 10
0
 20
0
 30
0
  9
$PUCSORGBOTTOM
 10
0
 20
0
 30
0
  9
$PUCSORGLEFT
 10
0
 20
0
 30
0
  9
$PUCSORGRIGHT
 10
0
 20
0
 30
0
  9
$PUCSORGFRONT
 10
0
 20
0
 30
0
  9
$PUCSORGBACK
 10
0
 20
0
 30
0
  9
$USERI1
 70
    0
  9
$USERI2
 70
    0
  9
$USERI3
 70
    0
  9
$USERI4
 70
    0
  9
$USERI5
 70
    0
  9
$USERR1
 40
0
  9
$USERR2
 40
0
  9
$USERR3
 40
0
  9
$USERR4
 40
0
  9
$USERR5
 40
0
  9
$WORLDVIEW
 70
    1
  9
$SHADEDGE
 70
    3
  9
$SHADEDIF
 70
   70
  9
$TILEMODE
 70
    1
  9
$MAXACTVP
 70
   64
  9
$PINSBASE
 10
0
 20
0
 30
0
  9
$PLIMCHECK
 70
    0
  9
$PEXTMIN
 10
1e+20
 20
1e+20
 30
1e+20
  9
$PEXTMAX
 10
-1e+20
 20
-1e+20
 30
-1e+20
  9
$GRIDMODE
 70
    0
  9
$SNAPSTYLE
 70
    0
  9
$PLIMMIN
 10
0
 20
0
  9
$PLIMMAX
 10
420
 20
297
  9
$UNITMODE
 70
    0
  9
$VISRETAIN
 70
    1
  9
$PLINEGEN
 70
    0
  9
$PSLTSCALE
 70
    1
  9
$TREEDEPTH
 70
 3020
  9
$CMLSTYLE
  2
Standard
  9
$CMLJUST
 70
    0
  9
$CMLSCALE
 40
20
  9
$PROXYGRAPHICS
 70
    1
  9
$MEASUREMENT
 70
    1
  9
$CELWEIGHT
370
   -1
  9
$ENDCAPS
280
    0
  9
$JOINSTYLE
280
    0
  9
$LWDISPLAY
290
    1
  9
$INSUNITS
 70
    4
  9
$HYPERLINKBASE
  1

  9
$STYLESHEET
  1

  9
$XEDIT
290
    1
  9
$CEPSNTYPE
380
    0
  9
$PSTYLEMODE
290
    1
  9
$EXTNAMES
290
    1
  9
$PSVPSCALE
 40
0
  9
$OLESTARTUP
290
    0
  9
$SORTENTS
280
  127
  9
$INDEXCTL
280
    0
  9
$HIDETEXT
280
    1
  9
$XCLIPFRAME
290
    0
  9
$HALOGAP
280
    0
  9
$OBSCOLOR
 70
  257
  9
$OBSLTYPE
280
    0
  9
$INTERSECTIONDISPLAY
280
    0
  9
$INTERSECTIONCOLOR
 70
  257
  9
$DIMASSOC
280
    1
  9
$PROJECTNAME
  1

  9
$CAMERADISPLAY
290
    0
  9
$LENSLENGTH
 40
50
  9
$CAMERAHEIGHT
 40
0
  9
$STEPSPERSEC
 40
2
  9
$STEPSIZE
 40
50
  9
$3DDWFPREC
 40
2
  9
$PSOLWIDTH
 40
5
  9
$PSOLHEIGHT
 40
80
  9
$LOFTANG1
 40
1.570796326794897
  9
$LOFTANG2
 40
1.570796326794897
  9
$LOFTMAG1
 40
0
  9
$LOFTMAG2
 40
0
  9
$LOFTPARAM
 70
    7
  9
$LOFTNORMALS
280
    1
  9
$LATITUDE
 40
1
  9
$LONGITUDE
 40
1
  9
$NORTHDIRECTION
 40
0
  9
$TIMEZONE
 70
-8000
  9
$LIGHTGLYPHDISPLAY
280
    1
  9
$TILEMODELIGHTSYNCH
280
    1
  9
$SOLIDHIST
280
    1
  9
$SHOWHIST
280
    1
  9
$DWFFRAME
280
    2
  9
$DGNFRAME
280
    0
  9
$REALWORLDSCALE
290
    1
  9
$INTERFERECOLOR
 62
    1
  9
$CSHADOW
280
    0
  9
$SHADOWPLANELOCATION
 40
0
  0
ENDSEC
  0
SECTION
  2
CLASSES
  0
ENDSEC
  0
SECTION
  2
TABLES
  0
TABLE
  2
VPORT
  5
8
330
0
100
AcDbSymbolTable
 70
    1
  0
VPORT
  5
31
330
2
100
AcDbSymbolTableRecord
100
AcDbViewportTableRecord
  2
*ACTIVE
 70
    0
 10
0
 20
0
 11
1
 21
1
 12
34.36530210341967
 22
103.095906310259
 13
0
 23
0
 14
10
 24
10
 15
10
 25
10
 16
0
 26
0
 36
1
 17
0
 27
0
 37
0
 40
255.7417830952162
 41
1.9475
 42
50
 43
0
 44
0
 50
0
 51
0
 71
    0
 72
  100
 73
    1
 74
    3
 75
    0
 76
    0
 77
    0
 78
    0
281
    0
 65
    1
110
0
120
0
130
0
111
1
121
0
131
0
112
0
122
1
132
0
 79
    0
146
0
348
10020
 60
    7
 61
    5
292
1
282
    1
141
0
142
0
 63
  250
421
3358443
  0
ENDTAB
  0
TABLE
  2
LTYPE
  5
5
330
0
100
AcDbSymbolTable
 70
    4
  0
LTYPE
  5
14
330
5
100
AcDbSymbolTableRecord
100
AcDbLinetypeTableRecord
  2
ByBlock
 70
    0
  3

 72
   65
 73
    0
 40
0
  0
LTYPE
  5
15
330
5
100
AcDbSymbolTableRecord
100
AcDbLinetypeTableRecord
  2
ByLayer
 70
    0
  3

 72
   65
 73
    0
 40
0
  0
LTYPE
  5
16
330
5
100
AcDbSymbolTableRecord
100
AcDbLinetypeTableRecord
  2
Continuous
 70
    0
  3
Solid line
 72
   65
 73
    0
 40
0
  0
LTYPE
  5
32
330
5
100
AcDbSymbolTableRecord
100
AcDbLinetypeTableRecord
  2
DOT
 70
    0
  3
Dot . . . . . . . . . . . . . . . . . . . . . .
 72
   65
 73
    2
 40
6.35
 49
0
 74
    0
 49
-6.35
 74
    0
  0
LTYPE
  5
33
330
5
100
AcDbSymbolTableRecord
100
AcDbLinetypeTableRecord
  2
DOTTINY
 70
    0
  3
Dot (.15x) .....................................
 72
   65
 73
    2
 40
0.9525
 49
0
 74
    0
 49
-0.9525
 74
    0
  0
LTYPE
  5
34
330
5
100
AcDbSymbolTableRecord
100
AcDbLinetypeTableRecord
  2
DOT2
 70
    0
  3
Dot (.5x) .....................................
 72
   65
 73
    2
 40
3.175
 49
0
 74
    0
 49
-3.175
 74
    0
  0
LTYPE
  5
35
330
5
100
AcDbSymbolTableRecord
100
AcDbLinetypeTableRecord
  2
DOTX2
 70
    0
  3
Dot (2x) .  .  .  .  .  .  .  .  .  .  .  .  .
 72
   65
 73
    2
 40
12.7
 49
0
 74
    0
 49
-12.7
 74
    0
  0
LTYPE
  5
36
330
5
100
AcDbSymbolTableRecord
100
AcDbLinetypeTableRecord
  2
DASHED
 70
    0
  3
Dashed _ _ _ _ _ _ _ _ _ _ _ _ _ _ _ _ _
 72
   65
 73
    2
 40
19.05
 49
12.7
 74
    0
 49
-6.35
 74
    0
  0
LTYPE
  5
37
330
5
100
AcDbSymbolTableRecord
100
AcDbLinetypeTableRecord
  2
DASHEDTINY
 70
    0
  3
Dashed (.15x) _ _ _ _ _ _ _ _ _ _ _ _ _ _ _ _ _
 72
   65
 73
    2
 40
2.8575
 49
1.905
 74
    0
 49
-0.9525
 74
    0
  0
LTYPE
  5
38
330
5
100
AcDbSymbolTableRecord
100
AcDbLinetypeTableRecord
  2
DASHED2
 70
    0
  3
Dashed (.5x) _ _ _ _ _ _ _ _ _ _ _ _ _ _ _ _ _
 72
   65
 73
    2
 40
9.524999999999999
 49
6.35
 74
    0
 49
-3.175
 74
    0
  0
LTYPE
  5
39
330
5
100
AcDbSymbolTableRecord
100
AcDbLinetypeTableRecord
  2
DASHEDX2
 70
    0
  3
Dashed (2x) ____  ____  ____  ____  ____  ___
 72
   65
 73
    2
 40
38.09999999999999
 49
25.4
 74
    0
 49
-12.7
 74
    0
  0
LTYPE
  5
3A
330
5
100
AcDbSymbolTableRecord
100
AcDbLinetypeTableRecord
  2
DASHDOT
 70
    0
  3
Dash dot __ . __ . __ . __ . __ . __ . __ . __
 72
   65
 73
    4
 40
25.4
 49
12.7
 74
    0
 49
-6.35
 74
    0
 49
0
 74
    0
 49
-6.35
 74
    0
  0
LTYPE
  5
3B
330
5
100
AcDbSymbolTableRecord
100
AcDbLinetypeTableRecord
  2
DASHDOTTINY
 70
    0
  3
Dash dot (.15x) _._._._._._._._._._._._._._._.
 72
   65
 73
    4
 40
3.81
 49
1.905
 74
    0
 49
-0.9525
 74
    0
 49
0
 74
    0
 49
-0.9525
 74
    0
  0
LTYPE
  5
3C
330
5
100
AcDbSymbolTableRecord
100
AcDbLinetypeTableRecord
  2
DASHDOT2
 70
    0
  3
Dash dot (.5x) _._._._._._._._._._._._._._._.
 72
   65
 73
    4
 40
12.7
 49
6.35
 74
    0
 49
-3.175
 74
    0
 49
0
 74
    0
 49
-3.175
 74
    0
  0
LTYPE
  5
3D
330
5
100
AcDbSymbolTableRecord
100
AcDbLinetypeTableRecord
  2
DASHDOTX2
 70
    0
  3
Dash dot (2x) ____  .  ____  .  ____  .  ___
 72
   65
 73
    4
 40
50.8
 49
25.4
 74
    0
 49
-12.7
 74
    0
 49
0
 74
    0
 49
-12.7
 74
    0
  0
LTYPE
  5
3E
330
5
100
AcDbSymbolTableRecord
100
AcDbLinetypeTableRecord
  2
DIVIDE
 70
    0
  3
Divide ____ . . ____ . . ____ . . ____ . . ____
 72
   65
 73
    6
 40
31.75
 49
12.7
 74
    0
 49
-6.35
 74
    0
 49
0
 74
    0
 49
-6.35
 74
    0
 49
0
 74
    0
 49
-6.35
 74
    0
  0
LTYPE
  5
3F
330
5
100
AcDbSymbolTableRecord
100
AcDbLinetypeTableRecord
  2
DIVIDETINY
 70
    0
  3
Divide (.15x) __..__..__..__..__..__..__..__.._
 72
   65
 73
    6
 40
4.7625
 49
1.905
 74
    0
 49
-0.9525
 74
    0
 49
0
 74
    0
 49
-0.9525
 74
    0
 49
0
 74
    0
 49
-0.9525
 74
    0
  0
LTYPE
  5
40
330
5
100
AcDbSymbolTableRecord
100
AcDbLinetypeTableRecord
  2
DIVIDE2
 70
    0
  3
Divide (.5x) __..__..__..__..__..__..__..__.._
 72
   65
 73
    6
 40
15.875
 49
6.35
 74
    0
 49
-3.175
 74
    0
 49
0
 74
    0
 49
-3.175
 74
    0
 49
0
 74
    0
 49
-3.175
 74
    0
  0
LTYPE
  5
41
330
5
100
AcDbSymbolTableRecord
100
AcDbLinetypeTableRecord
  2
DIVIDEX2
 70
    0
  3
Divide (2x) ________  .  .  ________  .  .  _
 72
   65
 73
    6
 40
63.5
 49
25.4
 74
    0
 49
-12.7
 74
    0
 49
0
 74
    0
 49
-12.7
 74
    0
 49
0
 74
    0
 49
-12.7
 74
    0
  0
LTYPE
  5
42
330
5
100
AcDbSymbolTableRecord
100
AcDbLinetypeTableRecord
  2
BORDER
 70
    0
  3
Border __ __ . __ __ . __ __ . __ __ . __ __ .
 72
   65
 73
    6
 40
44.45
 49
12.7
 74
    0
 49
-6.35
 74
    0
 49
12.7
 74
    0
 49
-6.35
 74
    0
 49
0
 74
    0
 49
-6.35
 74
    0
  0
LTYPE
  5
43
330
5
100
AcDbSymbolTableRecord
100
AcDbLinetypeTableRecord
  2
BORDERTINY
 70
    0
  3
Border (.15x) __.__.__.__.__.__.__.__.__.__.__.
 72
   65
 73
    6
 40
6.6675
 49
1.905
 74
    0
 49
-0.9525
 74
    0
 49
1.905
 74
    0
 49
-0.9525
 74
    0
 49
0
 74
    0
 49
-0.9525
 74
    0
  0
LTYPE
  5
44
330
5
100
AcDbSymbolTableRecord
100
AcDbLinetypeTableRecord
  2
BORDER2
 70
    0
  3
Border (.5x) __.__.__.__.__.__.__.__.__.__.__.
 72
   65
 73
    6
 40
22.225
 49
6.35
 74
    0
 49
-3.175
 74
    0
 49
6.35
 74
    0
 49
-3.175
 74
    0
 49
0
 74
    0
 49
-3.175
 74
    0
  0
LTYPE
  5
45
330
5
100
AcDbSymbolTableRecord
100
AcDbLinetypeTableRecord
  2
BORDERX2
 70
    0
  3
Border (2x) ____  ____  .  ____  ____  .  ___
 72
   65
 73
    6
 40
88.89999999999999
 49
25.4
 74
    0
 49
-12.7
 74
    0
 49
25.4
 74
    0
 49
-12.7
 74
    0
 49
0
 74
    0
 49
-12.7
 74
    0
  0
LTYPE
  5
46
330
5
100
AcDbSymbolTableRecord
100
AcDbLinetypeTableRecord
  2
CENTER
 70
    0
  3
Center ____ _ ____ _ ____ _ ____ _ ____ _ ____
 72
   65
 73
    4
 40
50.8
 49
31.75
 74
    0
 49
-6.35
 74
    0
 49
6.35
 74
    0
 49
-6.35
 74
    0
  0
LTYPE
  5
47
330
5
100
AcDbSymbolTableRecord
100
AcDbLinetypeTableRecord
  2
CENTERTINY
 70
    0
  3
Center (.15x) ___ _ ___ _ ___ _ ___ _ ___ _ ___
 72
   65
 73
    4
 40
7.619999999999999
 49
4.7625
 74
    0
 49
-0.9525
 74
    0
 49
0.9525
 74
    0
 49
-0.9525
 74
    0
  0
LTYPE
  5
48
330
5
100
AcDbSymbolTableRecord
100
AcDbLinetypeTableRecord
  2
CENTER2
 70
    0
  3
Center (.5x) ___ _ ___ _ ___ _ ___ _ ___ _ ___
 72
   65
 73
    4
 40
28.575
 49
19.05
 74
    0
 49
-3.175
 74
    0
 49
3.175
 74
    0
 49
-3.175
 74
    0
  0
LTYPE
  5
49
330
5
100
AcDbSymbolTableRecord
100
AcDbLinetypeTableRecord
  2
CENTERX2
 70
    0
  3
Center (2x) ________  __  ________  __  _____
 72
   65
 73
    4
 40
101.6
 49
63.5
 74
    0
 49
-12.7
 74
    0
 49
12.7
 74
    0
 49
-12.7
 74
    0
  0
ENDTAB
  0
TABLE
  2
LAYER
  5
2
330
0
100
AcDbSymbolTable
 70
    1
  0
LAYER
  5
10
330
2
100
AcDbSymbolTableRecord
100
AcDbLayerTableRecord
  2
0
 70
    0
 62
    7
  6
CONTINUOUS
370
   -3
390
F
  0
LAYER
  5
4A
330
2
100
AcDbSymbolTableRecord
100
AcDbLayerTableRecord
  2
temp
 70
    0
 62
    3
  6
CONTINUOUS
370
    0
390
F
  0
ENDTAB
  0
TABLE
  2
STYLE
  5
3
330
0
100
AcDbSymbolTable
 70
    3
  0
STYLE
  5
4B
330
2
100
AcDbSymbolTableRecord
100
AcDbTextStyleTableRecord
  2
Standard
 70
    0
 40
0
 41
1
 50
0
 71
    0
 42
1
  3
txt
  4

  0
ENDTAB
  0
TABLE
  2
VIEW
  5
6
330
0
100
AcDbSymbolTable
 70
    0
  0
ENDTAB
  0
TABLE
  2
UCS
  5
7
330
0
100
AcDbSymbolTable
 70
    0
  0
ENDTAB
  0
TABLE
  2
APPID
  5
9
330
0
100
AcDbSymbolTable
 70
    1
  0
APPID
  5
12
330
9
100
AcDbSymbolTableRecord
100
AcDbRegAppTableRecord
  2
ACAD
 70
    0
  0
APPID
  5
4C
330
9
100
AcDbSymbolTableRecord
100
AcDbRegAppTableRecord
  2
LibreCad
 70
    0
  0
ENDTAB
  0
TABLE
  2
DIMSTYLE
  5
A
330
0
100
AcDbSymbolTable
 70
    1
100
AcDbDimStyleTable
 71
    1
  0
DIMSTYLE
105
4D
330
A
100
AcDbSymbolTableRecord
100
AcDbDimStyleTableRecord
  2
Standard
 70
    0
 40
1
 41
3.302
 42
1
 43
0.38
 44
1
 45
0
 46
0
 47
0
 48
0
 49
1
140
3.5
141
0.09
142
0
143
25.4
144
1
145
0
146
1
147
1.524
148
0
 71
    0
 72
    0
 73
    1
 74
    1
 75
    0
 76
    0
 77
    0
 78
    0
 79
    0
170
    0
171
    2
172
    0
173
    0
174
    0
175
    0
176
    0
177
    0
178
    0
179
    0
271
    2
272
    4
273
    2
274
    2
275
    0
276
    0
277
    2
278
   44
279
    0
280
    0
281
    0
282
    0
283
    1
284
    0
285
    0
286
    0
288
    0
289
    3
340
Standard
341

371
   -2
372
   -2
  0
ENDTAB
  0
TABLE
  2
BLOCK_RECORD
  5
1
330
0
100
AcDbSymbolTable
 70
    2
  0
BLOCK_RECORD
  5
1F
330
1
100
AcDbSymbolTableRecord
100
AcDbBlockTableRecord
  2
*Model_Space
 70
    0
280
    1
281
    0
  0
BLOCK_RECORD
  5
1E
330
1
100
AcDbSymbolTableRecord
100
AcDbBlockTableRecord
  2
*Paper_Space
 70
    0
280
    1
281
    0
  0
BLOCK_RECORD
  5
4E
330
1
100
AcDbSymbolTableRecord
100
AcDbBlockTableRecord
  2
*D1
 70
    0
280
    1
281
    0
  0
ENDTAB
  0
ENDSEC
  0
SECTION
  2
BLOCKS
  0
BLOCK
  5
20
330
1F
100
AcDbEntity
  8
0
100
AcDbBlockBegin
  2
*Model_Space
 70
    0
 10
0
 20
0
 30
0
  3
*Model_Space
  1

  0
ENDBLK
  5
21
330
1F
100
AcDbEntity
  8
0
100
AcDbBlockEnd
  0
BLOCK
  5
1C
330
1B
100
AcDbEntity
  8
0
100
AcDbBlockBegin
  2
*Paper_Space
 70
    0
 10
0
 20
0
 30
0
  3
*Paper_Space
  1

  0
ENDBLK
  5
1D
330
1F
100
AcDbEntity
  8
0
100
AcDbBlockEnd
  0
BLOCK
  5
4F
330
4E
100
AcDbEntity
  8
0
100
AcDbBlockBegin
  2
*D1
 70
    1
 10
0
 20
0
  3
*D1
  1

  0
LINE
  5
51
100
AcDbEntity
  8
temp
  6
ByBlock
 62
    0
370
   -2
100
AcDbLine
 10
0
 20
70
 11
-96.96211111111111
 21
70
  0
SOLID
  5
52
100
AcDbEntity
  8
temp
  6
ByBlock
 62
    0
370
   -2
100
AcDbTrace
 10
0
 20
70
 30
0
 11
-3.302
 21
69.45017122401363
 31
0
 12
-3.302
 22
70.54982877598637
 32
0
 13
-3.302
 23
70.54982877598637
 33
0
  0
SOLID
  5
53
100
AcDbEntity
  8
temp
  6
ByBlock
 62
    0
370
   -2
100
AcDbTrace
 10
-210
 20
70
 30
0
 11
-206.698
 21
70.54982877598637
 31
0
 12
-206.698
 22
69.45017122401363
 32
0
 13
-206.698
 23
69.45017122401363
 33
0
  0
LINE
  5
54
100
AcDbEntity
  8
temp
  6
ByBlock
 62
    0
370
   -2
100
AcDbLine
 10
-113.0378888888889
 20
70
 11
-210
 21
70
  0
MTEXT
  5
55
100
AcDbEntity
  8
temp
  6
CONTINUOUS
 62
    0
370
   -2
100
AcDbMText
 10
-105
 20
70
 30
0
 40
3.5
 41
13.02777777777778
 71
    5
 72
    1
  1
210,00
  7
Standard
210
0
220
0
230
1
 50
0
 73
    2
 44
1
  0
LINE
  5
56
100
AcDbEntity
  8
temp
  6
ByBlock
 62
    0
370
   -2
100
AcDbLine
 10
6.123233995736766e-17
 20
1
 11
6.123233995736766e-17
 21
71
  0
LINE
  5
57
100
AcDbEntity
  8
temp
  6
ByBlock
 62
    0
370
   -2
100
AcDbLine
 10
-210
 20
-9
 11
-210
 21
71
  0
ENDBLK
  5
50
330
4E
100
AcDbEntity
  8
0
100
AcDbBlockEnd
  0
ENDSEC
  0
SECTION
  2
ENTITIES
  0
LINE
  5
58
100
AcDbEntity
  8
0
  6
CONTINUOUS
 62
    7
370
   25
100
AcDbLine
 10
-37.0480584896
 20
11.3442215314
 11
-37.0840267353
 21
19.8927937378
  0
LINE
  5
59
100
AcDbEntity
  8
0
  6
CONTINUOUS
 62
    7
370
   25
100
AcDbLine
 10
-44.0479965292
 20
11.3147691872
 11
-37.0480584896
 21
11.3442215314
  0
LINE
  5
5A
100
AcDbEntity
  8
0
  6
CONTINUOUS
 62
    7
370
   25
100
AcDbLine
 10
-43.9512245411
 20
-11.6850272289
 11
-44.0479965292
 21
11.3147691872
  0
LINE
  5
5B
100
AcDbEntity
  8
0
  6
CONTINUOUS
 62
    7
370
   25
100
AcDbLine
 10
-36.9512865014
 20
-11.6555748847
 11
-43.9512245411
 21
-11.6850272289
  0
LINE
  5
5C
100
AcDbEntity
  8
0
  6
CONTINUOUS
 62
    7
370
   25
100
AcDbLine
 10
-36.9031108812
 20
-23.1054735353
 11
-36.9512865014
 21
-11.6555748847
  0
LINE
  5
5D
100
AcDbEntity
  8
0
  6
CONTINUOUS
 62
    7
370
   25
100
AcDbLine
 10
-11.903332168
 20
-23.0002865916
 11
-36.9031108812
 21
-23.1054735353
  0
LINE
  5
5E
100
AcDbEntity
  8
0
  6
CONTINUOUS
 62
    7
370
   25
100
AcDbLine
 10
-11.8538463096
 20
-34.7615895335
 11
-11.903332168
 21
-23.0002865916
  0
LINE
  5
5F
100
AcDbEntity
  8
0
  6
CONTINUOUS
 62
    7
370
   25
100
AcDbLine
 10
-37.08402673526111
 20
19.89279373777617
 11
-38.73805182251096
 21
20.35067931224809
  0
LINE
  5
60
100
AcDbEntity
  8
0
  6
CONTINUOUS
 62
    7
370
   25
100
AcDbLine
 10
-38.73805182251096
 20
20.35067931224809
 11
-40.46381903917045
 21
20.85528708003085
  0
LINE
  5
61
100
AcDbEntity
  8
0
  6
CONTINUOUS
 62
    7
370
   25
100
AcDbLine
 10
-40.46381903917045
 20
20.85528708003085
 11
-42.25502532779121
 21
21.39759312300666
  0
LINE
  5
62
100
AcDbEntity
  8
0
  6
CONTINUOUS
 62
    7
370
   25
100
AcDbLine
 10
-42.25502532779121
 20
21.39759312300666
 11
-44.10536763092482
 21
21.9685735230577
  0
LINE
  5
63
100
AcDbEntity
  8
0
  6
CONTINUOUS
 62
    7
370
   25
100
AcDbLine
 10
-44.10536763092482
 20
21.9685735230577
 11
-46.00854289112296
 21
22.55920436206621
  0
LINE
  5
64
100
AcDbEntity
  8
0
  6
CONTINUOUS
 62
    7
370
   25
100
AcDbLine
 10
-46.00854289112296
 20
22.55920436206621
 11
-47.95824805093718
 21
23.16046172191438
  0
LINE
  5
65
100
AcDbEntity
  8
0
  6
CONTINUOUS
 62
    7
370
   25
100
AcDbLine
 10
-47.95824805093718
 20
23.16046172191438
 11
-49.94818005291909
 21
23.76332168448441
  0
LINE
  5
66
100
AcDbEntity
  8
0
  6
CONTINUOUS
 62
    7
370
   25
100
AcDbLine
 10
-49.94818005291909
 20
23.76332168448441
 11
-51.97203583962035
 21
24.35876033165852
  0
LINE
  5
67
100
AcDbEntity
  8
0
  6
CONTINUOUS
 62
    7
370
   25
100
AcDbLine
 10
-51.97203583962035
 20
24.35876033165852
 11
-54.02351235359254
 21
24.9377537453189
  0
LINE
  5
68
100
AcDbEntity
  8
0
  6
CONTINUOUS
 62
    7
370
   25
100
AcDbLine
 10
-54.02351235359254
 20
24.9377537453189
 11
-56.09691548010832
 21
25.49228410665795
  0
LINE
  5
69
100
AcDbEntity
  8
0
  6
CONTINUOUS
 62
    7
370
   25
100
AcDbLine
 10
-56.09691548010832
 20
25.49228410665795
 11
-58.19120685495114
 21
26.02202585956434
  0
LINE
  5
6A
100
AcDbEntity
  8
0
  6
CONTINUOUS
 62
    7
370
   25
100
AcDbLine
 10
-58.19120685495114
 20
26.02202585956434
 11
-60.30749718553415
 21
26.53020415870709
  0
LINE
  5
6B
100
AcDbEntity
  8
0
  6
CONTINUOUS
 62
    7
370
   25
100
AcDbLine
 10
-60.30749718553415
 20
26.53020415870709
 11
-62.44690872662881
 21
27.02006323737914
  0
LINE
  5
6C
100
AcDbEntity
  8
0
  6
CONTINUOUS
 62
    7
370
   25
100
AcDbLine
 10
-62.44690872662881
 20
27.02006323737914
 11
-64.61056373300653
 21
27.49484732887347
  0
LINE
  5
6D
100
AcDbEntity
  8
0
  6
CONTINUOUS
 62
    7
370
   25
100
AcDbLine
 10
-64.61056373300653
 20
27.49484732887347
 11
-66.79958445943878
 21
27.95780066648302
  0
LINE
  5
6E
100
AcDbEntity
  8
0
  6
CONTINUOUS
 62
    7
370
   25
100
AcDbLine
 10
-66.79958445943878
 20
27.95780066648302
 11
-69.01509316069695
 21
28.41216748350077
  0
LINE
  5
6F
100
AcDbEntity
  8
0
  6
CONTINUOUS
 62
    7
370
   25
100
AcDbLine
 10
-69.01509316069695
 20
28.41216748350077
 11
-71.25821209155254
 21
28.86119201321966
  0
LINE
  5
70
100
AcDbEntity
  8
0
  6
CONTINUOUS
 62
    7
370
   25
100
AcDbLine
 10
-71.25821209155254
 20
28.86119201321966
 11
-73.53006350677693
 21
29.30811848893266
  0
LINE
  5
71
100
AcDbEntity
  8
0
  6
CONTINUOUS
 62
    7
370
   25
100
AcDbLine
 10
-73.53006350677693
 20
29.30811848893266
 11
-75.83164240895717
 21
29.75600698574562
  0
LINE
  5
72
100
AcDbEntity
  8
0
  6
CONTINUOUS
 62
    7
370
   25
100
AcDbLine
 10
-75.83164240895717
 20
29.75600698574562
 11
-78.16187143527794
 21
30.20491847067714
  0
LINE
  5
73
100
AcDbEntity
  8
0
  6
CONTINUOUS
 62
    7
370
   25
100
AcDbLine
 10
-78.16187143527794
 20
30.20491847067714
 11
-80.5179872031848
 21
30.65247391853705
  0
LINE
  5
74
100
AcDbEntity
  8
0
  6
CONTINUOUS
 62
    7
370
   25
100
AcDbLine
 10
-80.5179872031848
 20
30.65247391853705
 11
-82.89717737962106
 21
31.09622346342006
  0
LINE
  5
75
100
AcDbEntity
  8
0
  6
CONTINUOUS
 62
    7
370
   25
100
AcDbLine
 10
-82.89717737962106
 20
31.09622346342006
 11
-85.29662963153001
 21
31.53371723942088
  0
LINE
  5
76
100
AcDbEntity
  8
0
  6
CONTINUOUS
 62
    7
370
   25
100
AcDbLine
 10
-85.29662963153001
 20
31.53371723942088
 11
-87.71353162585493
 21
31.96250538063421
  0
LINE
  5
77
100
AcDbEntity
  8
0
  6
CONTINUOUS
 62
    7
370
   25
100
AcDbLine
 10
-87.71353162585493
 20
31.96250538063421
 11
-90.14507102953915
 21
32.38013802115479
  0
LINE
  5
78
100
AcDbEntity
  8
0
  6
CONTINUOUS
 62
    7
370
   25
100
AcDbLine
 10
-90.14507102953915
 20
32.38013802115479
 11
-92.58843550952598
 21
32.78416529507732
  0
LINE
  5
79
100
AcDbEntity
  8
0
  6
CONTINUOUS
 62
    7
370
   25
100
AcDbLine
 10
-92.58843550952598
 20
32.78416529507732
 11
-95.04081273275871
 21
33.1721373364965
  0
LINE
  5
7A
100
AcDbEntity
  8
0
  6
CONTINUOUS
 62
    7
370
   25
100
AcDbLine
 10
-95.04081273275871
 20
33.1721373364965
 11
-97.49941051916218
 21
33.54161138305131
  0
LINE
  5
7B
100
AcDbEntity
  8
0
  6
CONTINUOUS
 62
    7
370
   25
100
AcDbLine
 10
-97.49941051916218
 20
33.54161138305131
 11
-99.96238875546331
 21
33.89048025789442
  0
LINE
  5
7C
100
AcDbEntity
  8
0
  6
CONTINUOUS
 62
    7
370
   25
100
AcDbLine
 10
-99.96238875546331
 20
33.89048025789442
 11
-102.4292515851381
 21
34.21711060921972
  0
LINE
  5
7D
100
AcDbEntity
  8
0
  6
CONTINUOUS
 62
    7
370
   25
100
AcDbLine
 10
-102.4292515851381
 20
34.21711060921972
 11
-104.8996046803861
 21
34.51990487217293
  0
LINE
  5
7E
100
AcDbEntity
  8
0
  6
CONTINUOUS
 62
    7
370
   25
100
AcDbLine
 10
-104.8996046803861
 20
34.51990487217293
 11
-107.3730537134066
 21
34.79726548189979
  0
LINE
  5
7F
100
AcDbEntity
  8
0
  6
CONTINUOUS
 62
    7
370
   25
100
AcDbLine
 10
-107.3730537134066
 20
34.79726548189979
 11
-109.8492043563993
 21
35.04759487354603
  0
LINE
  5
80
100
AcDbEntity
  8
0
  6
CONTINUOUS
 62
    7
370
   25
100
AcDbLine
 10
-109.8492043563993
 20
35.04759487354603
 11
-112.3276622815635
 21
35.26929548225738
  0
LINE
  5
81
100
AcDbEntity
  8
0
  6
CONTINUOUS
 62
    7
370
   25
100
AcDbLine
 10
-112.3276622815635
 20
35.26929548225738
 11
-114.8080331610986
 21
35.46076974317957
  0
LINE
  5
82
100
AcDbEntity
  8
0
  6
CONTINUOUS
 62
    7
370
   25
100
AcDbLine
 10
-114.8080331610986
 20
35.46076974317957
 11
-117.2899226672042
 21
35.62042009145833
  0
LINE
  5
83
100
AcDbEntity
  8
0
  6
CONTINUOUS
 62
    7
370
   25
100
AcDbLine
 10
-117.2899226672042
 20
35.62042009145833
 11
-119.7729366781656
 21
35.74665177950241
  0
LINE
  5
84
100
AcDbEntity
  8
0
  6
CONTINUOUS
 62
    7
370
   25
100
AcDbLine
 10
-119.7729366781656
 20
35.74665177950241
 11
-122.256761522096
 21
35.83896983573116
  0
LINE
  5
85
100
AcDbEntity
  8
0
  6
CONTINUOUS
 62
    7
370
   25
100
AcDbLine
 10
-122.256761522096
 20
35.83896983573116
 11
-124.7412857279045
 21
35.89964344096395
  0
LINE
  5
86
100
AcDbEntity
  8
0
  6
CONTINUOUS
 62
    7
370
   25
100
AcDbLine
 10
-124.7412857279045
 20
35.89964344096395
 11
-127.2264290884941
 21
35.93136916525538
  0
LINE
  5
87
100
AcDbEntity
  8
0
  6
CONTINUOUS
 62
    7
370
   25
100
AcDbLine
 10
-127.2264290884941
 20
35.93136916525538
 11
-129.7121113967678
 21
35.93684357866006
  0
LINE
  5
88
100
AcDbEntity
  8
0
  6
CONTINUOUS
 62
    7
370
   25
100
AcDbLine
 10
-129.7121113967678
 20
35.93684357866006
 11
-132.1982524456285
 21
35.9187632512326
  0
LINE
  5
89
100
AcDbEntity
  8
0
  6
CONTINUOUS
 62
    7
370
   25
100
AcDbLine
 10
-132.1982524456285
 20
35.9187632512326
 11
-134.6847720279792
 21
35.87982475302763
  0
LINE
  5
8A
100
AcDbEntity
  8
0
  6
CONTINUOUS
 62
    7
370
   25
100
AcDbLine
 10
-134.6847720279792
 20
35.87982475302763
 11
-137.1715899367229
 21
35.82272465409972
  0
LINE
  5
8B
100
AcDbEntity
  8
0
  6
CONTINUOUS
 62
    7
370
   25
100
AcDbLine
 10
-137.1715899367229
 20
35.82272465409972
 11
-139.6586259647625
 21
35.75015952450347
  0
LINE
  5
8C
100
AcDbEntity
  8
0
  6
CONTINUOUS
 62
    7
370
   25
100
AcDbLine
 10
-139.6586259647625
 20
35.75015952450347
 11
-142.145799905001
 21
35.66482593429352
  0
LINE
  5
8D
100
AcDbEntity
  8
0
  6
CONTINUOUS
 62
    7
370
   25
100
AcDbLine
 10
-142.145799905001
 20
35.66482593429352
 11
-144.6329020248719
 21
35.56808527701267
  0
LINE
  5
8E
100
AcDbEntity
  8
0
  6
CONTINUOUS
 62
    7
370
   25
100
AcDbLine
 10
-144.6329020248719
 20
35.56808527701267
 11
-147.1191157187882
 21
35.45504316805134
  0
LINE
  5
8F
100
AcDbEntity
  8
0
  6
CONTINUOUS
 62
    7
370
   25
100
AcDbLine
 10
-147.1191157187882
 20
35.45504316805134
 11
-149.6034467944593
 21
35.31897462071002
  0
LINE
  5
90
100
AcDbEntity
  8
0
  6
CONTINUOUS
 62
    7
370
   25
100
AcDbLine
 10
-149.6034467944593
 20
35.31897462071002
 11
-152.0849010373857
 21
35.15315441934951
  0
LINE
  5
91
100
AcDbEntity
  8
0
  6
CONTINUOUS
 62
    7
370
   25
100
AcDbLine
 10
-152.0849010373857
 20
35.15315441934951
 11
-154.5624842330673
 21
34.95085734833057
  0
LINE
  5
92
100
AcDbEntity
  8
0
  6
CONTINUOUS
 62
    7
370
   25
100
AcDbLine
 10
-154.5624842330673
 20
34.95085734833057
 11
-157.0352021670044
 21
34.70535819201397
  0
LINE
  5
93
100
AcDbEntity
  8
0
  6
CONTINUOUS
 62
    7
370
   25
100
AcDbLine
 10
-157.0352021670044
 20
34.70535819201397
 11
-159.5020606246972
 21
34.40993173476053
  0
LINE
  5
94
100
AcDbEntity
  8
0
  6
CONTINUOUS
 62
    7
370
   25
100
AcDbLine
 10
-159.5020606246972
 20
34.40993173476053
 11
-161.9620653916458
 21
34.05785276093099
  0
LINE
  5
95
100
AcDbEntity
  8
0
  6
CONTINUOUS
 62
    7
370
   25
100
AcDbLine
 10
-161.9620653916458
 20
34.05785276093099
 11
-164.4142222533502
 21
33.64239605488614
  0
LINE
  5
96
100
AcDbEntity
  8
0
  6
CONTINUOUS
 62
    7
370
   25
100
AcDbLine
 10
-164.4142222533502
 20
33.64239605488614
 11
-166.8573265396493
 21
33.15726145200944
  0
LINE
  5
97
100
AcDbEntity
  8
0
  6
CONTINUOUS
 62
    7
370
   25
100
AcDbLine
 10
-166.8573265396493
 20
33.15726145200944
 11
-169.2882591548104
 21
32.60001529591207
  0
LINE
  5
98
100
AcDbEntity
  8
0
  6
CONTINUOUS
 62
    7
370
   25
100
AcDbLine
 10
-169.2882591548104
 20
32.60001529591207
 11
-171.7028790966746
 21
31.97028784413602
  0
LINE
  5
99
100
AcDbEntity
  8
0
  6
CONTINUOUS
 62
    7
370
   25
100
AcDbLine
 10
-171.7028790966746
 20
31.97028784413602
 11
-174.097035775999
 21
31.26772871697031
  0
LINE
  5
9A
100
AcDbEntity
  8
0
  6
CONTINUOUS
 62
    7
370
   25
100
AcDbLine
 10
-174.097035775999
 20
31.26772871697031
 11
-176.4665786035409
 21
30.49198753470394
  0
LINE
  5
9B
100
AcDbEntity
  8
0
  6
CONTINUOUS
 62
    7
370
   25
100
AcDbLine
 10
-176.4665786035409
 20
30.49198753470394
 11
-178.8073569900576
 21
29.64271391762593
  0
LINE
  5
9C
100
AcDbEntity
  8
0
  6
CONTINUOUS
 62
    7
370
   25
100
AcDbLine
 10
-178.8073569900576
 20
29.64271391762593
 11
-181.1152203463064
 21
28.71955748602528
  0
LINE
  5
9D
100
AcDbEntity
  8
0
  6
CONTINUOUS
 62
    7
370
   25
100
AcDbLine
 10
-181.1152203463064
 20
28.71955748602528
 11
-183.3860180830446
 21
27.72216786019102
  0
LINE
  5
9E
100
AcDbEntity
  8
0
  6
CONTINUOUS
 62
    7
370
   25
100
AcDbLine
 10
-183.3860180830446
 20
27.72216786019102
 11
-185.6155996110293
 21
26.65019466041214
  0
LINE
  5
9F
100
AcDbEntity
  8
0
  6
CONTINUOUS
 62
    7
370
   25
100
AcDbLine
 10
-185.6155996110293
 20
26.65019466041214
 11
-187.7997480040398
 21
25.5031644724353
  0
LINE
  5
A0
100
AcDbEntity
  8
0
  6
CONTINUOUS
 62
    7
370
   25
100
AcDbLine
 10
-187.7997480040398
 20
25.5031644724353
 11
-189.9328937912087
 21
24.27809533072293
  0
LINE
  5
A1
100
AcDbEntity
  8
0
  6
CONTINUOUS
 62
    7
370
   25
100
AcDbLine
 10
-189.9328937912087
 20
24.27809533072293
 11
-192.0082047109533
 21
22.96966318418908
  0
LINE
  5
A2
100
AcDbEntity
  8
0
  6
CONTINUOUS
 62
    7
370
   25
100
AcDbLine
 10
-192.0082047109533
 20
22.96966318418908
 11
-194.0188001420341
 21
21.57245428956641
  0
LINE
  5
A3
100
AcDbEntity
  8
0
  6
CONTINUOUS
 62
    7
370
   25
100
AcDbLine
 10
-194.0188001420341
 20
21.57245428956641
 11
-195.9577994632114
 21
20.08105490358757
  0
LINE
  5
A4
100
AcDbEntity
  8
0
  6
CONTINUOUS
 62
    7
370
   25
100
AcDbLine
 10
-195.9577994632114
 20
20.08105490358757
 11
-197.8183220532456
 21
18.49005128298522
  0
LINE
  5
A5
100
AcDbEntity
  8
0
  6
CONTINUOUS
 62
    7
370
   25
100
AcDbLine
 10
-197.8183220532456
 20
18.49005128298522
 11
-199.5934872908971
 21
16.79402968449202
  0
LINE
  5
A6
100
AcDbEntity
  8
0
  6
CONTINUOUS
 62
    7
370
   25
100
AcDbLine
 10
-199.5934872908971
 20
16.79402968449202
 11
-201.2764145549263
 21
14.98757636484064
  0
LINE
  5
A7
100
AcDbEntity
  8
0
  6
CONTINUOUS
 62
    7
370
   25
100
AcDbLine
 10
-201.2764145549263
 20
14.98757636484064
 11
-202.8602232240935
 21
13.06527758076372
  0
LINE
  5
A8
100
AcDbEntity
  8
0
  6
CONTINUOUS
 62
    7
370
   25
100
AcDbLine
 10
-202.8602232240935
 20
13.06527758076372
 11
-204.3379527918523
 21
11.02186129970762
  0
LINE
  5
A9
100
AcDbEntity
  8
0
  6
CONTINUOUS
 62
    7
370
   25
100
AcDbLine
 10
-204.3379527918523
 20
11.02186129970762
 11
-205.6971835525214
 21
8.861739710623091
  0
LINE
  5
AA
100
AcDbEntity
  8
0
  6
CONTINUOUS
 62
    7
370
   25
100
AcDbLine
 10
-205.6971835525214
 20
8.861739710623091
 11
-206.9166270520112
 21
6.605057515954162
  0
LINE
  5
AB
100
AcDbEntity
  8
0
  6
CONTINUOUS
 62
    7
370
   25
100
AcDbLine
 10
-206.9166270520112
 20
6.605057515954162
 11
-207.9741822991071
 21
4.273400799802285
  0
LINE
  5
AC
100
AcDbEntity
  8
0
  6
CONTINUOUS
 62
    7
370
   25
100
AcDbLine
 10
-207.9741822991071
 20
4.273400799802285
 11
-208.8477483025945
 21
1.888355646268914
  0
LINE
  5
AD
100
AcDbEntity
  8
0
  6
CONTINUOUS
 62
    7
370
   25
100
AcDbLine
 10
-208.8477483025945
 20
1.888355646268914
 11
-209.5152240712591
 21
-0.5284918605444962
  0
LINE
  5
AE
100
AcDbEntity
  8
0
  6
CONTINUOUS
 62
    7
370
   25
100
AcDbLine
 10
-209.5152240712591
 20
-0.5284918605444962
 11
-209.9545086138862
 21
-2.955555636536492
  0
LINE
  5
AF
100
AcDbEntity
  8
0
  6
CONTINUOUS
 62
    7
370
   25
100
AcDbLine
 10
-209.9545086138862
 20
-2.955555636536492
 11
-210.1435009392613
 21
-5.371249597605619
  0
LINE
  5
B0
100
AcDbEntity
  8
0
  6
CONTINUOUS
 62
    7
370
   25
100
AcDbLine
 10
-210.1435009392613
 20
-5.371249597605619
 11
-210.0601000561701
 21
-7.753987659650425
  0
LINE
  5
B1
100
AcDbEntity
  8
0
  6
CONTINUOUS
 62
    7
370
   25
100
AcDbLine
 10
-210.0601000561701
 20
-7.753987659650425
 11
-209.6822158450438
 21
-10.08218824427377
  0
LINE
  5
B2
100
AcDbEntity
  8
0
  6
CONTINUOUS
 62
    7
370
   25
100
AcDbLine
 10
-209.6822158450438
 20
-10.08218824427377
 11
-209.0002999888924
 21
-12.33946766622253
  0
LINE
  5
B3
100
AcDbEntity
  8
0
  6
CONTINUOUS
 62
    7
370
   25
100
AcDbLine
 10
-209.0002999888924
 20
-12.33946766622253
 11
-208.0415014116862
 21
-14.52465124516945
  0
LINE
  5
B4
100
AcDbEntity
  8
0
  6
CONTINUOUS
 62
    7
370
   25
100
AcDbLine
 10
-208.0415014116862
 20
-14.52465124516945
 11
-206.8396455869751
 21
-16.63933136645163
  0
LINE
  5
B5
100
AcDbEntity
  8
0
  6
CONTINUOUS
 62
    7
370
   25
100
AcDbLine
 10
-206.8396455869751
 20
-16.63933136645163
 11
-205.428557988309
 21
-18.6851004154062
  0
LINE
  5
B6
100
AcDbEntity
  8
0
  6
CONTINUOUS
 62
    7
370
   25
100
AcDbLine
 10
-205.428557988309
 20
-18.6851004154062
 11
-203.8420640892374
 21
-20.66355077737027
  0
LINE
  5
B7
100
AcDbEntity
  8
0
  6
CONTINUOUS
 62
    7
370
   25
100
AcDbLine
 10
-203.8420640892374
 20
-20.66355077737027
 11
-202.1139893633103
 21
-22.57627483768097
  0
LINE
  5
B8
100
AcDbEntity
  8
0
  6
CONTINUOUS
 62
    7
370
   25
100
AcDbLine
 10
-202.1139893633103
 20
-22.57627483768097
 11
-200.2781592840776
 21
-24.42486498167538
  0
LINE
  5
B9
100
AcDbEntity
  8
0
  6
CONTINUOUS
 62
    7
370
   25
100
AcDbLine
 10
-200.2781592840776
 20
-24.42486498167538
 11
-198.3683993250888
 21
-26.21091359469065
  0
LINE
  5
BA
100
AcDbEntity
  8
0
  6
CONTINUOUS
 62
    7
370
   25
100
AcDbLine
 10
-198.3683993250888
 20
-26.21091359469065
 11
-196.4185349598938
 21
-27.93601306206389
  0
LINE
  5
BB
100
AcDbEntity
  8
0
  6
CONTINUOUS
 62
    7
370
   25
100
AcDbLine
 10
-196.4185349598938
 20
-27.93601306206389
 11
-194.4578831437607
 21
-29.60172613101668
  0
LINE
  5
BC
100
AcDbEntity
  8
0
  6
CONTINUOUS
 62
    7
370
   25
100
AcDbLine
 10
-194.4578831437607
 20
-29.60172613101668
 11
-192.4909800406519
 21
-31.20945264470564
  0
LINE
  5
BD
100
AcDbEntity
  8
0
  6
CONTINUOUS
 62
    7
370
   25
100
AcDbLine
 10
-192.4909800406519
 20
-31.20945264470564
 11
-190.5138926276338
 21
-32.76053677151266
  0
LINE
  5
BE
100
AcDbEntity
  8
0
  6
CONTINUOUS
 62
    7
370
   25
100
AcDbLine
 10
-190.5138926276338
 20
-32.76053677151266
 11
-188.5226805404031
 21
-34.25632263155892
  0
LINE
  5
BF
100
AcDbEntity
  8
0
  6
CONTINUOUS
 62
    7
370
   25
100
AcDbLine
 10
-188.5226805404031
 20
-34.25632263155892
 11
-186.5134034146569
 21
-35.69815434496562
  0
LINE
  5
C0
100
AcDbEntity
  8
0
  6
CONTINUOUS
 62
    7
370
   25
100
AcDbLine
 10
-186.5134034146569
 20
-35.69815434496562
 11
-184.4821208860922
 21
-37.08737603185391
  0
LINE
  5
C1
100
AcDbEntity
  8
0
  6
CONTINUOUS
 62
    7
370
   25
100
AcDbLine
 10
-184.4821208860922
 20
-37.08737603185391
 11
-182.4248925904059
 21
-38.42533181234499
  0
LINE
  5
C2
100
AcDbEntity
  8
0
  6
CONTINUOUS
 62
    7
370
   25
100
AcDbLine
 10
-182.4248925904059
 20
-38.42533181234499
 11
-180.3377781632951
 21
-39.71336580656003
  0
LINE
  5
C3
100
AcDbEntity
  8
0
  6
CONTINUOUS
 62
    7
370
   25
100
AcDbLine
 10
-180.3377781632951
 20
-39.71336580656003
 11
-178.2168372404567
 21
-40.95282213462023
  0
LINE
  5
C4
100
AcDbEntity
  8
0
  6
CONTINUOUS
 62
    7
370
   25
100
AcDbLine
 10
-178.2168372404567
 20
-40.95282213462023
 11
-176.0585332783491
 21
-42.14501247634437
  0
LINE
  5
C5
100
AcDbEntity
  8
0
  6
CONTINUOUS
 62
    7
370
   25
100
AcDbLine
 10
-176.0585332783491
 20
-42.14501247634437
 11
-173.863737390171
 21
-43.29089442941616
  0
LINE
  5
C6
100
AcDbEntity
  8
0
  6
CONTINUOUS
 62
    7
370
   25
100
AcDbLine
 10
-173.863737390171
 20
-43.29089442941616
 11
-171.6360338426298
 21
-44.39120763462196
  0
LINE
  5
C7
100
AcDbEntity
  8
0
  6
CONTINUOUS
 62
    7
370
   25
100
AcDbLine
 10
-171.6360338426298
 20
-44.39120763462196
 11
-169.3790466044287
 21
-45.44668854335115
  0
LINE
  5
C8
100
AcDbEntity
  8
0
  6
CONTINUOUS
 62
    7
370
   25
100
AcDbLine
 10
-169.3790466044287
 20
-45.44668854335115
 11
-167.0963996442708
 21
-46.45807360699305
  0
LINE
  5
C9
100
AcDbEntity
  8
0
  6
CONTINUOUS
 62
    7
370
   25
100
AcDbLine
 10
-167.0963996442708
 20
-46.45807360699305
 11
-164.7917169308593
 21
-47.42609927693704
  0
LINE
  5
CA
100
AcDbEntity
  8
0
  6
CONTINUOUS
 62
    7
370
   25
100
AcDbLine
 10
-164.7917169308593
 20
-47.42609927693704
 11
-162.4686224328973
 21
-48.35150200457247
  0
LINE
  5
CB
100
AcDbEntity
  8
0
  6
CONTINUOUS
 62
    7
370
   25
100
AcDbLine
 10
-162.4686224328973
 20
-48.35150200457247
 11
-160.130740119088
 21
-49.23501824128866
  0
LINE
  5
CC
100
AcDbEntity
  8
0
  6
CONTINUOUS
 62
    7
370
   25
100
AcDbLine
 10
-160.130740119088
 20
-49.23501824128866
 11
-157.7816939581345
 21
-50.07738443847499
  0
LINE
  5
CD
100
AcDbEntity
  8
0
  6
CONTINUOUS
 62
    7
370
   25
100
AcDbLine
 10
-157.7816939581345
 20
-50.07738443847499
 11
-155.4250374615353
 21
-50.87936854154645
  0
LINE
  5
CE
100
AcDbEntity
  8
0
  6
CONTINUOUS
 62
    7
370
   25
100
AcDbLine
 10
-155.4250374615353
 20
-50.87936854154645
 11
-153.0624843282393
 21
-51.6425608831228
  0
LINE
  5
CF
100
AcDbEntity
  8
0
  6
CONTINUOUS
 62
    7
370
   25
100
AcDbLine
 10
-153.0624843282393
 20
-51.6425608831228
 11
-150.6937776783934
 21
-52.36943263490329
  0
LINE
  5
D0
100
AcDbEntity
  8
0
  6
CONTINUOUS
 62
    7
370
   25
100
AcDbLine
 10
-150.6937776783934
 20
-52.36943263490329
 11
-148.3185639830297
 21
-53.0624981702685
  0
LINE
  5
D1
100
AcDbEntity
  8
0
  6
CONTINUOUS
 62
    7
370
   25
100
AcDbLine
 10
-148.3185639830297
 20
-53.0624981702685
 11
-145.9364897131805
 21
-53.72427186259897
  0
LINE
  5
D2
100
AcDbEntity
  8
0
  6
CONTINUOUS
 62
    7
370
   25
100
AcDbLine
 10
-145.9364897131805
 20
-53.72427186259897
 11
-143.5472013398779
 21
-54.35726808527522
  0
LINE
  5
D3
100
AcDbEntity
  8
0
  6
CONTINUOUS
 62
    7
370
   25
100
AcDbLine
 10
-143.5472013398779
 20
-54.35726808527522
 11
-141.1503453341541
 21
-54.96400121167784
  0
LINE
  5
D4
100
AcDbEntity
  8
0
  6
CONTINUOUS
 62
    7
370
   25
100
AcDbLine
 10
-141.1503453341541
 20
-54.96400121167784
 11
-138.7455681670412
 21
-55.54698561518737
  0
LINE
  5
D5
100
AcDbEntity
  8
0
  6
CONTINUOUS
 62
    7
370
   25
100
AcDbLine
 10
-138.7455681670412
 20
-55.54698561518737
 11
-136.3325163095713
 21
-56.10873566918433
  0
LINE
  5
D6
100
AcDbEntity
  8
0
  6
CONTINUOUS
 62
    7
370
   25
100
AcDbLine
 10
-136.3325163095713
 20
-56.10873566918433
 11
-133.9108415890096
 21
-56.65176361009901
  0
LINE
  5
D7
100
AcDbEntity
  8
0
  6
CONTINUOUS
 62
    7
370
   25
100
AcDbLine
 10
-133.9108415890096
 20
-56.65176361009901
 11
-131.4807667642019
 21
-57.17835389255661
  0
LINE
  5
D8
100
AcDbEntity
  8
0
  6
CONTINUOUS
 62
    7
370
   25
100
AcDbLine
 10
-131.4807667642019
 20
-57.17835389255661
 11
-129.043584169436
 21
-57.69036424785335
  0
LINE
  5
D9
100
AcDbEntity
  8
0
  6
CONTINUOUS
 62
    7
370
   25
100
AcDbLine
 10
-129.043584169436
 20
-57.69036424785335
 11
-126.6007037190248
 21
-58.18960549695276
  0
LINE
  5
DA
100
AcDbEntity
  8
0
  6
CONTINUOUS
 62
    7
370
   25
100
AcDbLine
 10
-126.6007037190248
 20
-58.18960549695276
 11
-124.1535353272816
 21
-58.67788846081832
  0
LINE
  5
DB
100
AcDbEntity
  8
0
  6
CONTINUOUS
 62
    7
370
   25
100
AcDbLine
 10
-124.1535353272816
 20
-58.67788846081832
 11
-121.7034889085192
 21
-59.15702396041353
  0
LINE
  5
DC
100
AcDbEntity
  8
0
  6
CONTINUOUS
 62
    7
370
   25
100
AcDbLine
 10
-121.7034889085192
 20
-59.15702396041353
 11
-119.251974377051
 21
-59.62882281670193
  0
LINE
  5
DD
100
AcDbEntity
  8
0
  6
CONTINUOUS
 62
    7
370
   25
100
AcDbLine
 10
-119.251974377051
 20
-59.62882281670193
 11
-116.8004016471898
 21
-60.09509585064697
  0
LINE
  5
DE
100
AcDbEntity
  8
0
  6
CONTINUOUS
 62
    7
370
   25
100
AcDbLine
 10
-116.8004016471898
 20
-60.09509585064697
 11
-114.3501806332487
 21
-60.5576538832122
  0
LINE
  5
DF
100
AcDbEntity
  8
0
  6
CONTINUOUS
 62
    7
370
   25
100
AcDbLine
 10
-114.3501806332487
 20
-60.5576538832122
 11
-111.9027211868595
 21
-61.01830764532738
  0
LINE
  5
E0
100
AcDbEntity
  8
0
  6
CONTINUOUS
 62
    7
370
   25
100
AcDbLine
 10
-111.9027211868595
 20
-61.01830764532738
 11
-109.45893195889
 21
-61.47814795813723
  0
LINE
  5
E1
100
AcDbEntity
  8
0
  6
CONTINUOUS
 62
    7
370
   25
100
AcDbLine
 10
-109.45893195889
 20
-61.47814795813723
 11
-107.0180088299654
 21
-61.93580547084113
  0
LINE
  5
E2
100
AcDbEntity
  8
0
  6
CONTINUOUS
 62
    7
370
   25
100
AcDbLine
 10
-107.0180088299654
 20
-61.93580547084113
 11
-104.5787821225747
 21
-62.38938575586675
  0
LINE
  5
E3
100
AcDbEntity
  8
0
  6
CONTINUOUS
 62
    7
370
   25
100
AcDbLine
 10
-104.5787821225747
 20
-62.38938575586675
 11
-102.1400821592071
 21
-62.83699438564177
  0
LINE
  5
E4
100
AcDbEntity
  8
0
  6
CONTINUOUS
 62
    7
370
   25
100
AcDbLine
 10
-102.1400821592071
 20
-62.83699438564177
 11
-99.70073926235187
 21
-63.27673693259386
  0
LINE
  5
E5
100
AcDbEntity
  8
0
  6
CONTINUOUS
 62
    7
370
   25
100
AcDbLine
 10
-99.70073926235187
 20
-63.27673693259386
 11
-97.25958375449812
 21
-63.70671896915068
  0
LINE
  5
E6
100
AcDbEntity
  8
0
  6
CONTINUOUS
 62
    7
370
   25
100
AcDbLine
 10
-97.25958375449812
 20
-63.70671896915068
 11
-94.81544595813507
 21
-64.12504606773996
  0
LINE
  5
E7
100
AcDbEntity
  8
0
  6
CONTINUOUS
 62
    7
370
   25
100
AcDbLine
 10
-94.81544595813507
 20
-64.12504606773996
 11
-92.3671561957519
 21
-64.52982380078934
  0
LINE
  5
E8
100
AcDbEntity
  8
0
  6
CONTINUOUS
 62
    7
370
   25
100
AcDbLine
 10
-92.3671561957519
 20
-64.52982380078934
 11
-89.9135447898378
 21
-64.91915774072653
  0
LINE
  5
E9
100
AcDbEntity
  8
0
  6
CONTINUOUS
 62
    7
370
   25
100
AcDbLine
 10
-89.9135447898378
 20
-64.91915774072653
 11
-87.453662827068
 21
-65.29060363797132
  0
LINE
  5
EA
100
AcDbEntity
  8
0
  6
CONTINUOUS
 62
    7
370
   25
100
AcDbLine
 10
-87.453662827068
 20
-65.29060363797132
 11
-84.98798919295859
 21
-65.6381612529993
  0
LINE
  5
EB
100
AcDbEntity
  8
0
  6
CONTINUOUS
 62
    7
370
   25
100
AcDbLine
 10
-84.98798919295859
 20
-65.6381612529993
 11
-82.51757085274269
 21
-65.9544155210998
  0
LINE
  5
EC
100
AcDbEntity
  8
0
  6
CONTINUOUS
 62
    7
370
   25
100
AcDbLine
 10
-82.51757085274269
 20
-65.9544155210998
 11
-80.04345622688602
 21
-66.23194775324714
  0
LINE
  5
ED
100
AcDbEntity
  8
0
  6
CONTINUOUS
 62
    7
370
   25
100
AcDbLine
 10
-80.04345622688602
 20
-66.23194775324714
 11
-77.56669373585439
 21
-66.46333926041561
  0
LINE
  5
EE
100
AcDbEntity
  8
0
  6
CONTINUOUS
 62
    7
370
   25
100
AcDbLine
 10
-77.56669373585439
 20
-66.46333926041561
 11
-75.08833180011351
 21
-66.64117135357951
  0
LINE
  5
EF
100
AcDbEntity
  8
0
  6
CONTINUOUS
 62
    7
370
   25
100
AcDbLine
 10
-75.08833180011351
 20
-66.64117135357951
 11
-72.60941884012917
 21
-66.75802534371316
  0
LINE
  5
F0
100
AcDbEntity
  8
0
  6
CONTINUOUS
 62
    7
370
   25
100
AcDbLine
 10
-72.60941884012917
 20
-66.75802534371316
 11
-70.13100327636714
 21
-66.80648254179087
  0
LINE
  5
F1
100
AcDbEntity
  8
0
  6
CONTINUOUS
 62
    7
370
   25
100
AcDbLine
 10
-70.13100327636714
 20
-66.80648254179087
 11
-67.65413352929318
 21
-66.77912425878695
  0
LINE
  5
F2
100
AcDbEntity
  8
0
  6
CONTINUOUS
 62
    7
370
   25
100
AcDbLine
 10
-67.65413352929318
 20
-66.77912425878695
 11
-65.1798417973103
 21
-66.66898845404734
  0
LINE
  5
F3
100
AcDbEntity
  8
0
  6
CONTINUOUS
 62
    7
370
   25
100
AcDbLine
 10
-65.1798417973103
 20
-66.66898845404734
 11
-62.70894549608281
 21
-66.47515918535272
  0
LINE
  5
F4
100
AcDbEntity
  8
0
  6
CONTINUOUS
 62
    7
370
   25
100
AcDbLine
 10
-62.70894549608281
 20
-66.47515918535272
 11
-60.242109921886
 21
-66.20100264602443
  0
LINE
  5
F5
100
AcDbEntity
  8
0
  6
CONTINUOUS
 62
    7
370
   25
100
AcDbLine
 10
-60.242109921886
 20
-66.20100264602443
 11
-57.77999715099089
 21
-65.84997567197151
  0
LINE
  5
F6
100
AcDbEntity
  8
0
  6
CONTINUOUS
 62
    7
370
   25
100
AcDbLine
 10
-57.77999715099089
 20
-65.84997567197151
 11
-55.32326925966844
 21
-65.42553509910296
  0
LINE
  5
F7
100
AcDbEntity
  8
0
  6
CONTINUOUS
 62
    7
370
   25
100
AcDbLine
 10
-55.32326925966844
 20
-65.42553509910296
 11
-52.87258832418964
 21
-64.93113776332781
  0
LINE
  5
F8
100
AcDbEntity
  8
0
  6
CONTINUOUS
 62
    7
370
   25
100
AcDbLine
 10
-52.87258832418964
 20
-64.93113776332781
 11
-50.42861642082543
 21
-64.37024050055506
  0
LINE
  5
F9
100
AcDbEntity
  8
0
  6
CONTINUOUS
 62
    7
370
   25
100
AcDbLine
 10
-50.42861642082543
 20
-64.37024050055506
 11
-47.99201562584683
 21
-63.74630014669374
  0
LINE
  5
FA
100
AcDbEntity
  8
0
  6
CONTINUOUS
 62
    7
370
   25
100
AcDbLine
 10
-47.99201562584683
 20
-63.74630014669374
 11
-45.5634480155248
 21
-63.06277353765289
  0
LINE
  5
FB
100
AcDbEntity
  8
0
  6
CONTINUOUS
 62
    7
370
   25
100
AcDbLine
 10
-45.5634480155248
 20
-63.06277353765289
 11
-43.14375463099091
 21
-62.3229550339124
  0
LINE
  5
FC
100
AcDbEntity
  8
0
  6
CONTINUOUS
 62
    7
370
   25
100
AcDbLine
 10
-43.14375463099091
 20
-62.3229550339124
 11
-40.73994066438518
 21
-61.52454279635801
  0
LINE
  5
FD
100
AcDbEntity
  8
0
  6
CONTINUOUS
 62
    7
370
   25
100
AcDbLine
 10
-40.73994066438518
 20
-61.52454279635801
 11
-38.36658795299993
 21
-60.65835643626362
  0
LINE
  5
FE
100
AcDbEntity
  8
0
  6
CONTINUOUS
 62
    7
370
   25
100
AcDbLine
 10
-38.36658795299993
 20
-60.65835643626362
 11
-36.03874357285682
 21
-59.71479319225451
  0
LINE
  5
FF
100
AcDbEntity
  8
0
  6
CONTINUOUS
 62
    7
370
   25
100
AcDbLine
 10
-36.03874357285682
 20
-59.71479319225451
 11
-33.7714545999775
 21
-58.6842503029559
  0
LINE
  5
100
100
AcDbEntity
  8
0
  6
CONTINUOUS
 62
    7
370
   25
100
AcDbLine
 10
-33.7714545999775
 20
-58.6842503029559
 11
-31.57976811038365
 21
-57.55712500699304
  0
LINE
  5
101
100
AcDbEntity
  8
0
  6
CONTINUOUS
 62
    7
370
   25
100
AcDbLine
 10
-31.57976811038365
 20
-57.55712500699304
 11
-29.47873118009692
 21
-56.32381454299116
  0
LINE
  5
102
100
AcDbEntity
  8
0
  6
CONTINUOUS
 62
    7
370
   25
100
AcDbLine
 10
-29.47873118009692
 20
-56.32381454299116
 11
-27.48339088513896
 21
-54.97471614957548
  0
LINE
  5
103
100
AcDbEntity
  8
0
  6
CONTINUOUS
 62
    7
370
   25
100
AcDbLine
 10
-27.48339088513896
 20
-54.97471614957548
 11
-25.60879430153144
 21
-53.50022706537124
  0
LINE
  5
104
100
AcDbEntity
  8
0
  6
CONTINUOUS
 62
    7
370
   25
100
AcDbLine
 10
-25.60879430153144
 20
-53.50022706537124
 11
-23.86992927160695
 21
-51.89080442074921
  0
LINE
  5
105
100
AcDbEntity
  8
0
  6
CONTINUOUS
 62
    7
370
   25
100
AcDbLine
 10
-23.86992927160695
 20
-51.89080442074921
 11
-22.27075969284794
 21
-50.1480517614043
  0
LINE
  5
106
100
AcDbEntity
  8
0
  6
CONTINUOUS
 62
    7
370
   25
100
AcDbLine
 10
-22.27075969284794
 20
-50.1480517614043
 11
-20.79136717972841
 21
-48.29772023617357
  0
LINE
  5
107
100
AcDbEntity
  8
0
  6
CONTINUOUS
 62
    7
370
   25
100
AcDbLine
 10
-20.79136717972841
 20
-48.29772023617357
 11
-19.40870969515077
 21
-46.36871934766104
  0
LINE
  5
108
100
AcDbEntity
  8
0
  6
CONTINUOUS
 62
    7
370
   25
100
AcDbLine
 10
-19.40870969515077
 20
-46.36871934766104
 11
-18.09974520201742
 21
-44.38995859847079
  0
LINE
  5
109
100
AcDbEntity
  8
0
  6
CONTINUOUS
 62
    7
370
   25
100
AcDbLine
 10
-18.09974520201742
 20
-44.38995859847079
 11
-16.8414316632308
 21
-42.39034749120686
  0
LINE
  5
10A
100
AcDbEntity
  8
0
  6
CONTINUOUS
 62
    7
370
   25
100
AcDbLine
 10
-16.8414316632308
 20
-42.39034749120686
 11
-15.61072704169329
 21
-40.39879552847329
  0
LINE
  5
10B
100
AcDbEntity
  8
0
  6
CONTINUOUS
 62
    7
370
   25
100
AcDbLine
 10
-15.61072704169329
 20
-40.39879552847329
 11
-14.38458930030733
 21
-38.44421221287416
  0
LINE
  5
10C
100
AcDbEntity
  8
0
  6
CONTINUOUS
 62
    7
370
   25
100
AcDbLine
 10
-14.38458930030733
 20
-38.44421221287416
 11
-13.13997640197531
 21
-36.55550704701352
  0
LINE
  5
10D
100
AcDbEntity
  8
0
  6
CONTINUOUS
 62
    7
370
   25
100
AcDbLine
 10
-13.13997640197531
 20
-36.55550704701352
 11
-11.85384630960022
 21
-34.76158953349614
  0
DIMENSION
  5
10E
100
AcDbEntity
  8
temp
  6
ByLayer
 62
  256
370
   -1
100
AcDbDimension
  2
*D1
 10
-210
 20
70
 30
0
 11
-105
 21
70
 31
0
 70
   32
 71
    5
  3
Standard
 53
0
210
0
220
0
230
1
100
AcDbAlignedDimension
 13
0
 23
0
 33
0
 14
-210
 24
-10
 34
0
100
AcDbRotatedDimension
  0
ENDSEC
  0
SECTION
  2
OBJECTS
  0
DICTIONARY
  5
C
330
0
100
AcDbDictionary
281
    1
  3
ACAD_GROUP
350
D
  0
DICTIONARY
  5
D
330
C
100
AcDbDictionary
281
    1
  0
ENDSEC
  0
EOF
