999
dxfrw 0.6.3
  0
SECTION
  2
HEADER
  9
$ACADVER
  1
AC1009
  9
$DWGCODEPAGE
  3
ANSI_1252
  9
$INSBASE
 10
0
 20
0
 30
0
  9
$EXTMIN
 10
46.445376305
 20
-141.0805623432
 30
0
  9
$EXTMAX
 10
254
 20
-41.87009369919999
 30
0
  9
$LIMMIN
 10
0
 20
0
  9
$LIMMAX
 10
420
 20
297
  9
$ORTHOMODE
 70
    0
  9
$REGENMODE
 70
    1
  9
$FILLMODE
 70
    1
  9
$QTEXTMODE
 70
    0
  9
$MIRRTEXT
 70
    1
  9
$DRAGMODE
 70
    2
  9
$LTSCALE
 40
1
  9
$OSMODE
 70
    0
  9
$ATTMODE
 70
    1
  9
$TEXTSIZE
 40
3.5
  9
$TRACEWID
 40
1
  9
$TEXTSTYLE
  7
STANDARD
  9
$CLAYER
  8
0
  9
$CELTYPE
  6
BYLAYER
  9
$CECOLOR
 62
  256
  9
$DIMSCALE
 40
1
  9
$DIMASZ
 40
3.302
  9
$DIMEXO
 40
1
  9
$DIMDLI
 40
3.75
  9
$DIMRND
 40
0
  9
$DIMDLE
 40
0
  9
$DIMEXE
 40
1
  9
$DIMTP
 40
0
  9
$DIMTM
 40
0
  9
$DIMTXT
 40
3.5
  9
$DIMCEN
 40
2.5
  9
$DIMTSZ
 40
0
  9
$DIMTOL
 70
    0
  9
$DIMLIM
 70
    0
  9
$DIMTIH
 70
    1
  9
$DIMTOH
 70
    1
  9
$DIMSE1
 70
    0
  9
$DIMSE2
 70
    0
  9
$DIMTAD
 70
    1
  9
$DIMZIN
 70
    0
  9
$DIMBLK
  1

  9
$DIMASO
 70
    1
  9
$DIMSHO
 70
    1
  9
$DIMPOST
  1

  9
$DIMAPOST
  1

  9
$DIMALT
 70
    0
  9
$DIMALTD
 70
    3
  9
$DIMALTF
 40
0.0393700787
  9
$DIMLFAC
 40
1
  9
$DIMTOFL
 70
    1
  9
$DIMTVP
 40
0
  9
$DIMTIX
 70
    0
  9
$DIMSOXD
 70
    0
  9
$DIMSAH
 70
    0
  9
$DIMBLK1
  1

  9
$DIMBLK2
  1

  9
$DIMSTYLE
  2
ISO-25
  9
$DIMCLRD
 70
    0
  9
$DIMCLRE
 70
    0
  9
$DIMCLRT
 70
    0
  9
$DIMTFAC
 40
1
  9
$DIMGAP
 40
1.524
  9
$LUNITS
 70
    2
  9
$LUPREC
 70
    2
  9
$SKETCHINC
 40
1
  9
$FILLETRAD
 40
10
  9
$AUNITS
 70
    0
  9
$AUPREC
 70
    2
  9
$MENU
  1
.
  9
$ELEVATION
 40
0
  9
$PELEVATION
 40
0
  9
$THICKNESS
 40
0
  9
$LIMCHECK
 70
    0
  9
$BLIPMODE
 70
    0
  9
$CHAMFERA
 40
0
  9
$CHAMFERB
 40
0
  9
$SKPOLY
 70
    0
  9
$USRTIMER
 70
    1
  9
$ANGBASE
 50
0
  9
$ANGDIR
 70
    0
  9
$PDMODE
 70
    0
  9
$PDSIZE
 40
-1
  9
$PLINEWID
 40
0
  9
$COORDS
 70
    2
  9
$SPLFRAME
 70
    0
  9
$SPLINETYPE
 70
    6
  9
$SPLINESEGS
 70
    8
  9
$ATTDIA
 70
    1
  9
$ATTREQ
 70
    1
  9
$HANDLING
 70
    1
  9
$HANDSEED
  5
20000
  9
$SURFTAB1
 70
    6
  9
$SURFTAB2
 70
    6
  9
$SURFTYPE
 70
    6
  9
$SURFU
 70
    6
  9
$SURFV
 70
    6
  9
$UCSNAME
  2

  9
$UCSORG
 10
0
 20
0
 30
0
  9
$UCSXDIR
 10
1
 20
0
 30
0
  9
$UCSYDIR
 10
0
 20
1
 30
0
  9
$PUCSNAME
  2

  9
$PUCSORG
 10
0
 20
0
 30
0
  9
$PUCSXDIR
 10
1
 20
0
 30
0
  9
$PUCSYDIR
 10
0
 20
1
 30
0
  9
$USERI1
 70
    0
  9
$USERI2
 70
    0
  9
$USERI3
 70
    0
  9
$USERI4
 70
    0
  9
$USERI5
 70
    0
  9
$USERR1
 40
0
  9
$USERR2
 40
0
  9
$USERR3
 40
0
  9
$USERR4
 40
0
  9
$USERR5
 40
0
  9
$WORLDVIEW
 70
    1
  9
$SHADEDGE
 70
    3
  9
$SHADEDIF
 70
   70
  9
$TILEMODE
 70
    1
  9
$MAXACTVP
 70
   64
  9
$PLIMCHECK
 70
    0
  9
$PEXTMIN
 10
1e+20
 20
1e+20
 30
1e+20
  9
$PEXTMAX
 10
-1e+20
 20
-1e+20
 30
-1e+20
  9
$GRIDMODE
 70
    1
  9
$SNAPSTYLE
 70
    0
  9
$PLIMMIN
 10
0
 20
0
  9
$PLIMMAX
 10
420
 20
297
  9
$UNITMODE
 70
    0
  9
$VISRETAIN
 70
    1
  9
$PLINEGEN
 70
    0
  9
$PSLTSCALE
 70
    1
  0
ENDSEC
  0
SECTION
  2
TABLES
  0
TABLE
  2
VPORT
 70
    1
  0
VPORT
  2
*ACTIVE
 70
    0
 10
0
 20
0
 11
1
 21
1
 12
127.6636372012159
 22
-18.69071221180592
 13
0
 23
0
 14
10
 24
10
 15
10
 25
10
 16
0
 26
0
 36
1
 17
0
 27
0
 37
0
 40
107.9607925591677
 41
1.9475
 42
50
 43
0
 44
0
 50
0
 51
0
 71
    0
 72
  100
 73
    1
 74
    3
 75
    0
 76
    1
 77
    0
 78
    0
  0
ENDTAB
  0
TABLE
  2
LTYPE
 70
    4
  0
LTYPE
  2
BYBLOCK
 70
    0
  3

 72
   65
 73
    0
 40
0
  0
LTYPE
  2
BYLAYER
 70
    0
  3

 72
   65
 73
    0
 40
0
  0
LTYPE
  2
CONTINUOUS
 70
    0
  3
Solid line
 72
   65
 73
    0
 40
0
  0
LTYPE
  2
DOT
 70
    0
  3
Dot . . . . . . . . . . . . . . . . . . . . . .
 72
   65
 73
    2
 40
6.35
 49
0
 49
-6.35
  0
LTYPE
  2
DOTTINY
 70
    0
  3
Dot (.15x) .....................................
 72
   65
 73
    2
 40
0.9525
 49
0
 49
-0.9525
  0
LTYPE
  2
DOT2
 70
    0
  3
Dot (.5x) .....................................
 72
   65
 73
    2
 40
3.175
 49
0
 49
-3.175
  0
LTYPE
  2
DOTX2
 70
    0
  3
Dot (2x) .  .  .  .  .  .  .  .  .  .  .  .  .
 72
   65
 73
    2
 40
12.7
 49
0
 49
-12.7
  0
LTYPE
  2
DASHED
 70
    0
  3
Dashed _ _ _ _ _ _ _ _ _ _ _ _ _ _ _ _ _
 72
   65
 73
    2
 40
19.05
 49
12.7
 49
-6.35
  0
LTYPE
  2
DASHEDTINY
 70
    0
  3
Dashed (.15x) _ _ _ _ _ _ _ _ _ _ _ _ _ _ _ _ _
 72
   65
 73
    2
 40
2.8575
 49
1.905
 49
-0.9525
  0
LTYPE
  2
DASHED2
 70
    0
  3
Dashed (.5x) _ _ _ _ _ _ _ _ _ _ _ _ _ _ _ _ _
 72
   65
 73
    2
 40
9.524999999999999
 49
6.35
 49
-3.175
  0
LTYPE
  2
DASHEDX2
 70
    0
  3
Dashed (2x) ____  ____  ____  ____  ____  ___
 72
   65
 73
    2
 40
38.09999999999999
 49
25.4
 49
-12.7
  0
LTYPE
  2
DASHDOT
 70
    0
  3
Dash dot __ . __ . __ . __ . __ . __ . __ . __
 72
   65
 73
    4
 40
25.4
 49
12.7
 49
-6.35
 49
0
 49
-6.35
  0
LTYPE
  2
DASHDOTTINY
 70
    0
  3
Dash dot (.15x) _._._._._._._._._._._._._._._.
 72
   65
 73
    4
 40
3.81
 49
1.905
 49
-0.9525
 49
0
 49
-0.9525
  0
LTYPE
  2
DASHDOT2
 70
    0
  3
Dash dot (.5x) _._._._._._._._._._._._._._._.
 72
   65
 73
    4
 40
12.7
 49
6.35
 49
-3.175
 49
0
 49
-3.175
  0
LTYPE
  2
DASHDOTX2
 70
    0
  3
Dash dot (2x) ____  .  ____  .  ____  .  ___
 72
   65
 73
    4
 40
50.8
 49
25.4
 49
-12.7
 49
0
 49
-12.7
  0
LTYPE
  2
DIVIDE
 70
    0
  3
Divide ____ . . ____ . . ____ . . ____ . . ____
 72
   65
 73
    6
 40
31.75
 49
12.7
 49
-6.35
 49
0
 49
-6.35
 49
0
 49
-6.35
  0
LTYPE
  2
DIVIDETINY
 70
    0
  3
Divide (.15x) __..__..__..__..__..__..__..__.._
 72
   65
 73
    6
 40
4.7625
 49
1.905
 49
-0.9525
 49
0
 49
-0.9525
 49
0
 49
-0.9525
  0
LTYPE
  2
DIVIDE2
 70
    0
  3
Divide (.5x) __..__..__..__..__..__..__..__.._
 72
   65
 73
    6
 40
15.875
 49
6.35
 49
-3.175
 49
0
 49
-3.175
 49
0
 49
-3.175
  0
LTYPE
  2
DIVIDEX2
 70
    0
  3
Divide (2x) ________  .  .  ________  .  .  _
 72
   65
 73
    6
 40
63.5
 49
25.4
 49
-12.7
 49
0
 49
-12.7
 49
0
 49
-12.7
  0
LTYPE
  2
BORDER
 70
    0
  3
Border __ __ . __ __ . __ __ . __ __ . __ __ .
 72
   65
 73
    6
 40
44.45
 49
12.7
 49
-6.35
 49
12.7
 49
-6.35
 49
0
 49
-6.35
  0
LTYPE
  2
BORDERTINY
 70
    0
  3
Border (.15x) __.__.__.__.__.__.__.__.__.__.__.
 72
   65
 73
    6
 40
6.6675
 49
1.905
 49
-0.9525
 49
1.905
 49
-0.9525
 49
0
 49
-0.9525
  0
LTYPE
  2
BORDER2
 70
    0
  3
Border (.5x) __.__.__.__.__.__.__.__.__.__.__.
 72
   65
 73
    6
 40
22.225
 49
6.35
 49
-3.175
 49
6.35
 49
-3.175
 49
0
 49
-3.175
  0
LTYPE
  2
BORDERX2
 70
    0
  3
Border (2x) ____  ____  .  ____  ____  .  ___
 72
   65
 73
    6
 40
88.89999999999999
 49
25.4
 49
-12.7
 49
25.4
 49
-12.7
 49
0
 49
-12.7
  0
LTYPE
  2
CENTER
 70
    0
  3
Center ____ _ ____ _ ____ _ ____ _ ____ _ ____
 72
   65
 73
    4
 40
50.8
 49
31.75
 49
-6.35
 49
6.35
 49
-6.35
  0
LTYPE
  2
CENTERTINY
 70
    0
  3
Center (.15x) ___ _ ___ _ ___ _ ___ _ ___ _ ___
 72
   65
 73
    4
 40
7.619999999999999
 49
4.7625
 49
-0.9525
 49
0.9525
 49
-0.9525
  0
LTYPE
  2
CENTER2
 70
    0
  3
Center (.5x) ___ _ ___ _ ___ _ ___ _ ___ _ ___
 72
   65
 73
    4
 40
28.575
 49
19.05
 49
-3.175
 49
3.175
 49
-3.175
  0
LTYPE
  2
CENTERX2
 70
    0
  3
Center (2x) ________  __  ________  __  _____
 72
   65
 73
    4
 40
101.6
 49
63.5
 49
-12.7
 49
12.7
 49
-12.7
  0
ENDTAB
  0
TABLE
  2
LAYER
 70
    1
  0
LAYER
  2
0
 70
    0
 62
    7
  6
CONTINUOUS
  0
ENDTAB
  0
TABLE
  2
STYLE
 70
    3
  0
STYLE
  2
STANDARD
 70
    0
 40
0
 41
1
 50
0
 71
    0
 42
1
  3
TXT
  4

  0
ENDTAB
  0
TABLE
  2
VIEW
 70
    0
  0
ENDTAB
  0
TABLE
  2
UCS
 70
    0
  0
ENDTAB
  0
TABLE
  2
APPID
 70
    1
  0
APPID
  2
ACAD
 70
    0
  0
APPID
  2
LIBRECAD
 70
    0
  0
ENDTAB
  0
TABLE
  2
DIMSTYLE
 70
    1
  0
DIMSTYLE
  2
STANDARD
 70
    0
  3

  4

  5

  6

  7

 40
1
 41
3.302
 42
1
 43
0.38
 44
1
 45
0
 46
0
 47
0
 48
0
 49
1
140
3.5
141
0.09
142
0
143
25.4
144
1
145
0
146
1
147
1.524
 71
    0
 72
    0
 73
    1
 74
    1
 75
    0
 76
    0
 77
    0
 78
    0
170
    0
171
    2
172
    0
173
    0
174
    0
175
    0
176
    0
177
    0
178
    0
  0
ENDTAB
  0
ENDSEC
  0
SECTION
  2
BLOCKS
  0
BLOCK
  8
0
  2
$MODEL_SPACE
 70
    0
 10
0
 20
0
 30
0
  3
$MODEL_SPACE
  1

  0
ENDBLK
  8
0
  0
BLOCK
  8
0
  2
$PAPER_SPACE
 70
    0
 10
0
 20
0
 30
0
  3
$PAPER_SPACE
  1

  0
ENDBLK
  8
0
  0
ENDSEC
  0
SECTION
  2
ENTITIES
  0
CIRCLE
  5
31
  8
0
  6
CONTINUOUS
 62
  256
 10
51.57478350669999
 20
-81.66237907099999
 40
0.4999999999999865
  0
CIRCLE
  5
32
  8
0
  6
CONTINUOUS
 62
  256
 10
66.24754775459999
 20
-98.92554083769998
 40
0.500000000000005
  0
CIRCLE
  5
33
  8
0
  6
CONTINUOUS
 62
  256
 10
66.1696673415
 20
-80.41570467849999
 40
0.5000000000000091
  0
CIRCLE
  5
34
  8
0
  6
CONTINUOUS
 62
  256
 10
66.09178339089999
 20
-61.90502777019999
 40
0.5000000000000033
  0
CIRCLE
  5
35
  8
0
  6
CONTINUOUS
 62
  256
 10
122.1547594681
 20
-76.75474082579998
 40
0.5000000000000007
  0
CIRCLE
  5
36
  8
0
  6
CONTINUOUS
 62
  256
 10
84.30016839499999
 20
-111.3940198753
 40
0.499999999999988
  0
CIRCLE
  5
37
  8
0
  6
CONTINUOUS
 62
  256
 10
84.23818172910001
 20
-96.6616502796
 40
0.4999999999999982
  0
CIRCLE
  5
38
  8
0
  6
CONTINUOUS
 62
  256
 10
84.1761867118
 20
-81.92729583129999
 40
0.50000000000001
  0
CIRCLE
  5
39
  8
0
  6
CONTINUOUS
 62
  256
 10
84.05221338000001
 20
-52.46255663999999
 40
0.5000000000000066
  0
CIRCLE
  5
3A
  8
0
  6
CONTINUOUS
 62
  256
 10
84.11420004589999
 20
-67.19492623559999
 40
0.4999999999999999
  0
CIRCLE
  5
3B
  8
0
  6
CONTINUOUS
 62
  256
 10
102.3338057872
 20
-119.3507507265
 40
0.4999999999999932
  0
CIRCLE
  5
3C
  8
0
  6
CONTINUOUS
 62
  256
 10
102.2740091135
 20
-105.1388765237
 40
0.5000000000000016
  0
CIRCLE
  5
3D
  8
0
  6
CONTINUOUS
 62
  256
 10
142.1545824386
 20
-76.67059127089999
 40
0.5000000000000007
  0
CIRCLE
  5
3E
  8
0
  6
CONTINUOUS
 62
  256
 10
102.2142124397
 20
-90.92700232079999
 40
0.5000000000000066
  0
CIRCLE
  5
3F
  8
0
  6
CONTINUOUS
 62
  256
 10
102.1544188093
 20
-76.71585142469999
 40
0.5000000000000007
  0
CIRCLE
  5
40
  8
0
  6
CONTINUOUS
 62
  256
 10
162.1544054092
 20
-76.58644171599998
 40
0.4999999999999964
  0
CIRCLE
  5
41
  8
0
  6
CONTINUOUS
 62
  256
 10
102.0946221356
 20
-62.50397722189999
 40
0.4999999999999999
  0
CIRCLE
  5
42
  8
0
  6
CONTINUOUS
 62
  256
 10
102.0348254618
 20
-48.29210301899999
 40
0.5000000000000016
  0
CIRCLE
  5
43
  8
0
  6
CONTINUOUS
 62
  256
 10
122.3583646795
 20
-125.14558718
 40
0.5000000000000016
  0
CIRCLE
  5
44
  8
0
  6
CONTINUOUS
 62
  256
 10
122.0295638501
 20
-46.99950090089999
 40
0.5000000000000016
  0
CIRCLE
  5
45
  8
0
  6
CONTINUOUS
 62
  256
 10
142.3761257771
 20
-129.3247919232
 40
0.4999999999999974
  0
CIRCLE
  5
46
  8
0
  6
CONTINUOUS
 62
  256
 10
142.0352110872
 20
-48.29960465249999
 40
0.5000000000000058
  0
CIRCLE
  5
47
  8
0
  6
CONTINUOUS
 62
  256
 10
162.3919554896
 20
-133.0449643877
 40
0.5000000000000083
  0
CIRCLE
  5
48
  8
0
  6
CONTINUOUS
 62
  256
 10
162.048239672
 20
-51.35403317349999
 40
0.5000000000000016
  0
CIRCLE
  5
49
  8
0
  6
CONTINUOUS
 62
  256
 10
182.4043603618
 20
-135.9511551415
 40
0.5000000000000016
  0
LINE
  5
4A
  8
0
  6
CONTINUOUS
 62
  256
 10
141.0097840366
 20
-102.530303605
 11
141.0842563927
 21
-120.2301469339
  0
LINE
  5
4B
  8
0
  6
CONTINUOUS
 62
  256
 10
141.0097840366
 20
-102.530303605
 11
202.1092432115
 21
-102.2732267147
  0
LINE
  5
4C
  8
0
  6
CONTINUOUS
 62
  256
 10
202.1092432115
 20
-102.2732267147
 11
202.1837155676
 21
-119.9730700436
  0
LINE
  5
4D
  8
0
  6
CONTINUOUS
 62
  256
 10
141.0842563927
 20
-120.2301469339
 11
202.1837155676
 21
-119.9730700436
  0
LINE
  5
4E
  8
0
  6
CONTINUOUS
 62
  256
 10
179.206992942
 20
-78.01937274069999
 11
179.2926151141
 21
-98.36919261319998
  0
LINE
  5
4F
  8
0
  6
CONTINUOUS
 62
  256
 10
179.206992942
 20
-78.01937274069999
 11
206.0067557225
 21
-77.90661233709999
  0
LINE
  5
50
  8
0
  6
CONTINUOUS
 62
  256
 10
206.0067557225
 20
-77.90661233709999
 11
206.0923778946
 21
-98.25643220959999
  0
LINE
  5
51
  8
0
  6
CONTINUOUS
 62
  256
 10
179.2926151141
 20
-98.36919261319998
 11
206.0923778946
 21
-98.25643220959999
  0
LINE
  5
52
  8
0
  6
CONTINUOUS
 62
  256
 10
46.50428099339999
 20
-88.68377524719999
 11
56.70419070840001
 21
-88.64085897419999
  0
LINE
  5
53
  8
0
  6
CONTINUOUS
 62
  256
 10
46.50428099339999
 20
-88.68377524719999
 11
46.445376305
 21
-74.68389916789999
  0
LINE
  5
54
  8
0
  6
CONTINUOUS
 62
  256
 10
46.445376305
 20
-74.68389916789999
 11
56.64528601999999
 21
-74.64098289479999
  0
LINE
  5
55
  8
0
  6
CONTINUOUS
 62
  256
 10
56.70419070840001
 20
-88.64085897419999
 11
56.64528601999999
 21
-74.64098289479999
  0
LINE
  5
56
  8
0
  6
CONTINUOUS
 62
  256
 10
48.48007029339999
 20
-82.92541118769999
 11
50.48005259050001
 21
-82.91699623219999
  0
LINE
  5
57
  8
0
  6
CONTINUOUS
 62
  256
 10
48.48007029339999
 20
-82.92541118769999
 11
48.46955159909999
 21
-80.42543331639999
  0
LINE
  5
58
  8
0
  6
CONTINUOUS
 62
  256
 10
48.46955159909999
 20
-80.42543331639999
 11
50.46953389609999
 21
-80.41701836089999
  0
LINE
  5
59
  8
0
  6
CONTINUOUS
 62
  256
 10
50.48005259050001
 20
-82.91699623219999
 11
50.46953389609999
 21
-80.41701836089999
  0
LINE
  5
5A
  8
0
  6
CONTINUOUS
 62
  256
 10
73.26894393079999
 20
-103.996043351
 11
73.2260276577
 21
-93.79613363599999
  0
LINE
  5
5B
  8
0
  6
CONTINUOUS
 62
  256
 10
73.26894393079999
 20
-103.996043351
 11
59.2690678514
 21
-104.0549480394
  0
LINE
  5
5C
  8
0
  6
CONTINUOUS
 62
  256
 10
59.2690678514
 20
-104.0549480394
 11
59.22615157839999
 21
-93.85503832449999
  0
LINE
  5
5D
  8
0
  6
CONTINUOUS
 62
  256
 10
73.2260276577
 20
-93.79613363599999
 11
59.22615157839999
 21
-93.85503832449999
  0
LINE
  5
5E
  8
0
  6
CONTINUOUS
 62
  256
 10
67.51057987120001
 20
-102.020254051
 11
67.50216491570001
 21
-100.0202717539
  0
LINE
  5
5F
  8
0
  6
CONTINUOUS
 62
  256
 10
67.51057987120001
 20
-102.020254051
 11
65.01060199989999
 21
-102.0307727453
  0
LINE
  5
60
  8
0
  6
CONTINUOUS
 62
  256
 10
65.01060199989999
 20
-102.0307727453
 11
65.00218704439999
 21
-100.0307904483
  0
LINE
  5
61
  8
0
  6
CONTINUOUS
 62
  256
 10
67.50216491570001
 20
-100.0202717539
 11
65.00218704439999
 21
-100.0307904483
  0
LINE
  5
62
  8
0
  6
CONTINUOUS
 62
  256
 10
59.1482711653
 20
-75.34520216529999
 11
59.19118743830001
 21
-85.54511188019998
  0
LINE
  5
63
  8
0
  6
CONTINUOUS
 62
  256
 10
59.1482711653
 20
-75.34520216529999
 11
73.1481472447
 21
-75.28629747679999
  0
LINE
  5
64
  8
0
  6
CONTINUOUS
 62
  256
 10
73.1481472447
 20
-75.28629747679999
 11
73.1910635177
 21
-85.48620719179999
  0
LINE
  5
65
  8
0
  6
CONTINUOUS
 62
  256
 10
59.19118743830001
 20
-85.54511188019998
 11
73.1910635177
 21
-85.48620719179999
  0
LINE
  5
66
  8
0
  6
CONTINUOUS
 62
  256
 10
64.9066352248
 20
-77.32099146529998
 11
64.9150501803
 21
-79.32097376229999
  0
LINE
  5
67
  8
0
  6
CONTINUOUS
 62
  256
 10
64.9066352248
 20
-77.32099146529998
 11
67.40661309609999
 21
-77.31047277089999
  0
LINE
  5
68
  8
0
  6
CONTINUOUS
 62
  256
 10
67.40661309609999
 20
-77.31047277089999
 11
67.41502805159999
 21
-79.31045506799998
  0
LINE
  5
69
  8
0
  6
CONTINUOUS
 62
  256
 10
64.9150501803
 20
-79.32097376229999
 11
67.41502805159999
 21
-79.31045506799998
  0
LINE
  5
6A
  8
0
  6
CONTINUOUS
 62
  256
 10
59.07038721469999
 20
-56.83452525699999
 11
59.11330348769999
 21
-67.03443497189998
  0
LINE
  5
6B
  8
0
  6
CONTINUOUS
 62
  256
 10
59.07038721469999
 20
-56.83452525699999
 11
73.07026329409999
 21
-56.77562056849999
  0
LINE
  5
6C
  8
0
  6
CONTINUOUS
 62
  256
 10
73.07026329409999
 20
-56.77562056849999
 11
73.11317956709999
 21
-66.97553028349999
  0
LINE
  5
6D
  8
0
  6
CONTINUOUS
 62
  256
 10
59.11330348769999
 20
-67.03443497189998
 11
73.11317956709999
 21
-66.97553028349999
  0
LINE
  5
6E
  8
0
  6
CONTINUOUS
 62
  256
 10
64.82875127419999
 20
-58.81031455699998
 11
64.83716622969999
 21
-60.81029685399999
  0
LINE
  5
6F
  8
0
  6
CONTINUOUS
 62
  256
 10
64.82875127419999
 20
-58.81031455699998
 11
67.32872914559999
 21
-58.79979586259999
  0
LINE
  5
70
  8
0
  6
CONTINUOUS
 62
  256
 10
67.32872914559999
 20
-58.79979586259999
 11
67.33714410109999
 21
-60.79977815969999
  0
LINE
  5
71
  8
0
  6
CONTINUOUS
 62
  256
 10
64.83716622969999
 20
-60.81029685399999
 11
67.33714410109999
 21
-60.79977815969999
  0
LINE
  5
72
  8
0
  6
CONTINUOUS
 62
  256
 10
115.1333632919
 20
-71.68423831259999
 11
115.1762795649
 21
-81.88414802759999
  0
LINE
  5
73
  8
0
  6
CONTINUOUS
 62
  256
 10
115.1333632919
 20
-71.68423831259999
 11
129.1332393713
 21
-71.62533362409999
  0
LINE
  5
74
  8
0
  6
CONTINUOUS
 62
  256
 10
129.1332393713
 20
-71.62533362409999
 11
129.1761556443
 21
-81.82524333909998
  0
LINE
  5
75
  8
0
  6
CONTINUOUS
 62
  256
 10
115.1762795649
 20
-81.88414802759999
 11
129.1761556443
 21
-81.82524333909998
  0
LINE
  5
76
  8
0
  6
CONTINUOUS
 62
  256
 10
120.8917273514
 20
-73.66002761259999
 11
120.9001423069
 21
-75.66000990959999
  0
LINE
  5
77
  8
0
  6
CONTINUOUS
 62
  256
 10
120.8917273514
 20
-73.66002761259999
 11
123.3917052227
 21
-73.64950891819998
  0
LINE
  5
78
  8
0
  6
CONTINUOUS
 62
  256
 10
123.3917052227
 20
-73.64950891819998
 11
123.4001201782
 21
-75.64949121529999
  0
LINE
  5
79
  8
0
  6
CONTINUOUS
 62
  256
 10
120.9001423069
 20
-75.66000990959999
 11
123.4001201782
 21
-75.64949121529999
  0
LINE
  5
7A
  8
0
  6
CONTINUOUS
 62
  256
 10
91.3215645711
 20
-116.4645223885
 11
91.27864829809999
 21
-106.2646126735
  0
LINE
  5
7B
  8
0
  6
CONTINUOUS
 62
  256
 10
91.3215645711
 20
-116.4645223885
 11
77.32168849179999
 21
-116.523427077
  0
LINE
  5
7C
  8
0
  6
CONTINUOUS
 62
  256
 10
77.32168849179999
 20
-116.523427077
 11
77.27877221879999
 21
-106.323517362
  0
LINE
  5
7D
  8
0
  6
CONTINUOUS
 62
  256
 10
91.27864829809999
 20
-106.2646126735
 11
77.27877221879999
 21
-106.323517362
  0
LINE
  5
7E
  8
0
  6
CONTINUOUS
 62
  256
 10
85.5632005116
 20
-114.4887330885
 11
85.5547855561
 21
-112.4887507915
  0
LINE
  5
7F
  8
0
  6
CONTINUOUS
 62
  256
 10
85.5632005116
 20
-114.4887330885
 11
83.06322264030001
 21
-114.4992517829
  0
LINE
  5
80
  8
0
  6
CONTINUOUS
 62
  256
 10
83.06322264030001
 20
-114.4992517829
 11
83.05480768480001
 21
-112.4992694858
  0
LINE
  5
81
  8
0
  6
CONTINUOUS
 62
  256
 10
85.5547855561
 20
-112.4887507915
 11
83.05480768480001
 21
-112.4992694858
  0
LINE
  5
82
  8
0
  6
CONTINUOUS
 62
  256
 10
77.21678555290001
 20
-91.59114776629998
 11
77.25970182590001
 21
-101.7910574813
  0
LINE
  5
83
  8
0
  6
CONTINUOUS
 62
  256
 10
77.21678555290001
 20
-91.59114776629998
 11
91.21666163219999
 21
-91.53224307789999
  0
LINE
  5
84
  8
0
  6
CONTINUOUS
 62
  256
 10
91.21666163219999
 20
-91.53224307789999
 11
91.25957790519999
 21
-101.7321527929
  0
LINE
  5
85
  8
0
  6
CONTINUOUS
 62
  256
 10
77.25970182590001
 20
-101.7910574813
 11
91.25957790519999
 21
-101.7321527929
  0
LINE
  5
86
  8
0
  6
CONTINUOUS
 62
  256
 10
82.9751496124
 20
-93.56693706629999
 11
82.9835645679
 21
-95.56691936339999
  0
LINE
  5
87
  8
0
  6
CONTINUOUS
 62
  256
 10
82.9751496124
 20
-93.56693706629999
 11
85.47512748369999
 21
-93.556418372
  0
LINE
  5
88
  8
0
  6
CONTINUOUS
 62
  256
 10
85.47512748369999
 20
-93.556418372
 11
85.48354243919999
 21
-95.55640066899998
  0
LINE
  5
89
  8
0
  6
CONTINUOUS
 62
  256
 10
82.9835645679
 20
-95.56691936339999
 11
85.48354243919999
 21
-95.55640066899998
  0
LINE
  5
8A
  8
0
  6
CONTINUOUS
 62
  256
 10
77.15479053569999
 20
-76.85679331799999
 11
77.19770680869999
 21
-87.05670303299999
  0
LINE
  5
8B
  8
0
  6
CONTINUOUS
 62
  256
 10
77.15479053569999
 20
-76.85679331799999
 11
91.154666615
 21
-76.7978886296
  0
LINE
  5
8C
  8
0
  6
CONTINUOUS
 62
  256
 10
91.154666615
 20
-76.7978886296
 11
91.197582888
 21
-86.99779834459999
  0
LINE
  5
8D
  8
0
  6
CONTINUOUS
 62
  256
 10
77.19770680869999
 20
-87.05670303299999
 11
91.197582888
 21
-86.99779834459999
  0
LINE
  5
8E
  8
0
  6
CONTINUOUS
 62
  256
 10
82.91315459520001
 20
-78.83258261799999
 11
82.92156955070001
 21
-80.83256491509999
  0
LINE
  5
8F
  8
0
  6
CONTINUOUS
 62
  256
 10
82.91315459520001
 20
-78.83258261799999
 11
85.4131324665
 21
-78.82206392369999
  0
LINE
  5
90
  8
0
  6
CONTINUOUS
 62
  256
 10
85.4131324665
 20
-78.82206392369999
 11
85.421547422
 21
-80.82204622069999
  0
LINE
  5
91
  8
0
  6
CONTINUOUS
 62
  256
 10
82.92156955070001
 20
-80.83256491509999
 11
85.421547422
 21
-80.82204622069999
  0
LINE
  5
92
  8
0
  6
CONTINUOUS
 62
  256
 10
77.03081720380001
 20
-47.39205412669999
 11
77.0737334769
 21
-57.59196384169999
  0
LINE
  5
93
  8
0
  6
CONTINUOUS
 62
  256
 10
77.03081720380001
 20
-47.39205412669999
 11
91.03069328320001
 21
-47.33314943829998
  0
LINE
  5
94
  8
0
  6
CONTINUOUS
 62
  256
 10
91.03069328320001
 20
-47.33314943829998
 11
91.07360955620001
 21
-57.53305915319999
  0
LINE
  5
95
  8
0
  6
CONTINUOUS
 62
  256
 10
77.0737334769
 20
-57.59196384169999
 11
91.07360955620001
 21
-57.53305915319999
  0
LINE
  5
96
  8
0
  6
CONTINUOUS
 62
  256
 10
82.7891812634
 20
-49.36784342669999
 11
82.7975962189
 21
-51.36782572379999
  0
LINE
  5
97
  8
0
  6
CONTINUOUS
 62
  256
 10
82.7891812634
 20
-49.36784342669999
 11
85.28915913469999
 21
-49.35732473239999
  0
LINE
  5
98
  8
0
  6
CONTINUOUS
 62
  256
 10
85.28915913469999
 20
-49.35732473239999
 11
85.29757409019999
 21
-51.35730702939999
  0
LINE
  5
99
  8
0
  6
CONTINUOUS
 62
  256
 10
82.7975962189
 20
-51.36782572379999
 11
85.29757409019999
 21
-51.35730702939999
  0
LINE
  5
9A
  8
0
  6
CONTINUOUS
 62
  256
 10
77.09280386969999
 20
-62.12442372239999
 11
77.13572014280001
 21
-72.32433343729998
  0
LINE
  5
9B
  8
0
  6
CONTINUOUS
 62
  256
 10
77.09280386969999
 20
-62.12442372239999
 11
91.09267994909999
 21
-62.06551903389999
  0
LINE
  5
9C
  8
0
  6
CONTINUOUS
 62
  256
 10
91.09267994909999
 20
-62.06551903389999
 11
91.13559622209999
 21
-72.26542874889999
  0
LINE
  5
9D
  8
0
  6
CONTINUOUS
 62
  256
 10
77.13572014280001
 20
-72.32433343729998
 11
91.13559622209999
 21
-72.26542874889999
  0
LINE
  5
9E
  8
0
  6
CONTINUOUS
 62
  256
 10
82.8511679293
 20
-64.10021302239998
 11
82.85958288480001
 21
-66.10019531939999
  0
LINE
  5
9F
  8
0
  6
CONTINUOUS
 62
  256
 10
82.8511679293
 20
-64.10021302239998
 11
85.35114580059999
 21
-64.08969432799999
  0
LINE
  5
A0
  8
0
  6
CONTINUOUS
 62
  256
 10
85.35114580059999
 20
-64.08969432799999
 11
85.3595607561
 21
-66.08967662509998
  0
LINE
  5
A1
  8
0
  6
CONTINUOUS
 62
  256
 10
82.85958288480001
 20
-66.10019531939999
 11
85.3595607561
 21
-66.08967662509998
  0
LINE
  5
A2
  8
0
  6
CONTINUOUS
 62
  256
 10
109.3552019634
 20
-124.4212532398
 11
109.3122856904
 21
-114.2213435248
  0
LINE
  5
A3
  8
0
  6
CONTINUOUS
 62
  256
 10
109.3552019634
 20
-124.4212532398
 11
95.355325884
 21
-124.4801579283
  0
LINE
  5
A4
  8
0
  6
CONTINUOUS
 62
  256
 10
95.355325884
 20
-124.4801579283
 11
95.31240961099999
 21
-114.2802482133
  0
LINE
  5
A5
  8
0
  6
CONTINUOUS
 62
  256
 10
109.3122856904
 20
-114.2213435248
 11
95.31240961099999
 21
-114.2802482133
  0
LINE
  5
A6
  8
0
  6
CONTINUOUS
 62
  256
 10
103.5968379039
 20
-122.4454639398
 11
103.5884229484
 21
-120.4454816427
  0
LINE
  5
A7
  8
0
  6
CONTINUOUS
 62
  256
 10
103.5968379039
 20
-122.4454639398
 11
101.0968600326
 21
-122.4559826342
  0
LINE
  5
A8
  8
0
  6
CONTINUOUS
 62
  256
 10
101.0968600326
 20
-122.4559826342
 11
101.0884450771
 21
-120.4560003371
  0
LINE
  5
A9
  8
0
  6
CONTINUOUS
 62
  256
 10
103.5884229484
 20
-120.4454816427
 11
101.0884450771
 21
-120.4560003371
  0
LINE
  5
AA
  8
0
  6
CONTINUOUS
 62
  256
 10
95.2526129373
 20
-100.0683740104
 11
95.2955292103
 21
-110.2682837254
  0
LINE
  5
AB
  8
0
  6
CONTINUOUS
 62
  256
 10
95.2526129373
 20
-100.0683740104
 11
109.2524890167
 21
-100.009469322
  0
LINE
  5
AC
  8
0
  6
CONTINUOUS
 62
  256
 10
109.2524890167
 20
-100.009469322
 11
109.2954052897
 21
-110.2093790369
  0
LINE
  5
AD
  8
0
  6
CONTINUOUS
 62
  256
 10
95.2955292103
 20
-110.2682837254
 11
109.2954052897
 21
-110.2093790369
  0
LINE
  5
AE
  8
0
  6
CONTINUOUS
 62
  256
 10
101.0109769968
 20
-102.0441633104
 11
101.0193919523
 21
-104.0441456075
  0
LINE
  5
AF
  8
0
  6
CONTINUOUS
 62
  256
 10
101.0109769968
 20
-102.0441633104
 11
103.5109548681
 21
-102.0336446161
  0
LINE
  5
B0
  8
0
  6
CONTINUOUS
 62
  256
 10
103.5109548681
 20
-102.0336446161
 11
103.5193698236
 21
-104.0336269131
  0
LINE
  5
B1
  8
0
  6
CONTINUOUS
 62
  256
 10
101.0193919523
 20
-104.0441456075
 11
103.5193698236
 21
-104.0336269131
  0
LINE
  5
B2
  8
0
  6
CONTINUOUS
 62
  256
 10
135.1331862624
 20
-71.60008875759999
 11
135.1761025355
 21
-81.7999984726
  0
LINE
  5
B3
  8
0
  6
CONTINUOUS
 62
  256
 10
135.1331862624
 20
-71.60008875759999
 11
149.1330623418
 21
-71.54118406919999
  0
LINE
  5
B4
  8
0
  6
CONTINUOUS
 62
  256
 10
149.1330623418
 20
-71.54118406919999
 11
149.1759786148
 21
-81.74109378419999
  0
LINE
  5
B5
  8
0
  6
CONTINUOUS
 62
  256
 10
135.1761025355
 20
-81.7999984726
 11
149.1759786148
 21
-81.74109378419999
  0
LINE
  5
B6
  8
0
  6
CONTINUOUS
 62
  256
 10
140.891550322
 20
-73.5758780577
 11
140.8999652774
 21
-75.57586035469998
  0
LINE
  5
B7
  8
0
  6
CONTINUOUS
 62
  256
 10
140.891550322
 20
-73.5758780577
 11
143.3915281933
 21
-73.56535936329999
  0
LINE
  5
B8
  8
0
  6
CONTINUOUS
 62
  256
 10
143.3915281933
 20
-73.56535936329999
 11
143.3999431488
 21
-75.56534166029999
  0
LINE
  5
B9
  8
0
  6
CONTINUOUS
 62
  256
 10
140.8999652774
 20
-75.57586035469998
 11
143.3999431488
 21
-75.56534166029999
  0
LINE
  5
BA
  8
0
  6
CONTINUOUS
 62
  256
 10
95.19281626349999
 20
-85.85649980759999
 11
95.23573253660001
 21
-96.05640952249999
  0
LINE
  5
BB
  8
0
  6
CONTINUOUS
 62
  256
 10
95.19281626349999
 20
-85.85649980759999
 11
109.1926923429
 21
-85.79759511909998
  0
LINE
  5
BC
  8
0
  6
CONTINUOUS
 62
  256
 10
109.1926923429
 20
-85.79759511909998
 11
109.2356086159
 21
-95.99750483409998
  0
LINE
  5
BD
  8
0
  6
CONTINUOUS
 62
  256
 10
95.23573253660001
 20
-96.05640952249999
 11
109.2356086159
 21
-95.99750483409998
  0
LINE
  5
BE
  8
0
  6
CONTINUOUS
 62
  256
 10
100.9511803231
 20
-87.83228910759999
 11
100.9595952786
 21
-89.83227140459999
  0
LINE
  5
BF
  8
0
  6
CONTINUOUS
 62
  256
 10
100.9511803231
 20
-87.83228910759999
 11
103.4511581944
 21
-87.82177041319999
  0
LINE
  5
C0
  8
0
  6
CONTINUOUS
 62
  256
 10
103.4511581944
 20
-87.82177041319999
 11
103.4595731499
 21
-89.82175271029999
  0
LINE
  5
C1
  8
0
  6
CONTINUOUS
 62
  256
 10
100.9595952786
 20
-89.83227140459999
 11
103.4595731499
 21
-89.82175271029999
  0
LINE
  5
C2
  8
0
  6
CONTINUOUS
 62
  256
 10
95.13302263310001
 20
-71.64534891149999
 11
95.17593890609999
 21
-81.84525862649998
  0
LINE
  5
C3
  8
0
  6
CONTINUOUS
 62
  256
 10
95.13302263310001
 20
-71.64534891149999
 11
109.1328987125
 21
-71.58644422299999
  0
LINE
  5
C4
  8
0
  6
CONTINUOUS
 62
  256
 10
109.1328987125
 20
-71.58644422299999
 11
109.1758149855
 21
-81.78635393799999
  0
LINE
  5
C5
  8
0
  6
CONTINUOUS
 62
  256
 10
95.17593890609999
 20
-81.84525862649998
 11
109.1758149855
 21
-81.78635393799999
  0
LINE
  5
C6
  8
0
  6
CONTINUOUS
 62
  256
 10
100.8913866927
 20
-73.62113821149998
 11
100.8998016481
 21
-75.62112050849998
  0
LINE
  5
C7
  8
0
  6
CONTINUOUS
 62
  256
 10
100.8913866927
 20
-73.62113821149998
 11
103.391364564
 21
-73.61061951709999
  0
LINE
  5
C8
  8
0
  6
CONTINUOUS
 62
  256
 10
103.391364564
 20
-73.61061951709999
 11
103.3997795195
 21
-75.6106018142
  0
LINE
  5
C9
  8
0
  6
CONTINUOUS
 62
  256
 10
100.8998016481
 20
-75.62112050849998
 11
103.3997795195
 21
-75.6106018142
  0
LINE
  5
CA
  8
0
  6
CONTINUOUS
 62
  256
 10
155.133009233
 20
-71.51593920269998
 11
155.175925506
 21
-81.71584891769999
  0
LINE
  5
CB
  8
0
  6
CONTINUOUS
 62
  256
 10
155.133009233
 20
-71.51593920269998
 11
169.1328853123
 21
-71.45703451429999
  0
LINE
  5
CC
  8
0
  6
CONTINUOUS
 62
  256
 10
169.1328853123
 20
-71.45703451429999
 11
169.1758015854
 21
-81.65694422919999
  0
LINE
  5
CD
  8
0
  6
CONTINUOUS
 62
  256
 10
155.175925506
 20
-81.71584891769999
 11
169.1758015854
 21
-81.65694422919999
  0
LINE
  5
CE
  8
0
  6
CONTINUOUS
 62
  256
 10
160.8913732925
 20
-73.49172850269998
 11
160.899788248
 21
-75.49171079979999
  0
LINE
  5
CF
  8
0
  6
CONTINUOUS
 62
  256
 10
160.8913732925
 20
-73.49172850269998
 11
163.3913511638
 21
-73.4812098084
  0
LINE
  5
D0
  8
0
  6
CONTINUOUS
 62
  256
 10
163.3913511638
 20
-73.4812098084
 11
163.3997661193
 21
-75.48119210539998
  0
LINE
  5
D1
  8
0
  6
CONTINUOUS
 62
  256
 10
160.899788248
 20
-75.49171079979999
 11
163.3997661193
 21
-75.48119210539998
  0
LINE
  5
D2
  8
0
  6
CONTINUOUS
 62
  256
 10
95.07322595939999
 20
-57.43347470859999
 11
95.11614223239999
 21
-67.63338442359999
  0
LINE
  5
D3
  8
0
  6
CONTINUOUS
 62
  256
 10
95.07322595939999
 20
-57.43347470859999
 11
109.0731020388
 21
-57.37457002019999
  0
LINE
  5
D4
  8
0
  6
CONTINUOUS
 62
  256
 10
109.0731020388
 20
-57.37457002019999
 11
109.1160183118
 21
-67.57447973509998
  0
LINE
  5
D5
  8
0
  6
CONTINUOUS
 62
  256
 10
95.11614223239999
 20
-67.63338442359999
 11
109.1160183118
 21
-67.57447973509998
  0
LINE
  5
D6
  8
0
  6
CONTINUOUS
 62
  256
 10
100.8315900189
 20
-59.40926400859999
 11
100.8400049744
 21
-61.40924630569999
  0
LINE
  5
D7
  8
0
  6
CONTINUOUS
 62
  256
 10
100.8315900189
 20
-59.40926400859999
 11
103.3315678902
 21
-59.39874531429999
  0
LINE
  5
D8
  8
0
  6
CONTINUOUS
 62
  256
 10
103.3315678902
 20
-59.39874531429999
 11
103.3399828457
 21
-61.39872761129999
  0
LINE
  5
D9
  8
0
  6
CONTINUOUS
 62
  256
 10
100.8400049744
 20
-61.40924630569999
 11
103.3399828457
 21
-61.39872761129999
  0
LINE
  5
DA
  8
0
  6
CONTINUOUS
 62
  256
 10
95.0134292857
 20
-43.22160050579999
 11
95.0563455587
 21
-53.42151022069999
  0
LINE
  5
DB
  8
0
  6
CONTINUOUS
 62
  256
 10
95.0134292857
 20
-43.22160050579999
 11
109.013305365
 21
-43.16269581729999
  0
LINE
  5
DC
  8
0
  6
CONTINUOUS
 62
  256
 10
109.013305365
 20
-43.16269581729999
 11
109.056221638
 21
-53.36260553229999
  0
LINE
  5
DD
  8
0
  6
CONTINUOUS
 62
  256
 10
95.0563455587
 20
-53.42151022069999
 11
109.056221638
 21
-53.36260553229999
  0
LINE
  5
DE
  8
0
  6
CONTINUOUS
 62
  256
 10
100.7717933452
 20
-45.19738980579999
 11
100.7802083007
 21
-47.19737210279999
  0
LINE
  5
DF
  8
0
  6
CONTINUOUS
 62
  256
 10
100.7717933452
 20
-45.19738980579999
 11
103.2717712165
 21
-45.18687111139999
  0
LINE
  5
E0
  8
0
  6
CONTINUOUS
 62
  256
 10
103.2717712165
 20
-45.18687111139999
 11
103.280186172
 21
-47.18685340849999
  0
LINE
  5
E1
  8
0
  6
CONTINUOUS
 62
  256
 10
100.7802083007
 20
-47.19737210279999
 11
103.280186172
 21
-47.18685340849999
  0
LINE
  5
E2
  8
0
  6
CONTINUOUS
 62
  256
 10
129.3797608557
 20
-130.2160896933
 11
129.3368445827
 21
-120.0161799783
  0
LINE
  5
E3
  8
0
  6
CONTINUOUS
 62
  256
 10
129.3797608557
 20
-130.2160896933
 11
115.3798847763
 21
-130.2749943817
  0
LINE
  5
E4
  8
0
  6
CONTINUOUS
 62
  256
 10
115.3798847763
 20
-130.2749943817
 11
115.3369685033
 21
-120.0750846668
  0
LINE
  5
E5
  8
0
  6
CONTINUOUS
 62
  256
 10
129.3368445827
 20
-120.0161799783
 11
115.3369685033
 21
-120.0750846668
  0
LINE
  5
E6
  8
0
  6
CONTINUOUS
 62
  256
 10
123.6213967962
 20
-128.2403003933
 11
123.6129818407
 21
-126.2403180962
  0
LINE
  5
E7
  8
0
  6
CONTINUOUS
 62
  256
 10
123.6213967962
 20
-128.2403003933
 11
121.1214189249
 21
-128.2508190876
  0
LINE
  5
E8
  8
0
  6
CONTINUOUS
 62
  256
 10
121.1214189249
 20
-128.2508190876
 11
121.1130039694
 21
-126.2508367906
  0
LINE
  5
E9
  8
0
  6
CONTINUOUS
 62
  256
 10
123.6129818407
 20
-126.2403180962
 11
121.1130039694
 21
-126.2508367906
  0
LINE
  5
EA
  8
0
  6
CONTINUOUS
 62
  256
 10
115.0081676739
 20
-41.92899838759999
 11
115.0510839469
 21
-52.12890810259999
  0
LINE
  5
EB
  8
0
  6
CONTINUOUS
 62
  256
 10
115.0081676739
 20
-41.92899838759999
 11
129.0080437533
 21
-41.87009369919999
  0
LINE
  5
EC
  8
0
  6
CONTINUOUS
 62
  256
 10
129.0080437533
 20
-41.87009369919999
 11
129.0509600263
 21
-52.07000341409999
  0
LINE
  5
ED
  8
0
  6
CONTINUOUS
 62
  256
 10
115.0510839469
 20
-52.12890810259999
 11
129.0509600263
 21
-52.07000341409999
  0
LINE
  5
EE
  8
0
  6
CONTINUOUS
 62
  256
 10
120.7665317334
 20
-43.90478768759999
 11
120.7749466889
 21
-45.90476998469999
  0
LINE
  5
EF
  8
0
  6
CONTINUOUS
 62
  256
 10
120.7665317334
 20
-43.90478768759999
 11
123.2665096047
 21
-43.89426899329999
  0
LINE
  5
F0
  8
0
  6
CONTINUOUS
 62
  256
 10
123.2665096047
 20
-43.89426899329999
 11
123.2749245602
 21
-45.89425129029999
  0
LINE
  5
F1
  8
0
  6
CONTINUOUS
 62
  256
 10
120.7749466889
 20
-45.90476998469999
 11
123.2749245602
 21
-45.89425129029999
  0
LINE
  5
F2
  8
0
  6
CONTINUOUS
 62
  256
 10
149.3975219533
 20
-134.3952944365
 11
149.3546056803
 21
-124.1953847215
  0
LINE
  5
F3
  8
0
  6
CONTINUOUS
 62
  256
 10
149.3975219533
 20
-134.3952944365
 11
135.397645874
 21
-134.4541991249
  0
LINE
  5
F4
  8
0
  6
CONTINUOUS
 62
  256
 10
135.397645874
 20
-134.4541991249
 11
135.3547296009
 21
-124.25428941
  0
LINE
  5
F5
  8
0
  6
CONTINUOUS
 62
  256
 10
149.3546056803
 20
-124.1953847215
 11
135.3547296009
 21
-124.25428941
  0
LINE
  5
F6
  8
0
  6
CONTINUOUS
 62
  256
 10
143.6391578938
 20
-132.4195051365
 11
143.6307429383
 21
-130.4195228394
  0
LINE
  5
F7
  8
0
  6
CONTINUOUS
 62
  256
 10
143.6391578938
 20
-132.4195051365
 11
141.1391800225
 21
-132.4300238308
  0
LINE
  5
F8
  8
0
  6
CONTINUOUS
 62
  256
 10
141.1391800225
 20
-132.4300238308
 11
141.130765067
 21
-130.4300415338
  0
LINE
  5
F9
  8
0
  6
CONTINUOUS
 62
  256
 10
143.6307429383
 20
-130.4195228394
 11
141.130765067
 21
-130.4300415338
  0
LINE
  5
FA
  8
0
  6
CONTINUOUS
 62
  256
 10
135.013814911
 20
-43.22910213919999
 11
135.056731184
 21
-53.42901185419998
  0
LINE
  5
FB
  8
0
  6
CONTINUOUS
 62
  256
 10
135.013814911
 20
-43.22910213919999
 11
149.0136909903
 21
-43.17019745079999
  0
LINE
  5
FC
  8
0
  6
CONTINUOUS
 62
  256
 10
149.0136909903
 20
-43.17019745079999
 11
149.0566072634
 21
-53.37010716569999
  0
LINE
  5
FD
  8
0
  6
CONTINUOUS
 62
  256
 10
135.056731184
 20
-53.42901185419998
 11
149.0566072634
 21
-53.37010716569999
  0
LINE
  5
FE
  8
0
  6
CONTINUOUS
 62
  256
 10
140.7721789705
 20
-45.20489143919999
 11
140.780593926
 21
-47.20487373629999
  0
LINE
  5
FF
  8
0
  6
CONTINUOUS
 62
  256
 10
140.7721789705
 20
-45.20489143919999
 11
143.2721568418
 21
-45.19437274489999
  0
LINE
  5
100
  8
0
  6
CONTINUOUS
 62
  256
 10
143.2721568418
 20
-45.19437274489999
 11
143.2805717973
 21
-47.19435504189999
  0
LINE
  5
101
  8
0
  6
CONTINUOUS
 62
  256
 10
140.780593926
 20
-47.20487373629999
 11
143.2805717973
 21
-47.19435504189999
  0
LINE
  5
102
  8
0
  6
CONTINUOUS
 62
  256
 10
169.4133516658
 20
-138.115466901
 11
169.3704353928
 21
-127.915557186
  0
LINE
  5
103
  8
0
  6
CONTINUOUS
 62
  256
 10
169.4133516658
 20
-138.115466901
 11
155.4134755864
 21
-138.1743715895
  0
LINE
  5
104
  8
0
  6
CONTINUOUS
 62
  256
 10
155.4134755864
 20
-138.1743715895
 11
155.3705593134
 21
-127.9744618745
  0
LINE
  5
105
  8
0
  6
CONTINUOUS
 62
  256
 10
169.3704353928
 20
-127.915557186
 11
155.3705593134
 21
-127.9744618745
  0
LINE
  5
106
  8
0
  6
CONTINUOUS
 62
  256
 10
163.6549876063
 20
-136.139677601
 11
163.6465726508
 21
-134.1396953039
  0
LINE
  5
107
  8
0
  6
CONTINUOUS
 62
  256
 10
163.6549876063
 20
-136.139677601
 11
161.1550097349
 21
-136.1501962954
  0
LINE
  5
108
  8
0
  6
CONTINUOUS
 62
  256
 10
161.1550097349
 20
-136.1501962954
 11
161.1465947795
 21
-134.1502139983
  0
LINE
  5
109
  8
0
  6
CONTINUOUS
 62
  256
 10
163.6465726508
 20
-134.1396953039
 11
161.1465947795
 21
-134.1502139983
  0
LINE
  5
10A
  8
0
  6
CONTINUOUS
 62
  256
 10
155.0268434958
 20
-46.28353066019999
 11
155.0697597688
 21
-56.48344037519999
  0
LINE
  5
10B
  8
0
  6
CONTINUOUS
 62
  256
 10
155.0268434958
 20
-46.28353066019999
 11
169.0267195752
 21
-46.22462597179999
  0
LINE
  5
10C
  8
0
  6
CONTINUOUS
 62
  256
 10
169.0267195752
 20
-46.22462597179999
 11
169.0696358482
 21
-56.42453568679998
  0
LINE
  5
10D
  8
0
  6
CONTINUOUS
 62
  256
 10
155.0697597688
 20
-56.48344037519999
 11
169.0696358482
 21
-56.42453568679998
  0
LINE
  5
10E
  8
0
  6
CONTINUOUS
 62
  256
 10
160.7852075553
 20
-48.25931996029999
 11
160.7936225108
 21
-50.25930225729999
  0
LINE
  5
10F
  8
0
  6
CONTINUOUS
 62
  256
 10
160.7852075553
 20
-48.25931996029999
 11
163.2851854266
 21
-48.24880126589998
  0
LINE
  5
110
  8
0
  6
CONTINUOUS
 62
  256
 10
163.2851854266
 20
-48.24880126589998
 11
163.2936003821
 21
-50.24878356289999
  0
LINE
  5
111
  8
0
  6
CONTINUOUS
 62
  256
 10
160.7936225108
 20
-50.25930225729999
 11
163.2936003821
 21
-50.24878356289999
  0
LINE
  5
112
  8
0
  6
CONTINUOUS
 62
  256
 10
189.425756538
 20
-141.0216576547
 11
189.382840265
 21
-130.8217479398
  0
LINE
  5
113
  8
0
  6
CONTINUOUS
 62
  256
 10
189.425756538
 20
-141.0216576547
 11
175.4258804586
 21
-141.0805623432
  0
LINE
  5
114
  8
0
  6
CONTINUOUS
 62
  256
 10
175.4258804586
 20
-141.0805623432
 11
175.3829641856
 21
-130.8806526282
  0
LINE
  5
115
  8
0
  6
CONTINUOUS
 62
  256
 10
189.382840265
 20
-130.8217479398
 11
175.3829641856
 21
-130.8806526282
  0
LINE
  5
116
  8
0
  6
CONTINUOUS
 62
  256
 10
183.6673924785
 20
-139.0458683547
 11
183.658977523
 21
-137.0458860577
  0
LINE
  5
117
  8
0
  6
CONTINUOUS
 62
  256
 10
183.6673924785
 20
-139.0458683547
 11
181.1674146071
 21
-139.0563870491
  0
LINE
  5
118
  8
0
  6
CONTINUOUS
 62
  256
 10
181.1674146071
 20
-139.0563870491
 11
181.1589996516
 21
-137.056404752
  0
LINE
  5
119
  8
0
  6
CONTINUOUS
 62
  256
 10
183.658977523
 20
-137.0458860577
 11
181.1589996516
 21
-137.056404752
  0
LINE
  5
11A
  8
0
  6
CONTINUOUS
 62
  256
 10
175.0434575089
 20
-50.19010783549999
 11
175.0863737819
 21
-60.39001755049999
  0
LINE
  5
11B
  8
0
  6
CONTINUOUS
 62
  256
 10
175.0434575089
 20
-50.19010783549999
 11
189.0433335882
 21
-50.13120314699999
  0
LINE
  5
11C
  8
0
  6
CONTINUOUS
 62
  256
 10
189.0433335882
 20
-50.13120314699999
 11
189.0862498612
 21
-60.33111286199999
  0
LINE
  5
11D
  8
0
  6
CONTINUOUS
 62
  256
 10
175.0863737819
 20
-60.39001755049999
 11
189.0862498612
 21
-60.33111286199999
  0
LINE
  5
11E
  8
0
  6
CONTINUOUS
 62
  256
 10
180.8018215684
 20
-52.16589713549999
 11
180.8102365239
 21
-54.16587943259999
  0
LINE
  5
11F
  8
0
  6
CONTINUOUS
 62
  256
 10
180.8018215684
 20
-52.16589713549999
 11
183.3017994397
 21
-52.15537844109998
  0
LINE
  5
120
  8
0
  6
CONTINUOUS
 62
  256
 10
183.3017994397
 20
-52.15537844109998
 11
183.3102143952
 21
-54.15536073819999
  0
LINE
  5
121
  8
0
  6
CONTINUOUS
 62
  256
 10
180.8102365239
 20
-54.16587943259999
 11
183.3102143952
 21
-54.15536073819999
  0
CIRCLE
  5
122
  8
0
  6
CONTINUOUS
 62
  256
 10
182.0649
 20
-55.26059999999999
 40
0.5
  0
LINE
  5
123
  8
0
  6
BYLAYER
 62
  256
 10
254
 20
-76.19999999999999
 11
209.9996105317204
 21
-76.19999999999999
  0
ENDSEC
  0
EOF
